<svg xmlns="http://www.w3.org/2000/svg" width="525" height="1178" viewBox="0 0 525 1178">
  <rect width="100%" height="100%" rx="8" fill="#FFFFFF"/>
  <g font-family="SFMono-Regular, Menlo, Monaco, Consolas, 'Liberation Mono', monospace" xml:space="preserve">
    <text x="26" y="43" fill="#6E7681" font-size="15"> 1</text>
    <text x="60.0" y="43" fill="#AF00DB" font-size="15">import</text>
    <text x="111.6" y="43" fill="#3B3B3B" font-size="15"> </text>
    <text x="120.2" y="43" fill="#3B3B3B" font-size="15">{</text>
    <text x="26" y="65" fill="#6E7681" font-size="15"> 2</text>
    <text x="60.0" y="65" fill="#3B3B3B" font-size="15">  </text>
    <text x="77.2" y="65" fill="#A31515" font-size="15">&quot;</text>
    <text x="85.8" y="65" fill="#A31515" font-size="15">moonbitlang/core/cmp</text>
    <text x="257.8" y="65" fill="#A31515" font-size="15">&quot;</text>
    <text x="266.4" y="65" fill="#3B3B3B" font-size="15">,</text>
    <text x="26" y="87" fill="#6E7681" font-size="15"> 3</text>
    <text x="60.0" y="87" fill="#3B3B3B" font-size="15">  </text>
    <text x="77.2" y="87" fill="#A31515" font-size="15">&quot;</text>
    <text x="85.8" y="87" fill="#A31515" font-size="15">moonbitlang/core/string</text>
    <text x="283.6" y="87" fill="#A31515" font-size="15">&quot;</text>
    <text x="292.2" y="87" fill="#3B3B3B" font-size="15">,</text>
    <text x="26" y="109" fill="#6E7681" font-size="15"> 4</text>
    <text x="60.0" y="109" fill="#3B3B3B" font-size="15">  </text>
    <text x="77.2" y="109" fill="#A31515" font-size="15">&quot;</text>
    <text x="85.8" y="109" fill="#A31515" font-size="15">moonbitlang/core/buffer</text>
    <text x="283.6" y="109" fill="#A31515" font-size="15">&quot;</text>
    <text x="292.2" y="109" fill="#3B3B3B" font-size="15">,</text>
    <text x="26" y="131" fill="#6E7681" font-size="15"> 5</text>
    <text x="60.0" y="131" fill="#3B3B3B" font-size="15">  </text>
    <text x="77.2" y="131" fill="#A31515" font-size="15">&quot;</text>
    <text x="85.8" y="131" fill="#A31515" font-size="15">moonbitlang/async/io</text>
    <text x="257.8" y="131" fill="#A31515" font-size="15">&quot;</text>
    <text x="266.4" y="131" fill="#3B3B3B" font-size="15">,</text>
    <text x="26" y="153" fill="#6E7681" font-size="15"> 6</text>
    <text x="60.0" y="153" fill="#3B3B3B" font-size="15">  </text>
    <text x="77.2" y="153" fill="#A31515" font-size="15">&quot;</text>
    <text x="85.8" y="153" fill="#A31515" font-size="15">moonbitlang/async/socket</text>
    <text x="292.2" y="153" fill="#A31515" font-size="15">&quot;</text>
    <text x="300.8" y="153" fill="#3B3B3B" font-size="15">,</text>
    <text x="26" y="175" fill="#6E7681" font-size="15"> 7</text>
    <text x="60.0" y="175" fill="#3B3B3B" font-size="15">  </text>
    <text x="77.2" y="175" fill="#A31515" font-size="15">&quot;</text>
    <text x="85.8" y="175" fill="#A31515" font-size="15">moonbitlang/async/tls</text>
    <text x="266.4" y="175" fill="#A31515" font-size="15">&quot;</text>
    <text x="275.0" y="175" fill="#3B3B3B" font-size="15">,</text>
    <text x="26" y="197" fill="#6E7681" font-size="15"> 8</text>
    <text x="60.0" y="197" fill="#3B3B3B" font-size="15">  </text>
    <text x="77.2" y="197" fill="#A31515" font-size="15">&quot;</text>
    <text x="85.8" y="197" fill="#A31515" font-size="15">moonbitlang/async/internal/io_buffer</text>
    <text x="395.4" y="197" fill="#A31515" font-size="15">&quot;</text>
    <text x="404.0" y="197" fill="#3B3B3B" font-size="15">,</text>
    <text x="26" y="219" fill="#6E7681" font-size="15"> 9</text>
    <text x="60.0" y="219" fill="#3B3B3B" font-size="15">  </text>
    <text x="77.2" y="219" fill="#A31515" font-size="15">&quot;</text>
    <text x="85.8" y="219" fill="#A31515" font-size="15">moonbitlang/async/js_async</text>
    <text x="309.4" y="219" fill="#A31515" font-size="15">&quot;</text>
    <text x="318.0" y="219" fill="#3B3B3B" font-size="15">,</text>
    <text x="26" y="241" fill="#6E7681" font-size="15">10</text>
    <text x="60.0" y="241" fill="#3B3B3B" font-size="15">  </text>
    <text x="77.2" y="241" fill="#A31515" font-size="15">&quot;</text>
    <text x="85.8" y="241" fill="#A31515" font-size="15">moonbitlang/async/internal/gzip_internal</text>
    <text x="429.8" y="241" fill="#A31515" font-size="15">&quot;</text>
    <text x="438.4" y="241" fill="#3B3B3B" font-size="15"> </text>
    <text x="447.0" y="241" fill="#267F99" font-size="15">@gzip</text>
    <text x="490.0" y="241" fill="#3B3B3B" font-size="15">,</text>
    <text x="26" y="263" fill="#6E7681" font-size="15">11</text>
    <text x="60.0" y="263" fill="#3B3B3B" font-size="15">}</text>
    <text x="26" y="285" fill="#6E7681" font-size="15">12</text>
    <text x="26" y="307" fill="#6E7681" font-size="15">13</text>
    <text x="60.0" y="307" fill="#AF00DB" font-size="15">import</text>
    <text x="111.6" y="307" fill="#3B3B3B" font-size="15"> </text>
    <text x="120.2" y="307" fill="#3B3B3B" font-size="15">{</text>
    <text x="26" y="329" fill="#6E7681" font-size="15">14</text>
    <text x="60.0" y="329" fill="#3B3B3B" font-size="15">  </text>
    <text x="77.2" y="329" fill="#A31515" font-size="15">&quot;</text>
    <text x="85.8" y="329" fill="#A31515" font-size="15">moonbitlang/core/debug</text>
    <text x="275.0" y="329" fill="#A31515" font-size="15">&quot;</text>
    <text x="283.6" y="329" fill="#3B3B3B" font-size="15">,</text>
    <text x="26" y="351" fill="#6E7681" font-size="15">15</text>
    <text x="60.0" y="351" fill="#3B3B3B" font-size="15">  </text>
    <text x="77.2" y="351" fill="#A31515" font-size="15">&quot;</text>
    <text x="85.8" y="351" fill="#A31515" font-size="15">moonbitlang/core/encoding/utf8</text>
    <text x="343.8" y="351" fill="#A31515" font-size="15">&quot;</text>
    <text x="352.4" y="351" fill="#3B3B3B" font-size="15">,</text>
    <text x="26" y="373" fill="#6E7681" font-size="15">16</text>
    <text x="60.0" y="373" fill="#3B3B3B" font-size="15">  </text>
    <text x="77.2" y="373" fill="#A31515" font-size="15">&quot;</text>
    <text x="85.8" y="373" fill="#A31515" font-size="15">moonbitlang/core/env</text>
    <text x="257.8" y="373" fill="#A31515" font-size="15">&quot;</text>
    <text x="266.4" y="373" fill="#3B3B3B" font-size="15">,</text>
    <text x="26" y="395" fill="#6E7681" font-size="15">17</text>
    <text x="60.0" y="395" fill="#3B3B3B" font-size="15">  </text>
    <text x="77.2" y="395" fill="#A31515" font-size="15">&quot;</text>
    <text x="85.8" y="395" fill="#A31515" font-size="15">moonbitlang/async</text>
    <text x="232.0" y="395" fill="#A31515" font-size="15">&quot;</text>
    <text x="240.6" y="395" fill="#3B3B3B" font-size="15">,</text>
    <text x="26" y="417" fill="#6E7681" font-size="15">18</text>
    <text x="60.0" y="417" fill="#3B3B3B" font-size="15">  </text>
    <text x="77.2" y="417" fill="#A31515" font-size="15">&quot;</text>
    <text x="85.8" y="417" fill="#A31515" font-size="15">moonbitlang/async/fs</text>
    <text x="257.8" y="417" fill="#A31515" font-size="15">&quot;</text>
    <text x="266.4" y="417" fill="#3B3B3B" font-size="15">,</text>
    <text x="26" y="439" fill="#6E7681" font-size="15">19</text>
    <text x="60.0" y="439" fill="#3B3B3B" font-size="15">  </text>
    <text x="77.2" y="439" fill="#A31515" font-size="15">&quot;</text>
    <text x="85.8" y="439" fill="#A31515" font-size="15">moonbitlang/async/gzip</text>
    <text x="275.0" y="439" fill="#A31515" font-size="15">&quot;</text>
    <text x="283.6" y="439" fill="#3B3B3B" font-size="15"> </text>
    <text x="292.2" y="439" fill="#267F99" font-size="15">@gzip_stream</text>
    <text x="395.4" y="439" fill="#3B3B3B" font-size="15">,</text>
    <text x="26" y="461" fill="#6E7681" font-size="15">20</text>
    <text x="60.0" y="461" fill="#3B3B3B" font-size="15">}</text>
    <text x="68.6" y="461" fill="#3B3B3B" font-size="15"> </text>
    <text x="77.2" y="461" fill="#AF00DB" font-size="15">for</text>
    <text x="103.0" y="461" fill="#3B3B3B" font-size="15"> </text>
    <text x="111.6" y="461" fill="#A31515" font-size="15">&quot;</text>
    <text x="120.2" y="461" fill="#A31515" font-size="15">test</text>
    <text x="154.6" y="461" fill="#A31515" font-size="15">&quot;</text>
    <text x="26" y="483" fill="#6E7681" font-size="15">21</text>
    <text x="26" y="505" fill="#6E7681" font-size="15">22</text>
    <text x="60.0" y="505" fill="#AF00DB" font-size="15">import</text>
    <text x="111.6" y="505" fill="#3B3B3B" font-size="15"> </text>
    <text x="120.2" y="505" fill="#3B3B3B" font-size="15">{</text>
    <text x="26" y="527" fill="#6E7681" font-size="15">23</text>
    <text x="60.0" y="527" fill="#3B3B3B" font-size="15">  </text>
    <text x="77.2" y="527" fill="#A31515" font-size="15">&quot;</text>
    <text x="85.8" y="527" fill="#A31515" font-size="15">moonbitlang/core/debug</text>
    <text x="275.0" y="527" fill="#A31515" font-size="15">&quot;</text>
    <text x="283.6" y="527" fill="#3B3B3B" font-size="15">,</text>
    <text x="26" y="549" fill="#6E7681" font-size="15">24</text>
    <text x="60.0" y="549" fill="#3B3B3B" font-size="15">  </text>
    <text x="77.2" y="549" fill="#A31515" font-size="15">&quot;</text>
    <text x="85.8" y="549" fill="#A31515" font-size="15">moonbitlang/core/encoding/utf8</text>
    <text x="343.8" y="549" fill="#A31515" font-size="15">&quot;</text>
    <text x="352.4" y="549" fill="#3B3B3B" font-size="15">,</text>
    <text x="26" y="571" fill="#6E7681" font-size="15">25</text>
    <text x="60.0" y="571" fill="#3B3B3B" font-size="15">  </text>
    <text x="77.2" y="571" fill="#A31515" font-size="15">&quot;</text>
    <text x="85.8" y="571" fill="#A31515" font-size="15">moonbitlang/async</text>
    <text x="232.0" y="571" fill="#A31515" font-size="15">&quot;</text>
    <text x="240.6" y="571" fill="#3B3B3B" font-size="15">,</text>
    <text x="26" y="593" fill="#6E7681" font-size="15">26</text>
    <text x="60.0" y="593" fill="#3B3B3B" font-size="15">  </text>
    <text x="77.2" y="593" fill="#A31515" font-size="15">&quot;</text>
    <text x="85.8" y="593" fill="#A31515" font-size="15">moonbitlang/async/fs</text>
    <text x="257.8" y="593" fill="#A31515" font-size="15">&quot;</text>
    <text x="266.4" y="593" fill="#3B3B3B" font-size="15">,</text>
    <text x="26" y="615" fill="#6E7681" font-size="15">27</text>
    <text x="60.0" y="615" fill="#3B3B3B" font-size="15">  </text>
    <text x="77.2" y="615" fill="#A31515" font-size="15">&quot;</text>
    <text x="85.8" y="615" fill="#A31515" font-size="15">moonbitlang/async/internal/bytes_util</text>
    <text x="404.0" y="615" fill="#A31515" font-size="15">&quot;</text>
    <text x="412.6" y="615" fill="#3B3B3B" font-size="15">,</text>
    <text x="26" y="637" fill="#6E7681" font-size="15">28</text>
    <text x="60.0" y="637" fill="#3B3B3B" font-size="15">  </text>
    <text x="77.2" y="637" fill="#A31515" font-size="15">&quot;</text>
    <text x="85.8" y="637" fill="#A31515" font-size="15">moonbitlang/async/gzip</text>
    <text x="275.0" y="637" fill="#A31515" font-size="15">&quot;</text>
    <text x="283.6" y="637" fill="#3B3B3B" font-size="15"> </text>
    <text x="292.2" y="637" fill="#267F99" font-size="15">@gzip_stream</text>
    <text x="395.4" y="637" fill="#3B3B3B" font-size="15">,</text>
    <text x="26" y="659" fill="#6E7681" font-size="15">29</text>
    <text x="60.0" y="659" fill="#3B3B3B" font-size="15">}</text>
    <text x="68.6" y="659" fill="#3B3B3B" font-size="15"> </text>
    <text x="77.2" y="659" fill="#AF00DB" font-size="15">for</text>
    <text x="103.0" y="659" fill="#3B3B3B" font-size="15"> </text>
    <text x="111.6" y="659" fill="#A31515" font-size="15">&quot;</text>
    <text x="120.2" y="659" fill="#A31515" font-size="15">wbtest</text>
    <text x="171.8" y="659" fill="#A31515" font-size="15">&quot;</text>
    <text x="26" y="681" fill="#6E7681" font-size="15">30</text>
    <text x="26" y="703" fill="#6E7681" font-size="15">31</text>
    <text x="60.0" y="703" fill="#795E26" font-size="15">options</text>
    <text x="120.2" y="703" fill="#3B3B3B" font-size="15">(</text>
    <text x="26" y="725" fill="#6E7681" font-size="15">32</text>
    <text x="60.0" y="725" fill="#3B3B3B" font-size="15">  </text>
    <text x="77.2" y="725" fill="#267F99" font-size="15">targets</text>
    <text x="137.4" y="725" fill="#3B3B3B" font-size="15">:</text>
    <text x="146.0" y="725" fill="#3B3B3B" font-size="15"> </text>
    <text x="154.6" y="725" fill="#3B3B3B" font-size="15">{</text>
    <text x="26" y="747" fill="#6E7681" font-size="15">33</text>
    <text x="60.0" y="747" fill="#3B3B3B" font-size="15">    </text>
    <text x="94.4" y="747" fill="#267F99" font-size="15">&quot;client.js.mbt&quot;</text>
    <text x="223.4" y="747" fill="#3B3B3B" font-size="15">:</text>
    <text x="232.0" y="747" fill="#3B3B3B" font-size="15"> </text>
    <text x="240.6" y="747" fill="#3B3B3B" font-size="15">[</text>
    <text x="249.2" y="747" fill="#3B3B3B" font-size="15"> </text>
    <text x="257.8" y="747" fill="#A31515" font-size="15">&quot;</text>
    <text x="266.4" y="747" fill="#A31515" font-size="15">js</text>
    <text x="283.6" y="747" fill="#A31515" font-size="15">&quot;</text>
    <text x="292.2" y="747" fill="#3B3B3B" font-size="15"> </text>
    <text x="300.8" y="747" fill="#3B3B3B" font-size="15">]</text>
    <text x="309.4" y="747" fill="#3B3B3B" font-size="15">,</text>
    <text x="26" y="769" fill="#6E7681" font-size="15">34</text>
    <text x="60.0" y="769" fill="#3B3B3B" font-size="15">    </text>
    <text x="94.4" y="769" fill="#267F99" font-size="15">&quot;client.mbt&quot;</text>
    <text x="197.6" y="769" fill="#3B3B3B" font-size="15">:</text>
    <text x="206.2" y="769" fill="#3B3B3B" font-size="15"> </text>
    <text x="214.8" y="769" fill="#3B3B3B" font-size="15">[</text>
    <text x="223.4" y="769" fill="#3B3B3B" font-size="15"> </text>
    <text x="232.0" y="769" fill="#A31515" font-size="15">&quot;</text>
    <text x="240.6" y="769" fill="#A31515" font-size="15">native</text>
    <text x="292.2" y="769" fill="#A31515" font-size="15">&quot;</text>
    <text x="300.8" y="769" fill="#3B3B3B" font-size="15"> </text>
    <text x="309.4" y="769" fill="#3B3B3B" font-size="15">]</text>
    <text x="318.0" y="769" fill="#3B3B3B" font-size="15">,</text>
    <text x="26" y="791" fill="#6E7681" font-size="15">35</text>
    <text x="60.0" y="791" fill="#3B3B3B" font-size="15">    </text>
    <text x="94.4" y="791" fill="#267F99" font-size="15">&quot;client_test.mbt&quot;</text>
    <text x="240.6" y="791" fill="#3B3B3B" font-size="15">:</text>
    <text x="249.2" y="791" fill="#3B3B3B" font-size="15"> </text>
    <text x="257.8" y="791" fill="#3B3B3B" font-size="15">[</text>
    <text x="266.4" y="791" fill="#3B3B3B" font-size="15"> </text>
    <text x="275.0" y="791" fill="#A31515" font-size="15">&quot;</text>
    <text x="283.6" y="791" fill="#A31515" font-size="15">native</text>
    <text x="335.2" y="791" fill="#A31515" font-size="15">&quot;</text>
    <text x="343.8" y="791" fill="#3B3B3B" font-size="15">,</text>
    <text x="352.4" y="791" fill="#3B3B3B" font-size="15"> </text>
    <text x="361.0" y="791" fill="#A31515" font-size="15">&quot;</text>
    <text x="369.6" y="791" fill="#A31515" font-size="15">js</text>
    <text x="386.8" y="791" fill="#A31515" font-size="15">&quot;</text>
    <text x="395.4" y="791" fill="#3B3B3B" font-size="15"> </text>
    <text x="404.0" y="791" fill="#3B3B3B" font-size="15">]</text>
    <text x="412.6" y="791" fill="#3B3B3B" font-size="15">,</text>
    <text x="26" y="813" fill="#6E7681" font-size="15">36</text>
    <text x="60.0" y="813" fill="#3B3B3B" font-size="15">    </text>
    <text x="94.4" y="813" fill="#267F99" font-size="15">&quot;cookie.mbt&quot;</text>
    <text x="197.6" y="813" fill="#3B3B3B" font-size="15">:</text>
    <text x="206.2" y="813" fill="#3B3B3B" font-size="15"> </text>
    <text x="214.8" y="813" fill="#3B3B3B" font-size="15">[</text>
    <text x="223.4" y="813" fill="#3B3B3B" font-size="15"> </text>
    <text x="232.0" y="813" fill="#A31515" font-size="15">&quot;</text>
    <text x="240.6" y="813" fill="#A31515" font-size="15">native</text>
    <text x="292.2" y="813" fill="#A31515" font-size="15">&quot;</text>
    <text x="300.8" y="813" fill="#3B3B3B" font-size="15">,</text>
    <text x="309.4" y="813" fill="#3B3B3B" font-size="15"> </text>
    <text x="318.0" y="813" fill="#A31515" font-size="15">&quot;</text>
    <text x="326.6" y="813" fill="#A31515" font-size="15">js</text>
    <text x="343.8" y="813" fill="#A31515" font-size="15">&quot;</text>
    <text x="352.4" y="813" fill="#3B3B3B" font-size="15"> </text>
    <text x="361.0" y="813" fill="#3B3B3B" font-size="15">]</text>
    <text x="369.6" y="813" fill="#3B3B3B" font-size="15">,</text>
    <text x="26" y="835" fill="#6E7681" font-size="15">37</text>
    <text x="60.0" y="835" fill="#3B3B3B" font-size="15">    </text>
    <text x="94.4" y="835" fill="#267F99" font-size="15">&quot;cookie_wbtest.mbt&quot;</text>
    <text x="257.8" y="835" fill="#3B3B3B" font-size="15">:</text>
    <text x="266.4" y="835" fill="#3B3B3B" font-size="15"> </text>
    <text x="275.0" y="835" fill="#3B3B3B" font-size="15">[</text>
    <text x="283.6" y="835" fill="#3B3B3B" font-size="15"> </text>
    <text x="292.2" y="835" fill="#A31515" font-size="15">&quot;</text>
    <text x="300.8" y="835" fill="#A31515" font-size="15">native</text>
    <text x="352.4" y="835" fill="#A31515" font-size="15">&quot;</text>
    <text x="361.0" y="835" fill="#3B3B3B" font-size="15"> </text>
    <text x="369.6" y="835" fill="#3B3B3B" font-size="15">]</text>
    <text x="378.2" y="835" fill="#3B3B3B" font-size="15">,</text>
    <text x="26" y="857" fill="#6E7681" font-size="15">38</text>
    <text x="60.0" y="857" fill="#3B3B3B" font-size="15">    </text>
    <text x="94.4" y="857" fill="#267F99" font-size="15">&quot;deprecated.mbt&quot;</text>
    <text x="232.0" y="857" fill="#3B3B3B" font-size="15">:</text>
    <text x="240.6" y="857" fill="#3B3B3B" font-size="15"> </text>
    <text x="249.2" y="857" fill="#3B3B3B" font-size="15">[</text>
    <text x="257.8" y="857" fill="#3B3B3B" font-size="15"> </text>
    <text x="266.4" y="857" fill="#A31515" font-size="15">&quot;</text>
    <text x="275.0" y="857" fill="#A31515" font-size="15">native</text>
    <text x="326.6" y="857" fill="#A31515" font-size="15">&quot;</text>
    <text x="335.2" y="857" fill="#3B3B3B" font-size="15">,</text>
    <text x="343.8" y="857" fill="#3B3B3B" font-size="15"> </text>
    <text x="352.4" y="857" fill="#A31515" font-size="15">&quot;</text>
    <text x="361.0" y="857" fill="#A31515" font-size="15">js</text>
    <text x="378.2" y="857" fill="#A31515" font-size="15">&quot;</text>
    <text x="386.8" y="857" fill="#3B3B3B" font-size="15"> </text>
    <text x="395.4" y="857" fill="#3B3B3B" font-size="15">]</text>
    <text x="404.0" y="857" fill="#3B3B3B" font-size="15">,</text>
    <text x="26" y="879" fill="#6E7681" font-size="15">39</text>
    <text x="60.0" y="879" fill="#3B3B3B" font-size="15">    </text>
    <text x="94.4" y="879" fill="#267F99" font-size="15">&quot;parser.mbt&quot;</text>
    <text x="197.6" y="879" fill="#3B3B3B" font-size="15">:</text>
    <text x="206.2" y="879" fill="#3B3B3B" font-size="15"> </text>
    <text x="214.8" y="879" fill="#3B3B3B" font-size="15">[</text>
    <text x="223.4" y="879" fill="#3B3B3B" font-size="15"> </text>
    <text x="232.0" y="879" fill="#A31515" font-size="15">&quot;</text>
    <text x="240.6" y="879" fill="#A31515" font-size="15">native</text>
    <text x="292.2" y="879" fill="#A31515" font-size="15">&quot;</text>
    <text x="300.8" y="879" fill="#3B3B3B" font-size="15"> </text>
    <text x="309.4" y="879" fill="#3B3B3B" font-size="15">]</text>
    <text x="318.0" y="879" fill="#3B3B3B" font-size="15">,</text>
    <text x="26" y="901" fill="#6E7681" font-size="15">40</text>
    <text x="60.0" y="901" fill="#3B3B3B" font-size="15">    </text>
    <text x="94.4" y="901" fill="#267F99" font-size="15">&quot;parser_wbtest.mbt&quot;</text>
    <text x="257.8" y="901" fill="#3B3B3B" font-size="15">:</text>
    <text x="266.4" y="901" fill="#3B3B3B" font-size="15"> </text>
    <text x="275.0" y="901" fill="#3B3B3B" font-size="15">[</text>
    <text x="283.6" y="901" fill="#3B3B3B" font-size="15"> </text>
    <text x="292.2" y="901" fill="#A31515" font-size="15">&quot;</text>
    <text x="300.8" y="901" fill="#A31515" font-size="15">native</text>
    <text x="352.4" y="901" fill="#A31515" font-size="15">&quot;</text>
    <text x="361.0" y="901" fill="#3B3B3B" font-size="15"> </text>
    <text x="369.6" y="901" fill="#3B3B3B" font-size="15">]</text>
    <text x="378.2" y="901" fill="#3B3B3B" font-size="15">,</text>
    <text x="26" y="923" fill="#6E7681" font-size="15">41</text>
    <text x="60.0" y="923" fill="#3B3B3B" font-size="15">    </text>
    <text x="94.4" y="923" fill="#267F99" font-size="15">&quot;proxy_test.mbt&quot;</text>
    <text x="232.0" y="923" fill="#3B3B3B" font-size="15">:</text>
    <text x="240.6" y="923" fill="#3B3B3B" font-size="15"> </text>
    <text x="249.2" y="923" fill="#3B3B3B" font-size="15">[</text>
    <text x="257.8" y="923" fill="#3B3B3B" font-size="15"> </text>
    <text x="266.4" y="923" fill="#A31515" font-size="15">&quot;</text>
    <text x="275.0" y="923" fill="#A31515" font-size="15">native</text>
    <text x="326.6" y="923" fill="#A31515" font-size="15">&quot;</text>
    <text x="335.2" y="923" fill="#3B3B3B" font-size="15"> </text>
    <text x="343.8" y="923" fill="#3B3B3B" font-size="15">]</text>
    <text x="352.4" y="923" fill="#3B3B3B" font-size="15">,</text>
    <text x="26" y="945" fill="#6E7681" font-size="15">42</text>
    <text x="60.0" y="945" fill="#3B3B3B" font-size="15">    </text>
    <text x="94.4" y="945" fill="#267F99" font-size="15">&quot;request.mbt&quot;</text>
    <text x="206.2" y="945" fill="#3B3B3B" font-size="15">:</text>
    <text x="214.8" y="945" fill="#3B3B3B" font-size="15"> </text>
    <text x="223.4" y="945" fill="#3B3B3B" font-size="15">[</text>
    <text x="232.0" y="945" fill="#3B3B3B" font-size="15"> </text>
    <text x="240.6" y="945" fill="#A31515" font-size="15">&quot;</text>
    <text x="249.2" y="945" fill="#A31515" font-size="15">native</text>
    <text x="300.8" y="945" fill="#A31515" font-size="15">&quot;</text>
    <text x="309.4" y="945" fill="#3B3B3B" font-size="15">,</text>
    <text x="318.0" y="945" fill="#3B3B3B" font-size="15"> </text>
    <text x="326.6" y="945" fill="#A31515" font-size="15">&quot;</text>
    <text x="335.2" y="945" fill="#A31515" font-size="15">js</text>
    <text x="352.4" y="945" fill="#A31515" font-size="15">&quot;</text>
    <text x="361.0" y="945" fill="#3B3B3B" font-size="15"> </text>
    <text x="369.6" y="945" fill="#3B3B3B" font-size="15">]</text>
    <text x="378.2" y="945" fill="#3B3B3B" font-size="15">,</text>
    <text x="26" y="967" fill="#6E7681" font-size="15">43</text>
    <text x="60.0" y="967" fill="#3B3B3B" font-size="15">    </text>
    <text x="94.4" y="967" fill="#267F99" font-size="15">&quot;request_test.mbt&quot;</text>
    <text x="249.2" y="967" fill="#3B3B3B" font-size="15">:</text>
    <text x="257.8" y="967" fill="#3B3B3B" font-size="15"> </text>
    <text x="266.4" y="967" fill="#3B3B3B" font-size="15">[</text>
    <text x="275.0" y="967" fill="#3B3B3B" font-size="15"> </text>
    <text x="283.6" y="967" fill="#A31515" font-size="15">&quot;</text>
    <text x="292.2" y="967" fill="#A31515" font-size="15">native</text>
    <text x="343.8" y="967" fill="#A31515" font-size="15">&quot;</text>
    <text x="352.4" y="967" fill="#3B3B3B" font-size="15">,</text>
    <text x="361.0" y="967" fill="#3B3B3B" font-size="15"> </text>
    <text x="369.6" y="967" fill="#A31515" font-size="15">&quot;</text>
    <text x="378.2" y="967" fill="#A31515" font-size="15">js</text>
    <text x="395.4" y="967" fill="#A31515" font-size="15">&quot;</text>
    <text x="404.0" y="967" fill="#3B3B3B" font-size="15"> </text>
    <text x="412.6" y="967" fill="#3B3B3B" font-size="15">]</text>
    <text x="421.2" y="967" fill="#3B3B3B" font-size="15">,</text>
    <text x="26" y="989" fill="#6E7681" font-size="15">44</text>
    <text x="60.0" y="989" fill="#3B3B3B" font-size="15">    </text>
    <text x="94.4" y="989" fill="#267F99" font-size="15">&quot;resolve_url_wbtest.mbt&quot;</text>
    <text x="300.8" y="989" fill="#3B3B3B" font-size="15">:</text>
    <text x="309.4" y="989" fill="#3B3B3B" font-size="15"> </text>
    <text x="318.0" y="989" fill="#3B3B3B" font-size="15">[</text>
    <text x="326.6" y="989" fill="#3B3B3B" font-size="15"> </text>
    <text x="335.2" y="989" fill="#A31515" font-size="15">&quot;</text>
    <text x="343.8" y="989" fill="#A31515" font-size="15">native</text>
    <text x="395.4" y="989" fill="#A31515" font-size="15">&quot;</text>
    <text x="404.0" y="989" fill="#3B3B3B" font-size="15"> </text>
    <text x="412.6" y="989" fill="#3B3B3B" font-size="15">]</text>
    <text x="421.2" y="989" fill="#3B3B3B" font-size="15">,</text>
    <text x="26" y="1011" fill="#6E7681" font-size="15">45</text>
    <text x="60.0" y="1011" fill="#3B3B3B" font-size="15">    </text>
    <text x="94.4" y="1011" fill="#267F99" font-size="15">&quot;send.mbt&quot;</text>
    <text x="180.4" y="1011" fill="#3B3B3B" font-size="15">:</text>
    <text x="189.0" y="1011" fill="#3B3B3B" font-size="15"> </text>
    <text x="197.6" y="1011" fill="#3B3B3B" font-size="15">[</text>
    <text x="206.2" y="1011" fill="#3B3B3B" font-size="15"> </text>
    <text x="214.8" y="1011" fill="#A31515" font-size="15">&quot;</text>
    <text x="223.4" y="1011" fill="#A31515" font-size="15">native</text>
    <text x="275.0" y="1011" fill="#A31515" font-size="15">&quot;</text>
    <text x="283.6" y="1011" fill="#3B3B3B" font-size="15"> </text>
    <text x="292.2" y="1011" fill="#3B3B3B" font-size="15">]</text>
    <text x="300.8" y="1011" fill="#3B3B3B" font-size="15">,</text>
    <text x="26" y="1033" fill="#6E7681" font-size="15">46</text>
    <text x="60.0" y="1033" fill="#3B3B3B" font-size="15">    </text>
    <text x="94.4" y="1033" fill="#267F99" font-size="15">&quot;send_wbtest.mbt&quot;</text>
    <text x="240.6" y="1033" fill="#3B3B3B" font-size="15">:</text>
    <text x="249.2" y="1033" fill="#3B3B3B" font-size="15"> </text>
    <text x="257.8" y="1033" fill="#3B3B3B" font-size="15">[</text>
    <text x="266.4" y="1033" fill="#3B3B3B" font-size="15"> </text>
    <text x="275.0" y="1033" fill="#A31515" font-size="15">&quot;</text>
    <text x="283.6" y="1033" fill="#A31515" font-size="15">native</text>
    <text x="335.2" y="1033" fill="#A31515" font-size="15">&quot;</text>
    <text x="343.8" y="1033" fill="#3B3B3B" font-size="15"> </text>
    <text x="352.4" y="1033" fill="#3B3B3B" font-size="15">]</text>
    <text x="361.0" y="1033" fill="#3B3B3B" font-size="15">,</text>
    <text x="26" y="1055" fill="#6E7681" font-size="15">47</text>
    <text x="60.0" y="1055" fill="#3B3B3B" font-size="15">    </text>
    <text x="94.4" y="1055" fill="#267F99" font-size="15">&quot;server.mbt&quot;</text>
    <text x="197.6" y="1055" fill="#3B3B3B" font-size="15">:</text>
    <text x="206.2" y="1055" fill="#3B3B3B" font-size="15"> </text>
    <text x="214.8" y="1055" fill="#3B3B3B" font-size="15">[</text>
    <text x="223.4" y="1055" fill="#3B3B3B" font-size="15"> </text>
    <text x="232.0" y="1055" fill="#A31515" font-size="15">&quot;</text>
    <text x="240.6" y="1055" fill="#A31515" font-size="15">native</text>
    <text x="292.2" y="1055" fill="#A31515" font-size="15">&quot;</text>
    <text x="300.8" y="1055" fill="#3B3B3B" font-size="15"> </text>
    <text x="309.4" y="1055" fill="#3B3B3B" font-size="15">]</text>
    <text x="318.0" y="1055" fill="#3B3B3B" font-size="15">,</text>
    <text x="26" y="1077" fill="#6E7681" font-size="15">48</text>
    <text x="60.0" y="1077" fill="#3B3B3B" font-size="15">    </text>
    <text x="94.4" y="1077" fill="#267F99" font-size="15">&quot;types.mbt&quot;</text>
    <text x="189.0" y="1077" fill="#3B3B3B" font-size="15">:</text>
    <text x="197.6" y="1077" fill="#3B3B3B" font-size="15"> </text>
    <text x="206.2" y="1077" fill="#3B3B3B" font-size="15">[</text>
    <text x="214.8" y="1077" fill="#3B3B3B" font-size="15"> </text>
    <text x="223.4" y="1077" fill="#A31515" font-size="15">&quot;</text>
    <text x="232.0" y="1077" fill="#A31515" font-size="15">native</text>
    <text x="283.6" y="1077" fill="#A31515" font-size="15">&quot;</text>
    <text x="292.2" y="1077" fill="#3B3B3B" font-size="15">,</text>
    <text x="300.8" y="1077" fill="#3B3B3B" font-size="15"> </text>
    <text x="309.4" y="1077" fill="#A31515" font-size="15">&quot;</text>
    <text x="318.0" y="1077" fill="#A31515" font-size="15">js</text>
    <text x="335.2" y="1077" fill="#A31515" font-size="15">&quot;</text>
    <text x="343.8" y="1077" fill="#3B3B3B" font-size="15"> </text>
    <text x="352.4" y="1077" fill="#3B3B3B" font-size="15">]</text>
    <text x="361.0" y="1077" fill="#3B3B3B" font-size="15">,</text>
    <text x="26" y="1099" fill="#6E7681" font-size="15">49</text>
    <text x="60.0" y="1099" fill="#3B3B3B" font-size="15">    </text>
    <text x="94.4" y="1099" fill="#267F99" font-size="15">&quot;utils.mbt&quot;</text>
    <text x="189.0" y="1099" fill="#3B3B3B" font-size="15">:</text>
    <text x="197.6" y="1099" fill="#3B3B3B" font-size="15"> </text>
    <text x="206.2" y="1099" fill="#3B3B3B" font-size="15">[</text>
    <text x="214.8" y="1099" fill="#3B3B3B" font-size="15"> </text>
    <text x="223.4" y="1099" fill="#A31515" font-size="15">&quot;</text>
    <text x="232.0" y="1099" fill="#A31515" font-size="15">native</text>
    <text x="283.6" y="1099" fill="#A31515" font-size="15">&quot;</text>
    <text x="292.2" y="1099" fill="#3B3B3B" font-size="15"> </text>
    <text x="300.8" y="1099" fill="#3B3B3B" font-size="15">]</text>
    <text x="309.4" y="1099" fill="#3B3B3B" font-size="15">,</text>
    <text x="26" y="1121" fill="#6E7681" font-size="15">50</text>
    <text x="60.0" y="1121" fill="#3B3B3B" font-size="15">  </text>
    <text x="77.2" y="1121" fill="#3B3B3B" font-size="15">}</text>
    <text x="85.8" y="1121" fill="#3B3B3B" font-size="15">,</text>
    <text x="26" y="1143" fill="#6E7681" font-size="15">51</text>
    <text x="60.0" y="1143" fill="#3B3B3B" font-size="15">)</text>
  </g>
</svg>
