<svg xmlns="http://www.w3.org/2000/svg" width="637" height="540" viewBox="0 0 637 540">
  <rect width="100%" height="100%" rx="8" fill="#FFFFFF"/>
  <g font-family="SFMono-Regular, Menlo, Monaco, Consolas, 'Liberation Mono', monospace" xml:space="preserve">
    <text x="26" y="43" fill="#6E7681" font-size="15"> 1</text>
    <text x="60.0" y="43" fill="#AF00DB" font-size="15">import</text>
    <text x="111.6" y="43" fill="#3B3B3B" font-size="15"> </text>
    <text x="120.2" y="43" fill="#3B3B3B" font-size="15">{</text>
    <text x="26" y="65" fill="#6E7681" font-size="15"> 2</text>
    <text x="60.0" y="65" fill="#3B3B3B" font-size="15">  </text>
    <text x="77.2" y="65" fill="#A31515" font-size="15">&quot;</text>
    <text x="85.8" y="65" fill="#A31515" font-size="15">moonbitlang/core/json</text>
    <text x="266.4" y="65" fill="#A31515" font-size="15">&quot;</text>
    <text x="275.0" y="65" fill="#3B3B3B" font-size="15"> </text>
    <text x="283.6" y="65" fill="#267F99" font-size="15">@json</text>
    <text x="326.6" y="65" fill="#3B3B3B" font-size="15">,</text>
    <text x="26" y="87" fill="#6E7681" font-size="15"> 3</text>
    <text x="60.0" y="87" fill="#3B3B3B" font-size="15">  </text>
    <text x="77.2" y="87" fill="#A31515" font-size="15">&quot;</text>
    <text x="85.8" y="87" fill="#A31515" font-size="15">moonbitlang/core/internal/strconv</text>
    <text x="369.6" y="87" fill="#A31515" font-size="15">&quot;</text>
    <text x="378.2" y="87" fill="#3B3B3B" font-size="15"> </text>
    <text x="386.8" y="87" fill="#0000FF" font-size="15">as</text>
    <text x="404.0" y="87" fill="#3B3B3B" font-size="15"> </text>
    <text x="412.6" y="87" fill="#267F99" font-size="15">@internal/strconv</text>
    <text x="558.8" y="87" fill="#3B3B3B" font-size="15">,</text>
    <text x="26" y="109" fill="#6E7681" font-size="15"> 4</text>
    <text x="60.0" y="109" fill="#3B3B3B" font-size="15">}</text>
    <text x="68.6" y="109" fill="#3B3B3B" font-size="15"> </text>
    <text x="77.2" y="109" fill="#AF00DB" font-size="15">for</text>
    <text x="103.0" y="109" fill="#3B3B3B" font-size="15"> </text>
    <text x="111.6" y="109" fill="#A31515" font-size="15">&quot;</text>
    <text x="120.2" y="109" fill="#A31515" font-size="15">test</text>
    <text x="154.6" y="109" fill="#A31515" font-size="15">&quot;</text>
    <text x="26" y="131" fill="#6E7681" font-size="15"> 5</text>
    <text x="26" y="153" fill="#6E7681" font-size="15"> 6</text>
    <text x="60.0" y="153" fill="#267F99" font-size="15">warnings</text>
    <text x="128.8" y="153" fill="#3B3B3B" font-size="15"> </text>
    <text x="137.4" y="153" fill="#000000" font-size="15">=</text>
    <text x="146.0" y="153" fill="#3B3B3B" font-size="15"> </text>
    <text x="154.6" y="153" fill="#A31515" font-size="15">&quot;</text>
    <text x="163.2" y="153" fill="#A31515" font-size="15">+unused_value-deprecated</text>
    <text x="369.6" y="153" fill="#A31515" font-size="15">&quot;</text>
    <text x="26" y="175" fill="#6E7681" font-size="15"> 7</text>
    <text x="26" y="197" fill="#6E7681" font-size="15"> 8</text>
    <text x="60.0" y="197" fill="#795E26" font-size="15">options</text>
    <text x="120.2" y="197" fill="#3B3B3B" font-size="15">(</text>
    <text x="26" y="219" fill="#6E7681" font-size="15"> 9</text>
    <text x="60.0" y="219" fill="#3B3B3B" font-size="15">  </text>
    <text x="77.2" y="219" fill="#267F99" font-size="15">&quot;is-main&quot;</text>
    <text x="154.6" y="219" fill="#000000" font-size="15">:</text>
    <text x="163.2" y="219" fill="#3B3B3B" font-size="15"> </text>
    <text x="171.8" y="219" fill="#0000FF" font-size="15">true</text>
    <text x="206.2" y="219" fill="#3B3B3B" font-size="15">,</text>
    <text x="26" y="241" fill="#6E7681" font-size="15">10</text>
    <text x="60.0" y="241" fill="#3B3B3B" font-size="15">  </text>
    <text x="77.2" y="241" fill="#267F99" font-size="15">link</text>
    <text x="111.6" y="241" fill="#000000" font-size="15">:</text>
    <text x="120.2" y="241" fill="#3B3B3B" font-size="15"> </text>
    <text x="128.8" y="241" fill="#3B3B3B" font-size="15">{</text>
    <text x="26" y="263" fill="#6E7681" font-size="15">11</text>
    <text x="60.0" y="263" fill="#3B3B3B" font-size="15">    </text>
    <text x="94.4" y="263" fill="#267F99" font-size="15">&quot;wasm&quot;</text>
    <text x="146.0" y="263" fill="#000000" font-size="15">:</text>
    <text x="154.6" y="263" fill="#3B3B3B" font-size="15"> </text>
    <text x="163.2" y="263" fill="#3B3B3B" font-size="15">{</text>
    <text x="26" y="285" fill="#6E7681" font-size="15">12</text>
    <text x="60.0" y="285" fill="#3B3B3B" font-size="15">      </text>
    <text x="111.6" y="285" fill="#267F99" font-size="15">&quot;exports&quot;</text>
    <text x="189.0" y="285" fill="#000000" font-size="15">:</text>
    <text x="197.6" y="285" fill="#3B3B3B" font-size="15"> </text>
    <text x="206.2" y="285" fill="#3B3B3B" font-size="15">[</text>
    <text x="26" y="307" fill="#6E7681" font-size="15">13</text>
    <text x="60.0" y="307" fill="#3B3B3B" font-size="15">        </text>
    <text x="128.8" y="307" fill="#A31515" font-size="15">&quot;</text>
    <text x="137.4" y="307" fill="#A31515" font-size="15">cabi_realloc:cabi_realloc</text>
    <text x="352.4" y="307" fill="#A31515" font-size="15">&quot;</text>
    <text x="361.0" y="307" fill="#3B3B3B" font-size="15">,</text>
    <text x="26" y="329" fill="#6E7681" font-size="15">14</text>
    <text x="60.0" y="329" fill="#3B3B3B" font-size="15">        </text>
    <text x="128.8" y="329" fill="#A31515" font-size="15">&quot;</text>
    <text x="137.4" y="329" fill="#A31515" font-size="15">wasmExportAdd:docs:adder/add@0.1.0#add</text>
    <text x="464.2" y="329" fill="#A31515" font-size="15">&quot;</text>
    <text x="472.8" y="329" fill="#3B3B3B" font-size="15">,</text>
    <text x="26" y="351" fill="#6E7681" font-size="15">15</text>
    <text x="60.0" y="351" fill="#3B3B3B" font-size="15">      </text>
    <text x="111.6" y="351" fill="#3B3B3B" font-size="15">]</text>
    <text x="120.2" y="351" fill="#3B3B3B" font-size="15">,</text>
    <text x="26" y="373" fill="#6E7681" font-size="15">16</text>
    <text x="60.0" y="373" fill="#3B3B3B" font-size="15">      </text>
    <text x="111.6" y="373" fill="#267F99" font-size="15">&quot;heap-start-address&quot;</text>
    <text x="283.6" y="373" fill="#000000" font-size="15">:</text>
    <text x="292.2" y="373" fill="#3B3B3B" font-size="15"> </text>
    <text x="300.8" y="373" fill="#098658" font-size="15">16</text>
    <text x="318.0" y="373" fill="#3B3B3B" font-size="15">,</text>
    <text x="26" y="395" fill="#6E7681" font-size="15">17</text>
    <text x="60.0" y="395" fill="#3B3B3B" font-size="15">    </text>
    <text x="94.4" y="395" fill="#3B3B3B" font-size="15">}</text>
    <text x="103.0" y="395" fill="#3B3B3B" font-size="15">,</text>
    <text x="26" y="417" fill="#6E7681" font-size="15">18</text>
    <text x="60.0" y="417" fill="#3B3B3B" font-size="15">  </text>
    <text x="77.2" y="417" fill="#3B3B3B" font-size="15">}</text>
    <text x="85.8" y="417" fill="#3B3B3B" font-size="15">,</text>
    <text x="26" y="439" fill="#6E7681" font-size="15">19</text>
    <text x="60.0" y="439" fill="#3B3B3B" font-size="15">)</text>
    <text x="26" y="461" fill="#6E7681" font-size="15">20</text>
    <text x="26" y="483" fill="#6E7681" font-size="15">21</text>
    <text x="60.0" y="483" fill="#795E26" font-size="15">rule</text>
    <text x="94.4" y="483" fill="#3B3B3B" font-size="15">(</text>
    <text x="103.0" y="483" fill="#267F99" font-size="15">name</text>
    <text x="137.4" y="483" fill="#000000" font-size="15">:</text>
    <text x="146.0" y="483" fill="#3B3B3B" font-size="15"> </text>
    <text x="154.6" y="483" fill="#A31515" font-size="15">&quot;</text>
    <text x="163.2" y="483" fill="#A31515" font-size="15">gen</text>
    <text x="189.0" y="483" fill="#A31515" font-size="15">&quot;</text>
    <text x="197.6" y="483" fill="#3B3B3B" font-size="15">, </text>
    <text x="214.8" y="483" fill="#267F99" font-size="15">command</text>
    <text x="275.0" y="483" fill="#000000" font-size="15">:</text>
    <text x="283.6" y="483" fill="#3B3B3B" font-size="15"> </text>
    <text x="292.2" y="483" fill="#A31515" font-size="15">&quot;</text>
    <text x="300.8" y="483" fill="#A31515" font-size="15">echo gen</text>
    <text x="369.6" y="483" fill="#A31515" font-size="15">&quot;</text>
    <text x="378.2" y="483" fill="#3B3B3B" font-size="15">)</text>
    <text x="26" y="505" fill="#6E7681" font-size="15">22</text>
    <text x="60.0" y="505" fill="#795E26" font-size="15">dev_build</text>
    <text x="137.4" y="505" fill="#3B3B3B" font-size="15">(</text>
    <text x="146.0" y="505" fill="#267F99" font-size="15">rule</text>
    <text x="180.4" y="505" fill="#000000" font-size="15">:</text>
    <text x="189.0" y="505" fill="#3B3B3B" font-size="15"> </text>
    <text x="197.6" y="505" fill="#A31515" font-size="15">&quot;</text>
    <text x="206.2" y="505" fill="#A31515" font-size="15">gen</text>
    <text x="232.0" y="505" fill="#A31515" font-size="15">&quot;</text>
    <text x="240.6" y="505" fill="#3B3B3B" font-size="15">, </text>
    <text x="257.8" y="505" fill="#267F99" font-size="15">input</text>
    <text x="300.8" y="505" fill="#000000" font-size="15">:</text>
    <text x="309.4" y="505" fill="#3B3B3B" font-size="15"> </text>
    <text x="318.0" y="505" fill="#A31515" font-size="15">&quot;</text>
    <text x="326.6" y="505" fill="#A31515" font-size="15">input.txt</text>
    <text x="404.0" y="505" fill="#A31515" font-size="15">&quot;</text>
    <text x="412.6" y="505" fill="#3B3B3B" font-size="15">, </text>
    <text x="429.8" y="505" fill="#267F99" font-size="15">output</text>
    <text x="481.4" y="505" fill="#000000" font-size="15">:</text>
    <text x="490.0" y="505" fill="#3B3B3B" font-size="15"> </text>
    <text x="498.6" y="505" fill="#A31515" font-size="15">&quot;</text>
    <text x="507.2" y="505" fill="#A31515" font-size="15">output.txt</text>
    <text x="593.2" y="505" fill="#A31515" font-size="15">&quot;</text>
    <text x="601.8" y="505" fill="#3B3B3B" font-size="15">)</text>
  </g>
</svg>
