<svg xmlns="http://www.w3.org/2000/svg" width="783" height="1398" viewBox="0 0 783 1398">
  <rect width="100%" height="100%" rx="8" fill="#FFFFFF"/>
  <g font-family="SFMono-Regular, Menlo, Monaco, Consolas, 'Liberation Mono', monospace" xml:space="preserve">
    <text x="26" y="43" fill="#6E7681" font-size="15"> 1</text>
    <text x="60.0" y="43" fill="#008000" font-size="15">// Source: moonbitlang/async src/semaphore/semaphore.mbt</text>
    <text x="26" y="65" fill="#6E7681" font-size="15"> 2</text>
    <text x="60.0" y="65" fill="#008000" font-size="15">///|</text>
    <text x="26" y="87" fill="#6E7681" font-size="15"> 3</text>
    <text x="60.0" y="87" fill="#0000FF" font-size="15">priv</text>
    <text x="94.4" y="87" fill="#3B3B3B" font-size="15"> </text>
    <text x="103.0" y="87" fill="#0000FF" font-size="15">struct</text>
    <text x="154.6" y="87" fill="#3B3B3B" font-size="15"> </text>
    <text x="163.2" y="87" fill="#267F99" font-size="15">Waiter</text>
    <text x="214.8" y="87" fill="#3B3B3B" font-size="15"> </text>
    <text x="223.4" y="87" fill="#3B3B3B" font-size="15">{</text>
    <text x="26" y="109" fill="#6E7681" font-size="15"> 4</text>
    <text x="60.0" y="109" fill="#3B3B3B" font-size="15">  </text>
    <text x="77.2" y="109" fill="#0000FF" font-size="15">mut</text>
    <text x="103.0" y="109" fill="#3B3B3B" font-size="15"> </text>
    <text x="111.6" y="109" fill="#001080" font-size="15">acquired</text>
    <text x="180.4" y="109" fill="#3B3B3B" font-size="15"> </text>
    <text x="189.0" y="109" fill="#3B3B3B" font-size="15">:</text>
    <text x="197.6" y="109" fill="#3B3B3B" font-size="15"> </text>
    <text x="206.2" y="109" fill="#267F99" font-size="15">Bool</text>
    <text x="26" y="131" fill="#6E7681" font-size="15"> 5</text>
    <text x="60.0" y="131" fill="#3B3B3B" font-size="15">  </text>
    <text x="77.2" y="131" fill="#0000FF" font-size="15">mut</text>
    <text x="103.0" y="131" fill="#3B3B3B" font-size="15"> </text>
    <text x="111.6" y="131" fill="#001080" font-size="15">coro</text>
    <text x="146.0" y="131" fill="#3B3B3B" font-size="15"> </text>
    <text x="154.6" y="131" fill="#3B3B3B" font-size="15">:</text>
    <text x="163.2" y="131" fill="#3B3B3B" font-size="15"> </text>
    <text x="171.8" y="131" fill="#267F99" font-size="15">@coroutine</text>
    <text x="257.8" y="131" fill="#3B3B3B" font-size="15">.</text>
    <text x="266.4" y="131" fill="#267F99" font-size="15">Coroutine?</text>
    <text x="26" y="153" fill="#6E7681" font-size="15"> 6</text>
    <text x="60.0" y="153" fill="#3B3B3B" font-size="15">}</text>
    <text x="26" y="175" fill="#6E7681" font-size="15"> 7</text>
    <text x="26" y="197" fill="#6E7681" font-size="15"> 8</text>
    <text x="60.0" y="197" fill="#008000" font-size="15">///|</text>
    <text x="26" y="219" fill="#6E7681" font-size="15"> 9</text>
    <text x="60.0" y="219" fill="#0000FF" font-size="15">pub</text>
    <text x="85.8" y="219" fill="#3B3B3B" font-size="15"> </text>
    <text x="94.4" y="219" fill="#0000FF" font-size="15">struct</text>
    <text x="146.0" y="219" fill="#3B3B3B" font-size="15"> </text>
    <text x="154.6" y="219" fill="#267F99" font-size="15">Semaphore</text>
    <text x="232.0" y="219" fill="#3B3B3B" font-size="15"> </text>
    <text x="240.6" y="219" fill="#3B3B3B" font-size="15">{</text>
    <text x="26" y="241" fill="#6E7681" font-size="15">10</text>
    <text x="60.0" y="241" fill="#3B3B3B" font-size="15">  </text>
    <text x="77.2" y="241" fill="#001080" font-size="15">size</text>
    <text x="111.6" y="241" fill="#3B3B3B" font-size="15"> </text>
    <text x="120.2" y="241" fill="#3B3B3B" font-size="15">:</text>
    <text x="128.8" y="241" fill="#3B3B3B" font-size="15"> </text>
    <text x="137.4" y="241" fill="#267F99" font-size="15">Int</text>
    <text x="26" y="263" fill="#6E7681" font-size="15">11</text>
    <text x="60.0" y="263" fill="#3B3B3B" font-size="15">  </text>
    <text x="77.2" y="263" fill="#0000FF" font-size="15">priv</text>
    <text x="111.6" y="263" fill="#3B3B3B" font-size="15"> </text>
    <text x="120.2" y="263" fill="#0000FF" font-size="15">mut</text>
    <text x="146.0" y="263" fill="#3B3B3B" font-size="15"> </text>
    <text x="154.6" y="263" fill="#001080" font-size="15">value</text>
    <text x="197.6" y="263" fill="#3B3B3B" font-size="15"> </text>
    <text x="206.2" y="263" fill="#3B3B3B" font-size="15">:</text>
    <text x="214.8" y="263" fill="#3B3B3B" font-size="15"> </text>
    <text x="223.4" y="263" fill="#267F99" font-size="15">Int</text>
    <text x="26" y="285" fill="#6E7681" font-size="15">12</text>
    <text x="60.0" y="285" fill="#3B3B3B" font-size="15">  </text>
    <text x="77.2" y="285" fill="#0000FF" font-size="15">priv</text>
    <text x="111.6" y="285" fill="#3B3B3B" font-size="15"> </text>
    <text x="120.2" y="285" fill="#001080" font-size="15">waiters</text>
    <text x="180.4" y="285" fill="#3B3B3B" font-size="15"> </text>
    <text x="189.0" y="285" fill="#3B3B3B" font-size="15">:</text>
    <text x="197.6" y="285" fill="#3B3B3B" font-size="15"> </text>
    <text x="206.2" y="285" fill="#267F99" font-size="15">@deque</text>
    <text x="257.8" y="285" fill="#3B3B3B" font-size="15">.</text>
    <text x="266.4" y="285" fill="#267F99" font-size="15">Deque</text>
    <text x="309.4" y="285" fill="#3B3B3B" font-size="15">[</text>
    <text x="318.0" y="285" fill="#267F99" font-size="15">Waiter</text>
    <text x="369.6" y="285" fill="#3B3B3B" font-size="15">]</text>
    <text x="26" y="307" fill="#6E7681" font-size="15">13</text>
    <text x="60.0" y="307" fill="#3B3B3B" font-size="15">}</text>
    <text x="26" y="329" fill="#6E7681" font-size="15">14</text>
    <text x="26" y="351" fill="#6E7681" font-size="15">15</text>
    <text x="60.0" y="351" fill="#008000" font-size="15">///|</text>
    <text x="26" y="373" fill="#6E7681" font-size="15">16</text>
    <text x="60.0" y="373" fill="#008000" font-size="15">/// Create a semaphore of size `size`,</text>
    <text x="26" y="395" fill="#6E7681" font-size="15">17</text>
    <text x="60.0" y="395" fill="#008000" font-size="15">/// the initial value of the semaphore</text>
    <text x="26" y="417" fill="#6E7681" font-size="15">18</text>
    <text x="60.0" y="417" fill="#008000" font-size="15">/// will be set to `initial_value` (`size` by default)</text>
    <text x="26" y="439" fill="#6E7681" font-size="15">19</text>
    <text x="60.0" y="439" fill="#795E26" font-size="15">#alias</text>
    <text x="111.6" y="439" fill="#3B3B3B" font-size="15">(</text>
    <text x="120.2" y="439" fill="#001080" font-size="15">new</text>
    <text x="146.0" y="439" fill="#3B3B3B" font-size="15">,</text>
    <text x="154.6" y="439" fill="#3B3B3B" font-size="15"> </text>
    <text x="163.2" y="439" fill="#001080" font-size="15">deprecated</text>
    <text x="249.2" y="439" fill="#3B3B3B" font-size="15">)</text>
    <text x="26" y="461" fill="#6E7681" font-size="15">20</text>
    <text x="60.0" y="461" fill="#0000FF" font-size="15">pub</text>
    <text x="85.8" y="461" fill="#3B3B3B" font-size="15"> </text>
    <text x="94.4" y="461" fill="#0000FF" font-size="15">fn</text>
    <text x="111.6" y="461" fill="#3B3B3B" font-size="15"> </text>
    <text x="120.2" y="461" fill="#267F99" font-size="15">Semaphore</text>
    <text x="197.6" y="461" fill="#3B3B3B" font-size="15">:</text>
    <text x="206.2" y="461" fill="#3B3B3B" font-size="15">:</text>
    <text x="214.8" y="461" fill="#267F99" font-size="15">Semaphore</text>
    <text x="292.2" y="461" fill="#3B3B3B" font-size="15">(</text>
    <text x="26" y="483" fill="#6E7681" font-size="15">21</text>
    <text x="60.0" y="483" fill="#3B3B3B" font-size="15">  </text>
    <text x="77.2" y="483" fill="#001080" font-size="15">size</text>
    <text x="111.6" y="483" fill="#3B3B3B" font-size="15"> </text>
    <text x="120.2" y="483" fill="#3B3B3B" font-size="15">:</text>
    <text x="128.8" y="483" fill="#3B3B3B" font-size="15"> </text>
    <text x="137.4" y="483" fill="#267F99" font-size="15">Int</text>
    <text x="163.2" y="483" fill="#3B3B3B" font-size="15">,</text>
    <text x="26" y="505" fill="#6E7681" font-size="15">22</text>
    <text x="60.0" y="505" fill="#3B3B3B" font-size="15">  </text>
    <text x="77.2" y="505" fill="#001080" font-size="15">initial_value</text>
    <text x="189.0" y="505" fill="#000000" font-size="15">?</text>
    <text x="197.6" y="505" fill="#3B3B3B" font-size="15"> </text>
    <text x="206.2" y="505" fill="#000000" font-size="15">:</text>
    <text x="214.8" y="505" fill="#3B3B3B" font-size="15"> </text>
    <text x="223.4" y="505" fill="#267F99" font-size="15">Int</text>
    <text x="249.2" y="505" fill="#3B3B3B" font-size="15"> </text>
    <text x="257.8" y="505" fill="#000000" font-size="15">=</text>
    <text x="266.4" y="505" fill="#3B3B3B" font-size="15"> </text>
    <text x="275.0" y="505" fill="#001080" font-size="15">size</text>
    <text x="309.4" y="505" fill="#3B3B3B" font-size="15">,</text>
    <text x="26" y="527" fill="#6E7681" font-size="15">23</text>
    <text x="60.0" y="527" fill="#3B3B3B" font-size="15">)</text>
    <text x="68.6" y="527" fill="#3B3B3B" font-size="15"> </text>
    <text x="77.2" y="527" fill="#0000FF" font-size="15">-&gt;</text>
    <text x="94.4" y="527" fill="#3B3B3B" font-size="15"> </text>
    <text x="103.0" y="527" fill="#267F99" font-size="15">Semaphore</text>
    <text x="180.4" y="527" fill="#3B3B3B" font-size="15"> </text>
    <text x="189.0" y="527" fill="#3B3B3B" font-size="15">{</text>
    <text x="26" y="549" fill="#6E7681" font-size="15">24</text>
    <text x="60.0" y="549" fill="#3B3B3B" font-size="15">  </text>
    <text x="77.2" y="549" fill="#AF00DB" font-size="15">guard</text>
    <text x="120.2" y="549" fill="#3B3B3B" font-size="15"> </text>
    <text x="128.8" y="549" fill="#001080" font-size="15">initial_value</text>
    <text x="240.6" y="549" fill="#3B3B3B" font-size="15"> </text>
    <text x="249.2" y="549" fill="#000000" font-size="15">&gt;=</text>
    <text x="266.4" y="549" fill="#3B3B3B" font-size="15"> </text>
    <text x="275.0" y="549" fill="#098658" font-size="15">0</text>
    <text x="283.6" y="549" fill="#3B3B3B" font-size="15"> </text>
    <text x="292.2" y="549" fill="#000000" font-size="15">&amp;&amp;</text>
    <text x="309.4" y="549" fill="#3B3B3B" font-size="15"> </text>
    <text x="318.0" y="549" fill="#001080" font-size="15">initial_value</text>
    <text x="429.8" y="549" fill="#3B3B3B" font-size="15"> </text>
    <text x="438.4" y="549" fill="#000000" font-size="15">&lt;=</text>
    <text x="455.6" y="549" fill="#3B3B3B" font-size="15"> </text>
    <text x="464.2" y="549" fill="#001080" font-size="15">size</text>
    <text x="26" y="571" fill="#6E7681" font-size="15">25</text>
    <text x="60.0" y="571" fill="#3B3B3B" font-size="15">  </text>
    <text x="77.2" y="571" fill="#3B3B3B" font-size="15">{</text>
    <text x="85.8" y="571" fill="#3B3B3B" font-size="15"> </text>
    <text x="94.4" y="571" fill="#001080" font-size="15">value</text>
    <text x="137.4" y="571" fill="#3B3B3B" font-size="15">:</text>
    <text x="146.0" y="571" fill="#3B3B3B" font-size="15"> </text>
    <text x="154.6" y="571" fill="#001080" font-size="15">initial_value</text>
    <text x="266.4" y="571" fill="#3B3B3B" font-size="15">,</text>
    <text x="275.0" y="571" fill="#3B3B3B" font-size="15"> </text>
    <text x="283.6" y="571" fill="#001080" font-size="15">size</text>
    <text x="318.0" y="571" fill="#3B3B3B" font-size="15">,</text>
    <text x="326.6" y="571" fill="#3B3B3B" font-size="15"> </text>
    <text x="335.2" y="571" fill="#001080" font-size="15">waiters</text>
    <text x="395.4" y="571" fill="#3B3B3B" font-size="15">:</text>
    <text x="404.0" y="571" fill="#3B3B3B" font-size="15"> </text>
    <text x="412.6" y="571" fill="#267F99" font-size="15">@deque</text>
    <text x="464.2" y="571" fill="#3B3B3B" font-size="15">.</text>
    <text x="472.8" y="571" fill="#795E26" font-size="15">new</text>
    <text x="498.6" y="571" fill="#3B3B3B" font-size="15">(</text>
    <text x="507.2" y="571" fill="#3B3B3B" font-size="15">)</text>
    <text x="515.8" y="571" fill="#3B3B3B" font-size="15"> </text>
    <text x="524.4" y="571" fill="#3B3B3B" font-size="15">}</text>
    <text x="26" y="593" fill="#6E7681" font-size="15">26</text>
    <text x="60.0" y="593" fill="#3B3B3B" font-size="15">}</text>
    <text x="26" y="615" fill="#6E7681" font-size="15">27</text>
    <text x="26" y="637" fill="#6E7681" font-size="15">28</text>
    <text x="60.0" y="637" fill="#008000" font-size="15">///|</text>
    <text x="26" y="659" fill="#6E7681" font-size="15">29</text>
    <text x="60.0" y="659" fill="#008000" font-size="15">/// Release a unit of resource back to the semaphore. This function never blocks.</text>
    <text x="26" y="681" fill="#6E7681" font-size="15">30</text>
    <text x="60.0" y="681" fill="#0000FF" font-size="15">pub</text>
    <text x="85.8" y="681" fill="#3B3B3B" font-size="15"> </text>
    <text x="94.4" y="681" fill="#0000FF" font-size="15">fn</text>
    <text x="111.6" y="681" fill="#3B3B3B" font-size="15"> </text>
    <text x="120.2" y="681" fill="#267F99" font-size="15">Semaphore</text>
    <text x="197.6" y="681" fill="#3B3B3B" font-size="15">:</text>
    <text x="206.2" y="681" fill="#3B3B3B" font-size="15">:</text>
    <text x="214.8" y="681" fill="#795E26" font-size="15">release</text>
    <text x="275.0" y="681" fill="#3B3B3B" font-size="15">(</text>
    <text x="283.6" y="681" fill="#001080" font-size="15">self</text>
    <text x="318.0" y="681" fill="#3B3B3B" font-size="15"> </text>
    <text x="326.6" y="681" fill="#3B3B3B" font-size="15">:</text>
    <text x="335.2" y="681" fill="#3B3B3B" font-size="15"> </text>
    <text x="343.8" y="681" fill="#267F99" font-size="15">Semaphore</text>
    <text x="421.2" y="681" fill="#3B3B3B" font-size="15">)</text>
    <text x="429.8" y="681" fill="#3B3B3B" font-size="15"> </text>
    <text x="438.4" y="681" fill="#0000FF" font-size="15">-&gt;</text>
    <text x="455.6" y="681" fill="#3B3B3B" font-size="15"> </text>
    <text x="464.2" y="681" fill="#267F99" font-size="15">Unit</text>
    <text x="498.6" y="681" fill="#3B3B3B" font-size="15"> </text>
    <text x="507.2" y="681" fill="#3B3B3B" font-size="15">{</text>
    <text x="26" y="703" fill="#6E7681" font-size="15">31</text>
    <text x="60.0" y="703" fill="#3B3B3B" font-size="15">  </text>
    <text x="77.2" y="703" fill="#AF00DB" font-size="15">if</text>
    <text x="94.4" y="703" fill="#3B3B3B" font-size="15"> </text>
    <text x="103.0" y="703" fill="#001080" font-size="15">self</text>
    <text x="137.4" y="703" fill="#3B3B3B" font-size="15">.</text>
    <text x="146.0" y="703" fill="#001080" font-size="15">value</text>
    <text x="189.0" y="703" fill="#3B3B3B" font-size="15"> </text>
    <text x="197.6" y="703" fill="#000000" font-size="15">&gt;=</text>
    <text x="214.8" y="703" fill="#3B3B3B" font-size="15"> </text>
    <text x="223.4" y="703" fill="#001080" font-size="15">self</text>
    <text x="257.8" y="703" fill="#3B3B3B" font-size="15">.</text>
    <text x="266.4" y="703" fill="#001080" font-size="15">size</text>
    <text x="300.8" y="703" fill="#3B3B3B" font-size="15"> </text>
    <text x="309.4" y="703" fill="#3B3B3B" font-size="15">{</text>
    <text x="26" y="725" fill="#6E7681" font-size="15">32</text>
    <text x="60.0" y="725" fill="#3B3B3B" font-size="15">    </text>
    <text x="94.4" y="725" fill="#795E26" font-size="15">abort</text>
    <text x="137.4" y="725" fill="#3B3B3B" font-size="15">(</text>
    <text x="146.0" y="725" fill="#A31515" font-size="15">&quot;</text>
    <text x="154.6" y="725" fill="#A31515" font-size="15">semaphore: too many release</text>
    <text x="386.8" y="725" fill="#A31515" font-size="15">&quot;</text>
    <text x="395.4" y="725" fill="#3B3B3B" font-size="15">)</text>
    <text x="26" y="747" fill="#6E7681" font-size="15">33</text>
    <text x="60.0" y="747" fill="#3B3B3B" font-size="15">  </text>
    <text x="77.2" y="747" fill="#3B3B3B" font-size="15">}</text>
    <text x="26" y="769" fill="#6E7681" font-size="15">34</text>
    <text x="60.0" y="769" fill="#3B3B3B" font-size="15">  </text>
    <text x="77.2" y="769" fill="#AF00DB" font-size="15">while</text>
    <text x="120.2" y="769" fill="#3B3B3B" font-size="15"> </text>
    <text x="128.8" y="769" fill="#001080" font-size="15">self</text>
    <text x="163.2" y="769" fill="#3B3B3B" font-size="15">.</text>
    <text x="171.8" y="769" fill="#001080" font-size="15">waiters</text>
    <text x="232.0" y="769" fill="#3B3B3B" font-size="15">.</text>
    <text x="240.6" y="769" fill="#795E26" font-size="15">pop_front</text>
    <text x="318.0" y="769" fill="#3B3B3B" font-size="15">(</text>
    <text x="326.6" y="769" fill="#3B3B3B" font-size="15">)</text>
    <text x="335.2" y="769" fill="#3B3B3B" font-size="15"> </text>
    <text x="343.8" y="769" fill="#0000FF" font-size="15">is</text>
    <text x="361.0" y="769" fill="#3B3B3B" font-size="15"> </text>
    <text x="369.6" y="769" fill="#267F99" font-size="15">Some</text>
    <text x="404.0" y="769" fill="#3B3B3B" font-size="15">(</text>
    <text x="412.6" y="769" fill="#001080" font-size="15">waiter</text>
    <text x="464.2" y="769" fill="#3B3B3B" font-size="15">)</text>
    <text x="472.8" y="769" fill="#3B3B3B" font-size="15"> </text>
    <text x="481.4" y="769" fill="#3B3B3B" font-size="15">{</text>
    <text x="26" y="791" fill="#6E7681" font-size="15">35</text>
    <text x="60.0" y="791" fill="#3B3B3B" font-size="15">    </text>
    <text x="94.4" y="791" fill="#AF00DB" font-size="15">if</text>
    <text x="111.6" y="791" fill="#3B3B3B" font-size="15"> </text>
    <text x="120.2" y="791" fill="#001080" font-size="15">waiter</text>
    <text x="171.8" y="791" fill="#3B3B3B" font-size="15">.</text>
    <text x="180.4" y="791" fill="#001080" font-size="15">coro</text>
    <text x="214.8" y="791" fill="#3B3B3B" font-size="15"> </text>
    <text x="223.4" y="791" fill="#0000FF" font-size="15">is</text>
    <text x="240.6" y="791" fill="#3B3B3B" font-size="15"> </text>
    <text x="249.2" y="791" fill="#267F99" font-size="15">Some</text>
    <text x="283.6" y="791" fill="#3B3B3B" font-size="15">(</text>
    <text x="292.2" y="791" fill="#001080" font-size="15">coro</text>
    <text x="326.6" y="791" fill="#3B3B3B" font-size="15">)</text>
    <text x="335.2" y="791" fill="#3B3B3B" font-size="15"> </text>
    <text x="343.8" y="791" fill="#3B3B3B" font-size="15">{</text>
    <text x="26" y="813" fill="#6E7681" font-size="15">36</text>
    <text x="60.0" y="813" fill="#3B3B3B" font-size="15">      </text>
    <text x="111.6" y="813" fill="#001080" font-size="15">waiter</text>
    <text x="163.2" y="813" fill="#3B3B3B" font-size="15">.</text>
    <text x="171.8" y="813" fill="#001080" font-size="15">acquired</text>
    <text x="240.6" y="813" fill="#3B3B3B" font-size="15"> </text>
    <text x="249.2" y="813" fill="#000000" font-size="15">=</text>
    <text x="257.8" y="813" fill="#3B3B3B" font-size="15"> </text>
    <text x="266.4" y="813" fill="#0000FF" font-size="15">true</text>
    <text x="26" y="835" fill="#6E7681" font-size="15">37</text>
    <text x="60.0" y="835" fill="#3B3B3B" font-size="15">      </text>
    <text x="111.6" y="835" fill="#001080" font-size="15">coro</text>
    <text x="146.0" y="835" fill="#3B3B3B" font-size="15">.</text>
    <text x="154.6" y="835" fill="#795E26" font-size="15">wake</text>
    <text x="189.0" y="835" fill="#3B3B3B" font-size="15">(</text>
    <text x="197.6" y="835" fill="#3B3B3B" font-size="15">)</text>
    <text x="26" y="857" fill="#6E7681" font-size="15">38</text>
    <text x="60.0" y="857" fill="#3B3B3B" font-size="15">      </text>
    <text x="111.6" y="857" fill="#AF00DB" font-size="15">break</text>
    <text x="26" y="879" fill="#6E7681" font-size="15">39</text>
    <text x="60.0" y="879" fill="#3B3B3B" font-size="15">    </text>
    <text x="94.4" y="879" fill="#3B3B3B" font-size="15">}</text>
    <text x="26" y="901" fill="#6E7681" font-size="15">40</text>
    <text x="60.0" y="901" fill="#3B3B3B" font-size="15">  </text>
    <text x="77.2" y="901" fill="#3B3B3B" font-size="15">}</text>
    <text x="85.8" y="901" fill="#3B3B3B" font-size="15"> </text>
    <text x="94.4" y="901" fill="#0000FF" font-size="15">nobreak</text>
    <text x="154.6" y="901" fill="#3B3B3B" font-size="15"> </text>
    <text x="163.2" y="901" fill="#3B3B3B" font-size="15">{</text>
    <text x="26" y="923" fill="#6E7681" font-size="15">41</text>
    <text x="60.0" y="923" fill="#3B3B3B" font-size="15">    </text>
    <text x="94.4" y="923" fill="#001080" font-size="15">self</text>
    <text x="128.8" y="923" fill="#3B3B3B" font-size="15">.</text>
    <text x="137.4" y="923" fill="#001080" font-size="15">value</text>
    <text x="180.4" y="923" fill="#3B3B3B" font-size="15"> </text>
    <text x="189.0" y="923" fill="#000000" font-size="15">+=</text>
    <text x="206.2" y="923" fill="#3B3B3B" font-size="15"> </text>
    <text x="214.8" y="923" fill="#098658" font-size="15">1</text>
    <text x="26" y="945" fill="#6E7681" font-size="15">42</text>
    <text x="60.0" y="945" fill="#3B3B3B" font-size="15">  </text>
    <text x="77.2" y="945" fill="#3B3B3B" font-size="15">}</text>
    <text x="26" y="967" fill="#6E7681" font-size="15">43</text>
    <text x="60.0" y="967" fill="#3B3B3B" font-size="15">}</text>
    <text x="26" y="989" fill="#6E7681" font-size="15">44</text>
    <text x="26" y="1011" fill="#6E7681" font-size="15">45</text>
    <text x="60.0" y="1011" fill="#008000" font-size="15">///|</text>
    <text x="26" y="1033" fill="#6E7681" font-size="15">46</text>
    <text x="60.0" y="1033" fill="#008000" font-size="15">/// Acquire one unit of resource from the semaphore.</text>
    <text x="26" y="1055" fill="#6E7681" font-size="15">47</text>
    <text x="60.0" y="1055" fill="#0000FF" font-size="15">pub</text>
    <text x="85.8" y="1055" fill="#3B3B3B" font-size="15"> </text>
    <text x="94.4" y="1055" fill="#0000FF" font-size="15">async</text>
    <text x="137.4" y="1055" fill="#3B3B3B" font-size="15"> </text>
    <text x="146.0" y="1055" fill="#0000FF" font-size="15">fn</text>
    <text x="163.2" y="1055" fill="#3B3B3B" font-size="15"> </text>
    <text x="171.8" y="1055" fill="#267F99" font-size="15">Semaphore</text>
    <text x="249.2" y="1055" fill="#3B3B3B" font-size="15">:</text>
    <text x="257.8" y="1055" fill="#3B3B3B" font-size="15">:</text>
    <text x="266.4" y="1055" fill="#795E26" font-size="15">acquire</text>
    <text x="326.6" y="1055" fill="#3B3B3B" font-size="15">(</text>
    <text x="335.2" y="1055" fill="#001080" font-size="15">self</text>
    <text x="369.6" y="1055" fill="#3B3B3B" font-size="15"> </text>
    <text x="378.2" y="1055" fill="#3B3B3B" font-size="15">:</text>
    <text x="386.8" y="1055" fill="#3B3B3B" font-size="15"> </text>
    <text x="395.4" y="1055" fill="#267F99" font-size="15">Semaphore</text>
    <text x="472.8" y="1055" fill="#3B3B3B" font-size="15">)</text>
    <text x="481.4" y="1055" fill="#3B3B3B" font-size="15"> </text>
    <text x="490.0" y="1055" fill="#0000FF" font-size="15">-&gt;</text>
    <text x="507.2" y="1055" fill="#3B3B3B" font-size="15"> </text>
    <text x="515.8" y="1055" fill="#267F99" font-size="15">Unit</text>
    <text x="550.2" y="1055" fill="#3B3B3B" font-size="15"> </text>
    <text x="558.8" y="1055" fill="#3B3B3B" font-size="15">{</text>
    <text x="26" y="1077" fill="#6E7681" font-size="15">48</text>
    <text x="60.0" y="1077" fill="#3B3B3B" font-size="15">  </text>
    <text x="77.2" y="1077" fill="#AF00DB" font-size="15">if</text>
    <text x="94.4" y="1077" fill="#3B3B3B" font-size="15"> </text>
    <text x="103.0" y="1077" fill="#001080" font-size="15">self</text>
    <text x="137.4" y="1077" fill="#3B3B3B" font-size="15">.</text>
    <text x="146.0" y="1077" fill="#001080" font-size="15">value</text>
    <text x="189.0" y="1077" fill="#3B3B3B" font-size="15"> </text>
    <text x="197.6" y="1077" fill="#000000" font-size="15">&gt;</text>
    <text x="206.2" y="1077" fill="#3B3B3B" font-size="15"> </text>
    <text x="214.8" y="1077" fill="#098658" font-size="15">0</text>
    <text x="223.4" y="1077" fill="#3B3B3B" font-size="15"> </text>
    <text x="232.0" y="1077" fill="#3B3B3B" font-size="15">{</text>
    <text x="26" y="1099" fill="#6E7681" font-size="15">49</text>
    <text x="60.0" y="1099" fill="#3B3B3B" font-size="15">    </text>
    <text x="94.4" y="1099" fill="#001080" font-size="15">self</text>
    <text x="128.8" y="1099" fill="#3B3B3B" font-size="15">.</text>
    <text x="137.4" y="1099" fill="#001080" font-size="15">value</text>
    <text x="180.4" y="1099" fill="#3B3B3B" font-size="15"> </text>
    <text x="189.0" y="1099" fill="#000000" font-size="15">-=</text>
    <text x="206.2" y="1099" fill="#3B3B3B" font-size="15"> </text>
    <text x="214.8" y="1099" fill="#098658" font-size="15">1</text>
    <text x="26" y="1121" fill="#6E7681" font-size="15">50</text>
    <text x="60.0" y="1121" fill="#3B3B3B" font-size="15">  </text>
    <text x="77.2" y="1121" fill="#3B3B3B" font-size="15">}</text>
    <text x="85.8" y="1121" fill="#3B3B3B" font-size="15"> </text>
    <text x="94.4" y="1121" fill="#AF00DB" font-size="15">else</text>
    <text x="128.8" y="1121" fill="#3B3B3B" font-size="15"> </text>
    <text x="137.4" y="1121" fill="#3B3B3B" font-size="15">{</text>
    <text x="26" y="1143" fill="#6E7681" font-size="15">51</text>
    <text x="60.0" y="1143" fill="#3B3B3B" font-size="15">    </text>
    <text x="94.4" y="1143" fill="#0000FF" font-size="15">let</text>
    <text x="120.2" y="1143" fill="#3B3B3B" font-size="15"> </text>
    <text x="128.8" y="1143" fill="#001080" font-size="15">waiter</text>
    <text x="180.4" y="1143" fill="#3B3B3B" font-size="15"> </text>
    <text x="189.0" y="1143" fill="#000000" font-size="15">=</text>
    <text x="197.6" y="1143" fill="#3B3B3B" font-size="15"> </text>
    <text x="206.2" y="1143" fill="#3B3B3B" font-size="15">{</text>
    <text x="214.8" y="1143" fill="#3B3B3B" font-size="15"> </text>
    <text x="223.4" y="1143" fill="#001080" font-size="15">coro</text>
    <text x="257.8" y="1143" fill="#3B3B3B" font-size="15">:</text>
    <text x="266.4" y="1143" fill="#3B3B3B" font-size="15"> </text>
    <text x="275.0" y="1143" fill="#267F99" font-size="15">Some</text>
    <text x="309.4" y="1143" fill="#3B3B3B" font-size="15">(</text>
    <text x="318.0" y="1143" fill="#267F99" font-size="15">@coroutine</text>
    <text x="404.0" y="1143" fill="#3B3B3B" font-size="15">.</text>
    <text x="412.6" y="1143" fill="#795E26" font-size="15">current_coroutine</text>
    <text x="558.8" y="1143" fill="#3B3B3B" font-size="15">(</text>
    <text x="567.4" y="1143" fill="#3B3B3B" font-size="15">)</text>
    <text x="576.0" y="1143" fill="#3B3B3B" font-size="15">)</text>
    <text x="584.6" y="1143" fill="#3B3B3B" font-size="15">,</text>
    <text x="593.2" y="1143" fill="#3B3B3B" font-size="15"> </text>
    <text x="601.8" y="1143" fill="#001080" font-size="15">acquired</text>
    <text x="670.6" y="1143" fill="#3B3B3B" font-size="15">:</text>
    <text x="679.2" y="1143" fill="#3B3B3B" font-size="15"> </text>
    <text x="687.8" y="1143" fill="#0000FF" font-size="15">false</text>
    <text x="730.8" y="1143" fill="#3B3B3B" font-size="15"> </text>
    <text x="739.4" y="1143" fill="#3B3B3B" font-size="15">}</text>
    <text x="26" y="1165" fill="#6E7681" font-size="15">52</text>
    <text x="60.0" y="1165" fill="#3B3B3B" font-size="15">    </text>
    <text x="94.4" y="1165" fill="#001080" font-size="15">self</text>
    <text x="128.8" y="1165" fill="#3B3B3B" font-size="15">.</text>
    <text x="137.4" y="1165" fill="#001080" font-size="15">waiters</text>
    <text x="197.6" y="1165" fill="#3B3B3B" font-size="15">.</text>
    <text x="206.2" y="1165" fill="#795E26" font-size="15">push_back</text>
    <text x="283.6" y="1165" fill="#3B3B3B" font-size="15">(</text>
    <text x="292.2" y="1165" fill="#001080" font-size="15">waiter</text>
    <text x="343.8" y="1165" fill="#3B3B3B" font-size="15">)</text>
    <text x="26" y="1187" fill="#6E7681" font-size="15">53</text>
    <text x="60.0" y="1187" fill="#3B3B3B" font-size="15">    </text>
    <text x="94.4" y="1187" fill="#267F99" font-size="15">@coroutine</text>
    <text x="180.4" y="1187" fill="#3B3B3B" font-size="15">.</text>
    <text x="189.0" y="1187" fill="#795E26" font-size="15">suspend</text>
    <text x="249.2" y="1187" fill="#3B3B3B" font-size="15">(</text>
    <text x="257.8" y="1187" fill="#3B3B3B" font-size="15">)</text>
    <text x="266.4" y="1187" fill="#3B3B3B" font-size="15"> </text>
    <text x="275.0" y="1187" fill="#AF00DB" font-size="15">catch</text>
    <text x="318.0" y="1187" fill="#3B3B3B" font-size="15"> </text>
    <text x="326.6" y="1187" fill="#3B3B3B" font-size="15">{</text>
    <text x="26" y="1209" fill="#6E7681" font-size="15">54</text>
    <text x="60.0" y="1209" fill="#3B3B3B" font-size="15">      </text>
    <text x="111.6" y="1209" fill="#0000FF" font-size="15">_</text>
    <text x="120.2" y="1209" fill="#3B3B3B" font-size="15"> </text>
    <text x="128.8" y="1209" fill="#AF00DB" font-size="15">if</text>
    <text x="146.0" y="1209" fill="#3B3B3B" font-size="15"> </text>
    <text x="154.6" y="1209" fill="#001080" font-size="15">waiter</text>
    <text x="206.2" y="1209" fill="#3B3B3B" font-size="15">.</text>
    <text x="214.8" y="1209" fill="#001080" font-size="15">acquired</text>
    <text x="283.6" y="1209" fill="#3B3B3B" font-size="15"> </text>
    <text x="292.2" y="1209" fill="#0000FF" font-size="15">=&gt;</text>
    <text x="309.4" y="1209" fill="#3B3B3B" font-size="15"> </text>
    <text x="318.0" y="1209" fill="#3B3B3B" font-size="15">(</text>
    <text x="326.6" y="1209" fill="#3B3B3B" font-size="15">)</text>
    <text x="26" y="1231" fill="#6E7681" font-size="15">55</text>
    <text x="60.0" y="1231" fill="#3B3B3B" font-size="15">      </text>
    <text x="111.6" y="1231" fill="#001080" font-size="15">err</text>
    <text x="137.4" y="1231" fill="#3B3B3B" font-size="15"> </text>
    <text x="146.0" y="1231" fill="#0000FF" font-size="15">=&gt;</text>
    <text x="163.2" y="1231" fill="#3B3B3B" font-size="15"> </text>
    <text x="171.8" y="1231" fill="#3B3B3B" font-size="15">{</text>
    <text x="26" y="1253" fill="#6E7681" font-size="15">56</text>
    <text x="60.0" y="1253" fill="#3B3B3B" font-size="15">        </text>
    <text x="128.8" y="1253" fill="#001080" font-size="15">waiter</text>
    <text x="180.4" y="1253" fill="#3B3B3B" font-size="15">.</text>
    <text x="189.0" y="1253" fill="#001080" font-size="15">coro</text>
    <text x="223.4" y="1253" fill="#3B3B3B" font-size="15"> </text>
    <text x="232.0" y="1253" fill="#000000" font-size="15">=</text>
    <text x="240.6" y="1253" fill="#3B3B3B" font-size="15"> </text>
    <text x="249.2" y="1253" fill="#267F99" font-size="15">None</text>
    <text x="26" y="1275" fill="#6E7681" font-size="15">57</text>
    <text x="60.0" y="1275" fill="#3B3B3B" font-size="15">        </text>
    <text x="128.8" y="1275" fill="#AF00DB" font-size="15">raise</text>
    <text x="171.8" y="1275" fill="#3B3B3B" font-size="15"> </text>
    <text x="180.4" y="1275" fill="#001080" font-size="15">err</text>
    <text x="26" y="1297" fill="#6E7681" font-size="15">58</text>
    <text x="60.0" y="1297" fill="#3B3B3B" font-size="15">      </text>
    <text x="111.6" y="1297" fill="#3B3B3B" font-size="15">}</text>
    <text x="26" y="1319" fill="#6E7681" font-size="15">59</text>
    <text x="60.0" y="1319" fill="#3B3B3B" font-size="15">    </text>
    <text x="94.4" y="1319" fill="#3B3B3B" font-size="15">}</text>
    <text x="26" y="1341" fill="#6E7681" font-size="15">60</text>
    <text x="60.0" y="1341" fill="#3B3B3B" font-size="15">  </text>
    <text x="77.2" y="1341" fill="#3B3B3B" font-size="15">}</text>
    <text x="26" y="1363" fill="#6E7681" font-size="15">61</text>
    <text x="60.0" y="1363" fill="#3B3B3B" font-size="15">}</text>
  </g>
</svg>
