<svg xmlns="http://www.w3.org/2000/svg" width="774" height="1618" viewBox="0 0 774 1618">
  <rect width="100%" height="100%" rx="8" fill="#FFFFFF"/>
  <g font-family="SFMono-Regular, Menlo, Monaco, Consolas, 'Liberation Mono', monospace" xml:space="preserve">
    <text x="26" y="43" fill="#6E7681" font-size="15"> 1</text>
    <text x="60.0" y="43" fill="#008000" font-size="15">// Source: /Users/baozhiyuan/Workspace/async/src/spawn_test.mbt</text>
    <text x="26" y="65" fill="#6E7681" font-size="15"> 2</text>
    <text x="60.0" y="65" fill="#008000" font-size="15">// Copyright 2025 International Digital Economy Academy</text>
    <text x="26" y="87" fill="#6E7681" font-size="15"> 3</text>
    <text x="60.0" y="87" fill="#008000" font-size="15">//</text>
    <text x="26" y="109" fill="#6E7681" font-size="15"> 4</text>
    <text x="60.0" y="109" fill="#008000" font-size="15">// Licensed under the Apache License, Version 2.0 (the &quot;License&quot;);</text>
    <text x="26" y="131" fill="#6E7681" font-size="15"> 5</text>
    <text x="60.0" y="131" fill="#008000" font-size="15">// you may not use this file except in compliance with the License.</text>
    <text x="26" y="153" fill="#6E7681" font-size="15"> 6</text>
    <text x="60.0" y="153" fill="#008000" font-size="15">// You may obtain a copy of the License at</text>
    <text x="26" y="175" fill="#6E7681" font-size="15"> 7</text>
    <text x="60.0" y="175" fill="#008000" font-size="15">//</text>
    <text x="26" y="197" fill="#6E7681" font-size="15"> 8</text>
    <text x="60.0" y="197" fill="#008000" font-size="15">//     http://www.apache.org/licenses/LICENSE-2.0</text>
    <text x="26" y="219" fill="#6E7681" font-size="15"> 9</text>
    <text x="60.0" y="219" fill="#008000" font-size="15">//</text>
    <text x="26" y="241" fill="#6E7681" font-size="15">10</text>
    <text x="60.0" y="241" fill="#008000" font-size="15">// Unless required by applicable law or agreed to in writing, software</text>
    <text x="26" y="263" fill="#6E7681" font-size="15">11</text>
    <text x="60.0" y="263" fill="#008000" font-size="15">// distributed under the License is distributed on an &quot;AS IS&quot; BASIS,</text>
    <text x="26" y="285" fill="#6E7681" font-size="15">12</text>
    <text x="60.0" y="285" fill="#008000" font-size="15">// WITHOUT WARRANTIES OR CONDITIONS OF ANY KIND, either express or implied.</text>
    <text x="26" y="307" fill="#6E7681" font-size="15">13</text>
    <text x="60.0" y="307" fill="#008000" font-size="15">// See the License for the specific language governing permissions and</text>
    <text x="26" y="329" fill="#6E7681" font-size="15">14</text>
    <text x="60.0" y="329" fill="#008000" font-size="15">// limitations under the License.</text>
    <text x="26" y="351" fill="#6E7681" font-size="15">15</text>
    <text x="26" y="373" fill="#6E7681" font-size="15">16</text>
    <text x="60.0" y="373" fill="#008000" font-size="15">///|</text>
    <text x="26" y="395" fill="#6E7681" font-size="15">17</text>
    <text x="60.0" y="395" fill="#0000FF" font-size="15">async</text>
    <text x="103.0" y="395" fill="#3B3B3B" font-size="15"> </text>
    <text x="111.6" y="395" fill="#0000FF" font-size="15">test</text>
    <text x="146.0" y="395" fill="#3B3B3B" font-size="15"> </text>
    <text x="154.6" y="395" fill="#A31515" font-size="15">&quot;</text>
    <text x="163.2" y="395" fill="#A31515" font-size="15">spawn error1</text>
    <text x="266.4" y="395" fill="#A31515" font-size="15">&quot;</text>
    <text x="275.0" y="395" fill="#3B3B3B" font-size="15"> </text>
    <text x="283.6" y="395" fill="#3B3B3B" font-size="15">{</text>
    <text x="26" y="417" fill="#6E7681" font-size="15">18</text>
    <text x="60.0" y="417" fill="#3B3B3B" font-size="15">  </text>
    <text x="77.2" y="417" fill="#0000FF" font-size="15">let</text>
    <text x="103.0" y="417" fill="#3B3B3B" font-size="15"> </text>
    <text x="111.6" y="417" fill="#001080" font-size="15">buf</text>
    <text x="137.4" y="417" fill="#3B3B3B" font-size="15"> </text>
    <text x="146.0" y="417" fill="#000000" font-size="15">=</text>
    <text x="154.6" y="417" fill="#3B3B3B" font-size="15"> </text>
    <text x="163.2" y="417" fill="#267F99" font-size="15">StringBuilder</text>
    <text x="275.0" y="417" fill="#3B3B3B" font-size="15">:</text>
    <text x="283.6" y="417" fill="#3B3B3B" font-size="15">:</text>
    <text x="292.2" y="417" fill="#795E26" font-size="15">new</text>
    <text x="318.0" y="417" fill="#3B3B3B" font-size="15">(</text>
    <text x="326.6" y="417" fill="#3B3B3B" font-size="15">)</text>
    <text x="26" y="439" fill="#6E7681" font-size="15">19</text>
    <text x="60.0" y="439" fill="#3B3B3B" font-size="15">  </text>
    <text x="77.2" y="439" fill="#0000FF" font-size="15">let</text>
    <text x="103.0" y="439" fill="#3B3B3B" font-size="15"> </text>
    <text x="111.6" y="439" fill="#001080" font-size="15">result</text>
    <text x="163.2" y="439" fill="#3B3B3B" font-size="15"> </text>
    <text x="171.8" y="439" fill="#000000" font-size="15">=</text>
    <text x="180.4" y="439" fill="#3B3B3B" font-size="15"> </text>
    <text x="189.0" y="439" fill="#AF00DB" font-size="15">try?</text>
    <text x="223.4" y="439" fill="#3B3B3B" font-size="15"> </text>
    <text x="232.0" y="439" fill="#267F99" font-size="15">@async</text>
    <text x="283.6" y="439" fill="#3B3B3B" font-size="15">.</text>
    <text x="292.2" y="439" fill="#795E26" font-size="15">with_task_group</text>
    <text x="421.2" y="439" fill="#3B3B3B" font-size="15">(</text>
    <text x="429.8" y="439" fill="#001080" font-size="15">root</text>
    <text x="464.2" y="439" fill="#3B3B3B" font-size="15"> </text>
    <text x="472.8" y="439" fill="#0000FF" font-size="15">=&gt;</text>
    <text x="490.0" y="439" fill="#3B3B3B" font-size="15"> </text>
    <text x="498.6" y="439" fill="#3B3B3B" font-size="15">{</text>
    <text x="26" y="461" fill="#6E7681" font-size="15">20</text>
    <text x="60.0" y="461" fill="#3B3B3B" font-size="15">    </text>
    <text x="94.4" y="461" fill="#001080" font-size="15">root</text>
    <text x="128.8" y="461" fill="#3B3B3B" font-size="15">.</text>
    <text x="137.4" y="461" fill="#795E26" font-size="15">spawn_bg</text>
    <text x="206.2" y="461" fill="#3B3B3B" font-size="15">(</text>
    <text x="214.8" y="461" fill="#3B3B3B" font-size="15">)</text>
    <text x="223.4" y="461" fill="#3B3B3B" font-size="15"> </text>
    <text x="232.0" y="461" fill="#000000" font-size="15">&lt;|</text>
    <text x="249.2" y="461" fill="#3B3B3B" font-size="15"> </text>
    <text x="257.8" y="461" fill="#3B3B3B" font-size="15">(</text>
    <text x="266.4" y="461" fill="#3B3B3B" font-size="15">)</text>
    <text x="275.0" y="461" fill="#3B3B3B" font-size="15"> </text>
    <text x="283.6" y="461" fill="#0000FF" font-size="15">=&gt;</text>
    <text x="300.8" y="461" fill="#3B3B3B" font-size="15"> </text>
    <text x="309.4" y="461" fill="#3B3B3B" font-size="15">{</text>
    <text x="26" y="483" fill="#6E7681" font-size="15">21</text>
    <text x="60.0" y="483" fill="#3B3B3B" font-size="15">      </text>
    <text x="111.6" y="483" fill="#267F99" font-size="15">@async</text>
    <text x="163.2" y="483" fill="#3B3B3B" font-size="15">.</text>
    <text x="171.8" y="483" fill="#795E26" font-size="15">sleep</text>
    <text x="214.8" y="483" fill="#3B3B3B" font-size="15">(</text>
    <text x="223.4" y="483" fill="#098658" font-size="15">1000</text>
    <text x="257.8" y="483" fill="#3B3B3B" font-size="15">)</text>
    <text x="26" y="505" fill="#6E7681" font-size="15">22</text>
    <text x="60.0" y="505" fill="#3B3B3B" font-size="15">      </text>
    <text x="111.6" y="505" fill="#001080" font-size="15">buf</text>
    <text x="137.4" y="505" fill="#3B3B3B" font-size="15"> </text>
    <text x="146.0" y="505" fill="#000000" font-size="15">&lt;</text>
    <text x="154.6" y="505" fill="#000000" font-size="15">+</text>
    <text x="163.2" y="505" fill="#3B3B3B" font-size="15"> </text>
    <text x="171.8" y="505" fill="#A31515" font-size="15">&quot;</text>
    <text x="180.4" y="505" fill="#A31515" font-size="15">task 1 finished</text>
    <text x="309.4" y="505" fill="#EE0000" font-size="15">\n</text>
    <text x="326.6" y="505" fill="#A31515" font-size="15">&quot;</text>
    <text x="26" y="527" fill="#6E7681" font-size="15">23</text>
    <text x="60.0" y="527" fill="#3B3B3B" font-size="15">    </text>
    <text x="94.4" y="527" fill="#3B3B3B" font-size="15">}</text>
    <text x="26" y="549" fill="#6E7681" font-size="15">24</text>
    <text x="60.0" y="549" fill="#3B3B3B" font-size="15">    </text>
    <text x="94.4" y="549" fill="#001080" font-size="15">root</text>
    <text x="128.8" y="549" fill="#3B3B3B" font-size="15">.</text>
    <text x="137.4" y="549" fill="#795E26" font-size="15">spawn_bg</text>
    <text x="206.2" y="549" fill="#3B3B3B" font-size="15">(</text>
    <text x="214.8" y="549" fill="#3B3B3B" font-size="15">)</text>
    <text x="223.4" y="549" fill="#3B3B3B" font-size="15"> </text>
    <text x="232.0" y="549" fill="#000000" font-size="15">&lt;|</text>
    <text x="249.2" y="549" fill="#3B3B3B" font-size="15"> </text>
    <text x="257.8" y="549" fill="#3B3B3B" font-size="15">(</text>
    <text x="266.4" y="549" fill="#3B3B3B" font-size="15">)</text>
    <text x="275.0" y="549" fill="#3B3B3B" font-size="15"> </text>
    <text x="283.6" y="549" fill="#0000FF" font-size="15">=&gt;</text>
    <text x="300.8" y="549" fill="#3B3B3B" font-size="15"> </text>
    <text x="309.4" y="549" fill="#3B3B3B" font-size="15">{</text>
    <text x="26" y="571" fill="#6E7681" font-size="15">25</text>
    <text x="60.0" y="571" fill="#3B3B3B" font-size="15">      </text>
    <text x="111.6" y="571" fill="#267F99" font-size="15">@async</text>
    <text x="163.2" y="571" fill="#3B3B3B" font-size="15">.</text>
    <text x="171.8" y="571" fill="#795E26" font-size="15">sleep</text>
    <text x="214.8" y="571" fill="#3B3B3B" font-size="15">(</text>
    <text x="223.4" y="571" fill="#098658" font-size="15">200</text>
    <text x="249.2" y="571" fill="#3B3B3B" font-size="15">)</text>
    <text x="26" y="593" fill="#6E7681" font-size="15">26</text>
    <text x="60.0" y="593" fill="#3B3B3B" font-size="15">      </text>
    <text x="111.6" y="593" fill="#AF00DB" font-size="15">raise</text>
    <text x="154.6" y="593" fill="#3B3B3B" font-size="15"> </text>
    <text x="163.2" y="593" fill="#267F99" font-size="15">Err</text>
    <text x="26" y="615" fill="#6E7681" font-size="15">27</text>
    <text x="60.0" y="615" fill="#3B3B3B" font-size="15">    </text>
    <text x="94.4" y="615" fill="#3B3B3B" font-size="15">}</text>
    <text x="26" y="637" fill="#6E7681" font-size="15">28</text>
    <text x="60.0" y="637" fill="#3B3B3B" font-size="15">  </text>
    <text x="77.2" y="637" fill="#3B3B3B" font-size="15">}</text>
    <text x="85.8" y="637" fill="#3B3B3B" font-size="15">)</text>
    <text x="26" y="659" fill="#6E7681" font-size="15">29</text>
    <text x="60.0" y="659" fill="#3B3B3B" font-size="15">  </text>
    <text x="77.2" y="659" fill="#001080" font-size="15">buf</text>
    <text x="103.0" y="659" fill="#3B3B3B" font-size="15">.</text>
    <text x="111.6" y="659" fill="#795E26" font-size="15">write_string</text>
    <text x="214.8" y="659" fill="#3B3B3B" font-size="15">(</text>
    <text x="223.4" y="659" fill="#267F99" font-size="15">@debug</text>
    <text x="275.0" y="659" fill="#3B3B3B" font-size="15">.</text>
    <text x="283.6" y="659" fill="#795E26" font-size="15">to_string</text>
    <text x="361.0" y="659" fill="#3B3B3B" font-size="15">(</text>
    <text x="369.6" y="659" fill="#001080" font-size="15">result</text>
    <text x="421.2" y="659" fill="#3B3B3B" font-size="15">)</text>
    <text x="429.8" y="659" fill="#3B3B3B" font-size="15">)</text>
    <text x="26" y="681" fill="#6E7681" font-size="15">30</text>
    <text x="60.0" y="681" fill="#3B3B3B" font-size="15">  </text>
    <text x="77.2" y="681" fill="#795E26" font-size="15">inspect</text>
    <text x="137.4" y="681" fill="#3B3B3B" font-size="15">(</text>
    <text x="146.0" y="681" fill="#001080" font-size="15">buf</text>
    <text x="171.8" y="681" fill="#3B3B3B" font-size="15">.</text>
    <text x="180.4" y="681" fill="#795E26" font-size="15">to_string</text>
    <text x="257.8" y="681" fill="#3B3B3B" font-size="15">(</text>
    <text x="266.4" y="681" fill="#3B3B3B" font-size="15">)</text>
    <text x="275.0" y="681" fill="#3B3B3B" font-size="15">,</text>
    <text x="283.6" y="681" fill="#3B3B3B" font-size="15"> </text>
    <text x="292.2" y="681" fill="#001080" font-size="15">content</text>
    <text x="352.4" y="681" fill="#000000" font-size="15">=</text>
    <text x="361.0" y="681" fill="#A31515" font-size="15">&quot;</text>
    <text x="369.6" y="681" fill="#A31515" font-size="15">Err(Err)</text>
    <text x="438.4" y="681" fill="#A31515" font-size="15">&quot;</text>
    <text x="447.0" y="681" fill="#3B3B3B" font-size="15">)</text>
    <text x="26" y="703" fill="#6E7681" font-size="15">31</text>
    <text x="60.0" y="703" fill="#3B3B3B" font-size="15">}</text>
    <text x="26" y="725" fill="#6E7681" font-size="15">32</text>
    <text x="26" y="747" fill="#6E7681" font-size="15">33</text>
    <text x="60.0" y="747" fill="#008000" font-size="15">///|</text>
    <text x="26" y="769" fill="#6E7681" font-size="15">34</text>
    <text x="60.0" y="769" fill="#0000FF" font-size="15">async</text>
    <text x="103.0" y="769" fill="#3B3B3B" font-size="15"> </text>
    <text x="111.6" y="769" fill="#0000FF" font-size="15">test</text>
    <text x="146.0" y="769" fill="#3B3B3B" font-size="15"> </text>
    <text x="154.6" y="769" fill="#A31515" font-size="15">&quot;</text>
    <text x="163.2" y="769" fill="#A31515" font-size="15">spawn error2</text>
    <text x="266.4" y="769" fill="#A31515" font-size="15">&quot;</text>
    <text x="275.0" y="769" fill="#3B3B3B" font-size="15"> </text>
    <text x="283.6" y="769" fill="#3B3B3B" font-size="15">{</text>
    <text x="26" y="791" fill="#6E7681" font-size="15">35</text>
    <text x="60.0" y="791" fill="#3B3B3B" font-size="15">  </text>
    <text x="77.2" y="791" fill="#0000FF" font-size="15">let</text>
    <text x="103.0" y="791" fill="#3B3B3B" font-size="15"> </text>
    <text x="111.6" y="791" fill="#001080" font-size="15">buf</text>
    <text x="137.4" y="791" fill="#3B3B3B" font-size="15"> </text>
    <text x="146.0" y="791" fill="#000000" font-size="15">=</text>
    <text x="154.6" y="791" fill="#3B3B3B" font-size="15"> </text>
    <text x="163.2" y="791" fill="#267F99" font-size="15">StringBuilder</text>
    <text x="275.0" y="791" fill="#3B3B3B" font-size="15">:</text>
    <text x="283.6" y="791" fill="#3B3B3B" font-size="15">:</text>
    <text x="292.2" y="791" fill="#795E26" font-size="15">new</text>
    <text x="318.0" y="791" fill="#3B3B3B" font-size="15">(</text>
    <text x="326.6" y="791" fill="#3B3B3B" font-size="15">)</text>
    <text x="26" y="813" fill="#6E7681" font-size="15">36</text>
    <text x="60.0" y="813" fill="#3B3B3B" font-size="15">  </text>
    <text x="77.2" y="813" fill="#0000FF" font-size="15">let</text>
    <text x="103.0" y="813" fill="#3B3B3B" font-size="15"> </text>
    <text x="111.6" y="813" fill="#001080" font-size="15">result</text>
    <text x="163.2" y="813" fill="#3B3B3B" font-size="15"> </text>
    <text x="171.8" y="813" fill="#000000" font-size="15">=</text>
    <text x="180.4" y="813" fill="#3B3B3B" font-size="15"> </text>
    <text x="189.0" y="813" fill="#AF00DB" font-size="15">try?</text>
    <text x="223.4" y="813" fill="#3B3B3B" font-size="15"> </text>
    <text x="232.0" y="813" fill="#267F99" font-size="15">@async</text>
    <text x="283.6" y="813" fill="#3B3B3B" font-size="15">.</text>
    <text x="292.2" y="813" fill="#795E26" font-size="15">with_task_group</text>
    <text x="421.2" y="813" fill="#3B3B3B" font-size="15">(</text>
    <text x="429.8" y="813" fill="#001080" font-size="15">root</text>
    <text x="464.2" y="813" fill="#3B3B3B" font-size="15"> </text>
    <text x="472.8" y="813" fill="#0000FF" font-size="15">=&gt;</text>
    <text x="490.0" y="813" fill="#3B3B3B" font-size="15"> </text>
    <text x="498.6" y="813" fill="#3B3B3B" font-size="15">{</text>
    <text x="26" y="835" fill="#6E7681" font-size="15">37</text>
    <text x="60.0" y="835" fill="#3B3B3B" font-size="15">    </text>
    <text x="94.4" y="835" fill="#001080" font-size="15">root</text>
    <text x="128.8" y="835" fill="#3B3B3B" font-size="15">.</text>
    <text x="137.4" y="835" fill="#795E26" font-size="15">spawn_bg</text>
    <text x="206.2" y="835" fill="#3B3B3B" font-size="15">(</text>
    <text x="214.8" y="835" fill="#3B3B3B" font-size="15">)</text>
    <text x="223.4" y="835" fill="#3B3B3B" font-size="15"> </text>
    <text x="232.0" y="835" fill="#000000" font-size="15">&lt;|</text>
    <text x="249.2" y="835" fill="#3B3B3B" font-size="15"> </text>
    <text x="257.8" y="835" fill="#3B3B3B" font-size="15">(</text>
    <text x="266.4" y="835" fill="#3B3B3B" font-size="15">)</text>
    <text x="275.0" y="835" fill="#3B3B3B" font-size="15"> </text>
    <text x="283.6" y="835" fill="#0000FF" font-size="15">=&gt;</text>
    <text x="300.8" y="835" fill="#3B3B3B" font-size="15"> </text>
    <text x="309.4" y="835" fill="#3B3B3B" font-size="15">{</text>
    <text x="26" y="857" fill="#6E7681" font-size="15">38</text>
    <text x="60.0" y="857" fill="#3B3B3B" font-size="15">      </text>
    <text x="111.6" y="857" fill="#267F99" font-size="15">@async</text>
    <text x="163.2" y="857" fill="#3B3B3B" font-size="15">.</text>
    <text x="171.8" y="857" fill="#795E26" font-size="15">sleep</text>
    <text x="214.8" y="857" fill="#3B3B3B" font-size="15">(</text>
    <text x="223.4" y="857" fill="#098658" font-size="15">200</text>
    <text x="249.2" y="857" fill="#3B3B3B" font-size="15">)</text>
    <text x="26" y="879" fill="#6E7681" font-size="15">39</text>
    <text x="60.0" y="879" fill="#3B3B3B" font-size="15">      </text>
    <text x="111.6" y="879" fill="#AF00DB" font-size="15">raise</text>
    <text x="154.6" y="879" fill="#3B3B3B" font-size="15"> </text>
    <text x="163.2" y="879" fill="#267F99" font-size="15">Err</text>
    <text x="26" y="901" fill="#6E7681" font-size="15">40</text>
    <text x="60.0" y="901" fill="#3B3B3B" font-size="15">    </text>
    <text x="94.4" y="901" fill="#3B3B3B" font-size="15">}</text>
    <text x="26" y="923" fill="#6E7681" font-size="15">41</text>
    <text x="60.0" y="923" fill="#3B3B3B" font-size="15">    </text>
    <text x="94.4" y="923" fill="#001080" font-size="15">root</text>
    <text x="128.8" y="923" fill="#3B3B3B" font-size="15">.</text>
    <text x="137.4" y="923" fill="#795E26" font-size="15">spawn_bg</text>
    <text x="206.2" y="923" fill="#3B3B3B" font-size="15">(</text>
    <text x="214.8" y="923" fill="#3B3B3B" font-size="15">)</text>
    <text x="223.4" y="923" fill="#3B3B3B" font-size="15"> </text>
    <text x="232.0" y="923" fill="#000000" font-size="15">&lt;|</text>
    <text x="249.2" y="923" fill="#3B3B3B" font-size="15"> </text>
    <text x="257.8" y="923" fill="#3B3B3B" font-size="15">(</text>
    <text x="266.4" y="923" fill="#3B3B3B" font-size="15">)</text>
    <text x="275.0" y="923" fill="#3B3B3B" font-size="15"> </text>
    <text x="283.6" y="923" fill="#0000FF" font-size="15">=&gt;</text>
    <text x="300.8" y="923" fill="#3B3B3B" font-size="15"> </text>
    <text x="309.4" y="923" fill="#3B3B3B" font-size="15">{</text>
    <text x="26" y="945" fill="#6E7681" font-size="15">42</text>
    <text x="60.0" y="945" fill="#3B3B3B" font-size="15">      </text>
    <text x="111.6" y="945" fill="#267F99" font-size="15">@async</text>
    <text x="163.2" y="945" fill="#3B3B3B" font-size="15">.</text>
    <text x="171.8" y="945" fill="#795E26" font-size="15">sleep</text>
    <text x="214.8" y="945" fill="#3B3B3B" font-size="15">(</text>
    <text x="223.4" y="945" fill="#098658" font-size="15">1000</text>
    <text x="257.8" y="945" fill="#3B3B3B" font-size="15">)</text>
    <text x="26" y="967" fill="#6E7681" font-size="15">43</text>
    <text x="60.0" y="967" fill="#3B3B3B" font-size="15">      </text>
    <text x="111.6" y="967" fill="#001080" font-size="15">buf</text>
    <text x="137.4" y="967" fill="#3B3B3B" font-size="15"> </text>
    <text x="146.0" y="967" fill="#000000" font-size="15">&lt;</text>
    <text x="154.6" y="967" fill="#000000" font-size="15">+</text>
    <text x="163.2" y="967" fill="#3B3B3B" font-size="15"> </text>
    <text x="171.8" y="967" fill="#A31515" font-size="15">&quot;</text>
    <text x="180.4" y="967" fill="#A31515" font-size="15">task 1 finished</text>
    <text x="309.4" y="967" fill="#EE0000" font-size="15">\n</text>
    <text x="326.6" y="967" fill="#A31515" font-size="15">&quot;</text>
    <text x="26" y="989" fill="#6E7681" font-size="15">44</text>
    <text x="60.0" y="989" fill="#3B3B3B" font-size="15">    </text>
    <text x="94.4" y="989" fill="#3B3B3B" font-size="15">}</text>
    <text x="26" y="1011" fill="#6E7681" font-size="15">45</text>
    <text x="60.0" y="1011" fill="#3B3B3B" font-size="15">  </text>
    <text x="77.2" y="1011" fill="#3B3B3B" font-size="15">}</text>
    <text x="85.8" y="1011" fill="#3B3B3B" font-size="15">)</text>
    <text x="26" y="1033" fill="#6E7681" font-size="15">46</text>
    <text x="60.0" y="1033" fill="#3B3B3B" font-size="15">  </text>
    <text x="77.2" y="1033" fill="#001080" font-size="15">buf</text>
    <text x="103.0" y="1033" fill="#3B3B3B" font-size="15">.</text>
    <text x="111.6" y="1033" fill="#795E26" font-size="15">write_string</text>
    <text x="214.8" y="1033" fill="#3B3B3B" font-size="15">(</text>
    <text x="223.4" y="1033" fill="#267F99" font-size="15">@debug</text>
    <text x="275.0" y="1033" fill="#3B3B3B" font-size="15">.</text>
    <text x="283.6" y="1033" fill="#795E26" font-size="15">to_string</text>
    <text x="361.0" y="1033" fill="#3B3B3B" font-size="15">(</text>
    <text x="369.6" y="1033" fill="#001080" font-size="15">result</text>
    <text x="421.2" y="1033" fill="#3B3B3B" font-size="15">)</text>
    <text x="429.8" y="1033" fill="#3B3B3B" font-size="15">)</text>
    <text x="26" y="1055" fill="#6E7681" font-size="15">47</text>
    <text x="60.0" y="1055" fill="#3B3B3B" font-size="15">  </text>
    <text x="77.2" y="1055" fill="#795E26" font-size="15">inspect</text>
    <text x="137.4" y="1055" fill="#3B3B3B" font-size="15">(</text>
    <text x="146.0" y="1055" fill="#001080" font-size="15">buf</text>
    <text x="171.8" y="1055" fill="#3B3B3B" font-size="15">.</text>
    <text x="180.4" y="1055" fill="#795E26" font-size="15">to_string</text>
    <text x="257.8" y="1055" fill="#3B3B3B" font-size="15">(</text>
    <text x="266.4" y="1055" fill="#3B3B3B" font-size="15">)</text>
    <text x="275.0" y="1055" fill="#3B3B3B" font-size="15">,</text>
    <text x="283.6" y="1055" fill="#3B3B3B" font-size="15"> </text>
    <text x="292.2" y="1055" fill="#001080" font-size="15">content</text>
    <text x="352.4" y="1055" fill="#000000" font-size="15">=</text>
    <text x="361.0" y="1055" fill="#A31515" font-size="15">&quot;</text>
    <text x="369.6" y="1055" fill="#A31515" font-size="15">Err(Err)</text>
    <text x="438.4" y="1055" fill="#A31515" font-size="15">&quot;</text>
    <text x="447.0" y="1055" fill="#3B3B3B" font-size="15">)</text>
    <text x="26" y="1077" fill="#6E7681" font-size="15">48</text>
    <text x="60.0" y="1077" fill="#3B3B3B" font-size="15">}</text>
    <text x="26" y="1099" fill="#6E7681" font-size="15">49</text>
    <text x="26" y="1121" fill="#6E7681" font-size="15">50</text>
    <text x="60.0" y="1121" fill="#008000" font-size="15">///|</text>
    <text x="26" y="1143" fill="#6E7681" font-size="15">51</text>
    <text x="60.0" y="1143" fill="#0000FF" font-size="15">async</text>
    <text x="103.0" y="1143" fill="#3B3B3B" font-size="15"> </text>
    <text x="111.6" y="1143" fill="#0000FF" font-size="15">test</text>
    <text x="146.0" y="1143" fill="#3B3B3B" font-size="15"> </text>
    <text x="154.6" y="1143" fill="#A31515" font-size="15">&quot;</text>
    <text x="163.2" y="1143" fill="#A31515" font-size="15">spawn after cancelled</text>
    <text x="343.8" y="1143" fill="#A31515" font-size="15">&quot;</text>
    <text x="352.4" y="1143" fill="#3B3B3B" font-size="15"> </text>
    <text x="361.0" y="1143" fill="#3B3B3B" font-size="15">{</text>
    <text x="26" y="1165" fill="#6E7681" font-size="15">52</text>
    <text x="60.0" y="1165" fill="#3B3B3B" font-size="15">  </text>
    <text x="77.2" y="1165" fill="#0000FF" font-size="15">let</text>
    <text x="103.0" y="1165" fill="#3B3B3B" font-size="15"> </text>
    <text x="111.6" y="1165" fill="#001080" font-size="15">log</text>
    <text x="137.4" y="1165" fill="#3B3B3B" font-size="15"> </text>
    <text x="146.0" y="1165" fill="#000000" font-size="15">=</text>
    <text x="154.6" y="1165" fill="#3B3B3B" font-size="15"> </text>
    <text x="163.2" y="1165" fill="#3B3B3B" font-size="15">[</text>
    <text x="171.8" y="1165" fill="#3B3B3B" font-size="15">]</text>
    <text x="26" y="1187" fill="#6E7681" font-size="15">53</text>
    <text x="60.0" y="1187" fill="#3B3B3B" font-size="15">  </text>
    <text x="77.2" y="1187" fill="#0000FF" font-size="15">let</text>
    <text x="103.0" y="1187" fill="#3B3B3B" font-size="15"> </text>
    <text x="111.6" y="1187" fill="#001080" font-size="15">_</text>
    <text x="120.2" y="1187" fill="#000000" font-size="15"> :</text>
    <text x="137.4" y="1187" fill="#3B3B3B" font-size="15"> </text>
    <text x="146.0" y="1187" fill="#267F99" font-size="15">Result</text>
    <text x="197.6" y="1187" fill="#3B3B3B" font-size="15">[</text>
    <text x="206.2" y="1187" fill="#267F99" font-size="15">Unit</text>
    <text x="240.6" y="1187" fill="#3B3B3B" font-size="15">,</text>
    <text x="249.2" y="1187" fill="#3B3B3B" font-size="15"> </text>
    <text x="257.8" y="1187" fill="#0000FF" font-size="15">_</text>
    <text x="266.4" y="1187" fill="#3B3B3B" font-size="15">]</text>
    <text x="275.0" y="1187" fill="#3B3B3B" font-size="15"> </text>
    <text x="283.6" y="1187" fill="#000000" font-size="15">=</text>
    <text x="292.2" y="1187" fill="#3B3B3B" font-size="15"> </text>
    <text x="300.8" y="1187" fill="#AF00DB" font-size="15">try?</text>
    <text x="335.2" y="1187" fill="#3B3B3B" font-size="15"> </text>
    <text x="343.8" y="1187" fill="#267F99" font-size="15">@async</text>
    <text x="395.4" y="1187" fill="#3B3B3B" font-size="15">.</text>
    <text x="404.0" y="1187" fill="#795E26" font-size="15">with_task_group</text>
    <text x="533.0" y="1187" fill="#3B3B3B" font-size="15">(</text>
    <text x="541.6" y="1187" fill="#001080" font-size="15">group</text>
    <text x="584.6" y="1187" fill="#3B3B3B" font-size="15"> </text>
    <text x="593.2" y="1187" fill="#0000FF" font-size="15">=&gt;</text>
    <text x="610.4" y="1187" fill="#3B3B3B" font-size="15"> </text>
    <text x="619.0" y="1187" fill="#3B3B3B" font-size="15">{</text>
    <text x="26" y="1209" fill="#6E7681" font-size="15">54</text>
    <text x="60.0" y="1209" fill="#3B3B3B" font-size="15">    </text>
    <text x="94.4" y="1209" fill="#001080" font-size="15">group</text>
    <text x="137.4" y="1209" fill="#3B3B3B" font-size="15">.</text>
    <text x="146.0" y="1209" fill="#795E26" font-size="15">spawn_bg</text>
    <text x="214.8" y="1209" fill="#3B3B3B" font-size="15">(</text>
    <text x="223.4" y="1209" fill="#3B3B3B" font-size="15">)</text>
    <text x="232.0" y="1209" fill="#3B3B3B" font-size="15"> </text>
    <text x="240.6" y="1209" fill="#000000" font-size="15">&lt;|</text>
    <text x="257.8" y="1209" fill="#3B3B3B" font-size="15"> </text>
    <text x="266.4" y="1209" fill="#3B3B3B" font-size="15">(</text>
    <text x="275.0" y="1209" fill="#3B3B3B" font-size="15">)</text>
    <text x="283.6" y="1209" fill="#3B3B3B" font-size="15"> </text>
    <text x="292.2" y="1209" fill="#0000FF" font-size="15">=&gt;</text>
    <text x="309.4" y="1209" fill="#3B3B3B" font-size="15"> </text>
    <text x="318.0" y="1209" fill="#3B3B3B" font-size="15">{</text>
    <text x="26" y="1231" fill="#6E7681" font-size="15">55</text>
    <text x="60.0" y="1231" fill="#3B3B3B" font-size="15">      </text>
    <text x="111.6" y="1231" fill="#008000" font-size="15">// emulate a non-cancellable job,</text>
    <text x="26" y="1253" fill="#6E7681" font-size="15">56</text>
    <text x="60.0" y="1253" fill="#3B3B3B" font-size="15">      </text>
    <text x="111.6" y="1253" fill="#008000" font-size="15">// or a job that happens to be completed on cancellation,</text>
    <text x="26" y="1275" fill="#6E7681" font-size="15">57</text>
    <text x="60.0" y="1275" fill="#3B3B3B" font-size="15">      </text>
    <text x="111.6" y="1275" fill="#008000" font-size="15">// such that discarding the result may lead to data loss</text>
    <text x="26" y="1297" fill="#6E7681" font-size="15">58</text>
    <text x="60.0" y="1297" fill="#3B3B3B" font-size="15">      </text>
    <text x="111.6" y="1297" fill="#267F99" font-size="15">@async</text>
    <text x="163.2" y="1297" fill="#3B3B3B" font-size="15">.</text>
    <text x="171.8" y="1297" fill="#795E26" font-size="15">protect_from_cancel</text>
    <text x="335.2" y="1297" fill="#3B3B3B" font-size="15">(</text>
    <text x="343.8" y="1297" fill="#3B3B3B" font-size="15">(</text>
    <text x="352.4" y="1297" fill="#3B3B3B" font-size="15">)</text>
    <text x="361.0" y="1297" fill="#3B3B3B" font-size="15"> </text>
    <text x="369.6" y="1297" fill="#0000FF" font-size="15">=&gt;</text>
    <text x="386.8" y="1297" fill="#3B3B3B" font-size="15"> </text>
    <text x="395.4" y="1297" fill="#267F99" font-size="15">@async</text>
    <text x="447.0" y="1297" fill="#3B3B3B" font-size="15">.</text>
    <text x="455.6" y="1297" fill="#795E26" font-size="15">sleep</text>
    <text x="498.6" y="1297" fill="#3B3B3B" font-size="15">(</text>
    <text x="507.2" y="1297" fill="#098658" font-size="15">300</text>
    <text x="533.0" y="1297" fill="#3B3B3B" font-size="15">)</text>
    <text x="541.6" y="1297" fill="#3B3B3B" font-size="15">,</text>
    <text x="550.2" y="1297" fill="#3B3B3B" font-size="15"> </text>
    <text x="558.8" y="1297" fill="#001080" font-size="15">resume_on_cancel</text>
    <text x="696.4" y="1297" fill="#000000" font-size="15">=</text>
    <text x="705.0" y="1297" fill="#0000FF" font-size="15">true</text>
    <text x="739.4" y="1297" fill="#3B3B3B" font-size="15">)</text>
    <text x="26" y="1319" fill="#6E7681" font-size="15">59</text>
    <text x="60.0" y="1319" fill="#3B3B3B" font-size="15">      </text>
    <text x="111.6" y="1319" fill="#008000" font-size="15">// even if control flow enters here normally,</text>
    <text x="26" y="1341" fill="#6E7681" font-size="15">60</text>
    <text x="60.0" y="1341" fill="#3B3B3B" font-size="15">      </text>
    <text x="111.6" y="1341" fill="#008000" font-size="15">// current task and the whole group may be in a cancelled state</text>
    <text x="26" y="1363" fill="#6E7681" font-size="15">61</text>
    <text x="60.0" y="1363" fill="#3B3B3B" font-size="15">      </text>
    <text x="111.6" y="1363" fill="#001080" font-size="15">group</text>
    <text x="154.6" y="1363" fill="#3B3B3B" font-size="15">.</text>
    <text x="163.2" y="1363" fill="#795E26" font-size="15">spawn_bg</text>
    <text x="232.0" y="1363" fill="#3B3B3B" font-size="15">(</text>
    <text x="240.6" y="1363" fill="#001080" font-size="15">allow_failure</text>
    <text x="352.4" y="1363" fill="#000000" font-size="15">=</text>
    <text x="361.0" y="1363" fill="#0000FF" font-size="15">true</text>
    <text x="395.4" y="1363" fill="#3B3B3B" font-size="15">)</text>
    <text x="404.0" y="1363" fill="#3B3B3B" font-size="15"> </text>
    <text x="412.6" y="1363" fill="#000000" font-size="15">&lt;|</text>
    <text x="429.8" y="1363" fill="#3B3B3B" font-size="15"> </text>
    <text x="438.4" y="1363" fill="#3B3B3B" font-size="15">(</text>
    <text x="447.0" y="1363" fill="#3B3B3B" font-size="15">)</text>
    <text x="455.6" y="1363" fill="#3B3B3B" font-size="15"> </text>
    <text x="464.2" y="1363" fill="#0000FF" font-size="15">=&gt;</text>
    <text x="481.4" y="1363" fill="#3B3B3B" font-size="15"> </text>
    <text x="490.0" y="1363" fill="#3B3B3B" font-size="15">{</text>
    <text x="26" y="1385" fill="#6E7681" font-size="15">62</text>
    <text x="60.0" y="1385" fill="#3B3B3B" font-size="15">        </text>
    <text x="128.8" y="1385" fill="#001080" font-size="15">log</text>
    <text x="154.6" y="1385" fill="#3B3B3B" font-size="15">.</text>
    <text x="163.2" y="1385" fill="#795E26" font-size="15">push</text>
    <text x="197.6" y="1385" fill="#3B3B3B" font-size="15">(</text>
    <text x="206.2" y="1385" fill="#A31515" font-size="15">&quot;</text>
    <text x="214.8" y="1385" fill="#A31515" font-size="15">enter child task after cancelled</text>
    <text x="490.0" y="1385" fill="#A31515" font-size="15">&quot;</text>
    <text x="498.6" y="1385" fill="#3B3B3B" font-size="15">)</text>
    <text x="26" y="1407" fill="#6E7681" font-size="15">63</text>
    <text x="60.0" y="1407" fill="#3B3B3B" font-size="15">        </text>
    <text x="128.8" y="1407" fill="#267F99" font-size="15">@async</text>
    <text x="180.4" y="1407" fill="#3B3B3B" font-size="15">.</text>
    <text x="189.0" y="1407" fill="#795E26" font-size="15">sleep</text>
    <text x="232.0" y="1407" fill="#3B3B3B" font-size="15">(</text>
    <text x="240.6" y="1407" fill="#098658" font-size="15">100</text>
    <text x="266.4" y="1407" fill="#3B3B3B" font-size="15">)</text>
    <text x="26" y="1429" fill="#6E7681" font-size="15">64</text>
    <text x="60.0" y="1429" fill="#3B3B3B" font-size="15">        </text>
    <text x="128.8" y="1429" fill="#001080" font-size="15">log</text>
    <text x="154.6" y="1429" fill="#3B3B3B" font-size="15">.</text>
    <text x="163.2" y="1429" fill="#795E26" font-size="15">push</text>
    <text x="197.6" y="1429" fill="#3B3B3B" font-size="15">(</text>
    <text x="206.2" y="1429" fill="#A31515" font-size="15">&quot;</text>
    <text x="214.8" y="1429" fill="#A31515" font-size="15">child task completed</text>
    <text x="386.8" y="1429" fill="#A31515" font-size="15">&quot;</text>
    <text x="395.4" y="1429" fill="#3B3B3B" font-size="15">)</text>
    <text x="26" y="1451" fill="#6E7681" font-size="15">65</text>
    <text x="60.0" y="1451" fill="#3B3B3B" font-size="15">      </text>
    <text x="111.6" y="1451" fill="#3B3B3B" font-size="15">}</text>
    <text x="26" y="1473" fill="#6E7681" font-size="15">66</text>
    <text x="60.0" y="1473" fill="#3B3B3B" font-size="15">    </text>
    <text x="94.4" y="1473" fill="#3B3B3B" font-size="15">}</text>
    <text x="26" y="1495" fill="#6E7681" font-size="15">67</text>
    <text x="60.0" y="1495" fill="#3B3B3B" font-size="15">    </text>
    <text x="94.4" y="1495" fill="#267F99" font-size="15">@async</text>
    <text x="146.0" y="1495" fill="#3B3B3B" font-size="15">.</text>
    <text x="154.6" y="1495" fill="#795E26" font-size="15">sleep</text>
    <text x="197.6" y="1495" fill="#3B3B3B" font-size="15">(</text>
    <text x="206.2" y="1495" fill="#098658" font-size="15">150</text>
    <text x="232.0" y="1495" fill="#3B3B3B" font-size="15">)</text>
    <text x="26" y="1517" fill="#6E7681" font-size="15">68</text>
    <text x="60.0" y="1517" fill="#3B3B3B" font-size="15">    </text>
    <text x="94.4" y="1517" fill="#AF00DB" font-size="15">raise</text>
    <text x="137.4" y="1517" fill="#3B3B3B" font-size="15"> </text>
    <text x="146.0" y="1517" fill="#267F99" font-size="15">Failure</text>
    <text x="206.2" y="1517" fill="#3B3B3B" font-size="15">:</text>
    <text x="214.8" y="1517" fill="#3B3B3B" font-size="15">:</text>
    <text x="223.4" y="1517" fill="#267F99" font-size="15">Failure</text>
    <text x="283.6" y="1517" fill="#3B3B3B" font-size="15">(</text>
    <text x="292.2" y="1517" fill="#A31515" font-size="15">&quot;</text>
    <text x="300.8" y="1517" fill="#A31515" font-size="15">failure</text>
    <text x="361.0" y="1517" fill="#A31515" font-size="15">&quot;</text>
    <text x="369.6" y="1517" fill="#3B3B3B" font-size="15">)</text>
    <text x="26" y="1539" fill="#6E7681" font-size="15">69</text>
    <text x="60.0" y="1539" fill="#3B3B3B" font-size="15">  </text>
    <text x="77.2" y="1539" fill="#3B3B3B" font-size="15">}</text>
    <text x="85.8" y="1539" fill="#3B3B3B" font-size="15">)</text>
    <text x="26" y="1561" fill="#6E7681" font-size="15">70</text>
    <text x="60.0" y="1561" fill="#3B3B3B" font-size="15">  </text>
    <text x="77.2" y="1561" fill="#795E26" font-size="15">json_inspect</text>
    <text x="180.4" y="1561" fill="#3B3B3B" font-size="15">(</text>
    <text x="189.0" y="1561" fill="#001080" font-size="15">log</text>
    <text x="214.8" y="1561" fill="#3B3B3B" font-size="15">,</text>
    <text x="223.4" y="1561" fill="#3B3B3B" font-size="15"> </text>
    <text x="232.0" y="1561" fill="#001080" font-size="15">content</text>
    <text x="292.2" y="1561" fill="#000000" font-size="15">=</text>
    <text x="300.8" y="1561" fill="#3B3B3B" font-size="15">[</text>
    <text x="309.4" y="1561" fill="#A31515" font-size="15">&quot;</text>
    <text x="318.0" y="1561" fill="#A31515" font-size="15">enter child task after cancelled</text>
    <text x="593.2" y="1561" fill="#A31515" font-size="15">&quot;</text>
    <text x="601.8" y="1561" fill="#3B3B3B" font-size="15">]</text>
    <text x="610.4" y="1561" fill="#3B3B3B" font-size="15">)</text>
    <text x="26" y="1583" fill="#6E7681" font-size="15">71</text>
    <text x="60.0" y="1583" fill="#3B3B3B" font-size="15">}</text>
  </g>
</svg>
