<svg xmlns="http://www.w3.org/2000/svg" width="757" height="672" viewBox="0 0 757 672">
  <rect width="100%" height="100%" rx="8" fill="#FFFFFF"/>
  <g font-family="SFMono-Regular, Menlo, Monaco, Consolas, 'Liberation Mono', monospace" xml:space="preserve">
    <text x="26" y="43" fill="#6E7681" font-size="15"> 1</text>
    <text x="60.0" y="43" fill="#008000" font-size="15">// Source: moonbitlang/async src/task.mbt</text>
    <text x="26" y="65" fill="#6E7681" font-size="15"> 2</text>
    <text x="60.0" y="65" fill="#008000" font-size="15">///|</text>
    <text x="26" y="87" fill="#6E7681" font-size="15"> 3</text>
    <text x="60.0" y="87" fill="#008000" font-size="15">/// `Task[X]` represents a running task with result type `X`,</text>
    <text x="26" y="109" fill="#6E7681" font-size="15"> 4</text>
    <text x="60.0" y="109" fill="#008000" font-size="15">/// it can be used to wait and retrieve the result value of the task.</text>
    <text x="26" y="131" fill="#6E7681" font-size="15"> 5</text>
    <text x="60.0" y="131" fill="#0000FF" font-size="15">struct</text>
    <text x="111.6" y="131" fill="#3B3B3B" font-size="15"> </text>
    <text x="120.2" y="131" fill="#267F99" font-size="15">Task</text>
    <text x="154.6" y="131" fill="#3B3B3B" font-size="15">[</text>
    <text x="163.2" y="131" fill="#267F99" font-size="15">X</text>
    <text x="171.8" y="131" fill="#3B3B3B" font-size="15">]</text>
    <text x="180.4" y="131" fill="#3B3B3B" font-size="15"> </text>
    <text x="189.0" y="131" fill="#3B3B3B" font-size="15">{</text>
    <text x="26" y="153" fill="#6E7681" font-size="15"> 6</text>
    <text x="60.0" y="153" fill="#3B3B3B" font-size="15">  </text>
    <text x="77.2" y="153" fill="#001080" font-size="15">value</text>
    <text x="120.2" y="153" fill="#3B3B3B" font-size="15"> </text>
    <text x="128.8" y="153" fill="#3B3B3B" font-size="15">:</text>
    <text x="137.4" y="153" fill="#3B3B3B" font-size="15"> </text>
    <text x="146.0" y="153" fill="#267F99" font-size="15">Ref</text>
    <text x="171.8" y="153" fill="#3B3B3B" font-size="15">[</text>
    <text x="180.4" y="153" fill="#267F99" font-size="15">X?</text>
    <text x="197.6" y="153" fill="#3B3B3B" font-size="15">]</text>
    <text x="26" y="175" fill="#6E7681" font-size="15"> 7</text>
    <text x="60.0" y="175" fill="#3B3B3B" font-size="15">  </text>
    <text x="77.2" y="175" fill="#001080" font-size="15">coro</text>
    <text x="111.6" y="175" fill="#3B3B3B" font-size="15"> </text>
    <text x="120.2" y="175" fill="#3B3B3B" font-size="15">:</text>
    <text x="128.8" y="175" fill="#3B3B3B" font-size="15"> </text>
    <text x="137.4" y="175" fill="#267F99" font-size="15">@coroutine</text>
    <text x="223.4" y="175" fill="#3B3B3B" font-size="15">.</text>
    <text x="232.0" y="175" fill="#267F99" font-size="15">Coroutine</text>
    <text x="26" y="197" fill="#6E7681" font-size="15"> 8</text>
    <text x="60.0" y="197" fill="#3B3B3B" font-size="15">}</text>
    <text x="26" y="219" fill="#6E7681" font-size="15"> 9</text>
    <text x="26" y="241" fill="#6E7681" font-size="15">10</text>
    <text x="60.0" y="241" fill="#008000" font-size="15">///|</text>
    <text x="26" y="263" fill="#6E7681" font-size="15">11</text>
    <text x="60.0" y="263" fill="#008000" font-size="15">/// Wait for a task and retrieve its result value.</text>
    <text x="26" y="285" fill="#6E7681" font-size="15">12</text>
    <text x="60.0" y="285" fill="#0000FF" font-size="15">pub</text>
    <text x="85.8" y="285" fill="#3B3B3B" font-size="15"> </text>
    <text x="94.4" y="285" fill="#0000FF" font-size="15">async</text>
    <text x="137.4" y="285" fill="#3B3B3B" font-size="15"> </text>
    <text x="146.0" y="285" fill="#0000FF" font-size="15">fn</text>
    <text x="163.2" y="285" fill="#3B3B3B" font-size="15">[</text>
    <text x="171.8" y="285" fill="#267F99" font-size="15">X</text>
    <text x="180.4" y="285" fill="#3B3B3B" font-size="15">]</text>
    <text x="189.0" y="285" fill="#3B3B3B" font-size="15"> </text>
    <text x="197.6" y="285" fill="#267F99" font-size="15">Task</text>
    <text x="232.0" y="285" fill="#3B3B3B" font-size="15">:</text>
    <text x="240.6" y="285" fill="#3B3B3B" font-size="15">:</text>
    <text x="249.2" y="285" fill="#795E26" font-size="15">wait</text>
    <text x="283.6" y="285" fill="#3B3B3B" font-size="15">(</text>
    <text x="292.2" y="285" fill="#001080" font-size="15">self</text>
    <text x="326.6" y="285" fill="#3B3B3B" font-size="15"> </text>
    <text x="335.2" y="285" fill="#3B3B3B" font-size="15">:</text>
    <text x="343.8" y="285" fill="#3B3B3B" font-size="15"> </text>
    <text x="352.4" y="285" fill="#267F99" font-size="15">Task</text>
    <text x="386.8" y="285" fill="#3B3B3B" font-size="15">[</text>
    <text x="395.4" y="285" fill="#267F99" font-size="15">X</text>
    <text x="404.0" y="285" fill="#3B3B3B" font-size="15">]</text>
    <text x="412.6" y="285" fill="#3B3B3B" font-size="15">)</text>
    <text x="421.2" y="285" fill="#3B3B3B" font-size="15"> </text>
    <text x="429.8" y="285" fill="#0000FF" font-size="15">-&gt;</text>
    <text x="447.0" y="285" fill="#3B3B3B" font-size="15"> </text>
    <text x="455.6" y="285" fill="#267F99" font-size="15">X</text>
    <text x="464.2" y="285" fill="#3B3B3B" font-size="15"> </text>
    <text x="472.8" y="285" fill="#3B3B3B" font-size="15">{</text>
    <text x="26" y="307" fill="#6E7681" font-size="15">13</text>
    <text x="60.0" y="307" fill="#3B3B3B" font-size="15">  </text>
    <text x="77.2" y="307" fill="#001080" font-size="15">self</text>
    <text x="111.6" y="307" fill="#3B3B3B" font-size="15">.</text>
    <text x="120.2" y="307" fill="#001080" font-size="15">coro</text>
    <text x="154.6" y="307" fill="#3B3B3B" font-size="15">.</text>
    <text x="163.2" y="307" fill="#795E26" font-size="15">wait</text>
    <text x="197.6" y="307" fill="#3B3B3B" font-size="15">(</text>
    <text x="206.2" y="307" fill="#3B3B3B" font-size="15">)</text>
    <text x="26" y="329" fill="#6E7681" font-size="15">14</text>
    <text x="60.0" y="329" fill="#3B3B3B" font-size="15">  </text>
    <text x="77.2" y="329" fill="#001080" font-size="15">self</text>
    <text x="111.6" y="329" fill="#3B3B3B" font-size="15">.</text>
    <text x="120.2" y="329" fill="#001080" font-size="15">value</text>
    <text x="163.2" y="329" fill="#3B3B3B" font-size="15">.</text>
    <text x="171.8" y="329" fill="#001080" font-size="15">val</text>
    <text x="197.6" y="329" fill="#3B3B3B" font-size="15">.</text>
    <text x="206.2" y="329" fill="#795E26" font-size="15">unwrap</text>
    <text x="257.8" y="329" fill="#3B3B3B" font-size="15">(</text>
    <text x="266.4" y="329" fill="#3B3B3B" font-size="15">)</text>
    <text x="26" y="351" fill="#6E7681" font-size="15">15</text>
    <text x="60.0" y="351" fill="#3B3B3B" font-size="15">}</text>
    <text x="26" y="373" fill="#6E7681" font-size="15">16</text>
    <text x="26" y="395" fill="#6E7681" font-size="15">17</text>
    <text x="60.0" y="395" fill="#008000" font-size="15">///|</text>
    <text x="26" y="417" fill="#6E7681" font-size="15">18</text>
    <text x="60.0" y="417" fill="#008000" font-size="15">/// Try to obtain the result of the task.</text>
    <text x="26" y="439" fill="#6E7681" font-size="15">19</text>
    <text x="60.0" y="439" fill="#0000FF" font-size="15">pub</text>
    <text x="85.8" y="439" fill="#3B3B3B" font-size="15"> </text>
    <text x="94.4" y="439" fill="#0000FF" font-size="15">fn</text>
    <text x="111.6" y="439" fill="#3B3B3B" font-size="15">[</text>
    <text x="120.2" y="439" fill="#267F99" font-size="15">X</text>
    <text x="128.8" y="439" fill="#3B3B3B" font-size="15">]</text>
    <text x="137.4" y="439" fill="#3B3B3B" font-size="15"> </text>
    <text x="146.0" y="439" fill="#267F99" font-size="15">Task</text>
    <text x="180.4" y="439" fill="#3B3B3B" font-size="15">:</text>
    <text x="189.0" y="439" fill="#3B3B3B" font-size="15">:</text>
    <text x="197.6" y="439" fill="#795E26" font-size="15">try_wait</text>
    <text x="266.4" y="439" fill="#3B3B3B" font-size="15">(</text>
    <text x="275.0" y="439" fill="#001080" font-size="15">self</text>
    <text x="309.4" y="439" fill="#3B3B3B" font-size="15"> </text>
    <text x="318.0" y="439" fill="#3B3B3B" font-size="15">:</text>
    <text x="326.6" y="439" fill="#3B3B3B" font-size="15"> </text>
    <text x="335.2" y="439" fill="#267F99" font-size="15">Task</text>
    <text x="369.6" y="439" fill="#3B3B3B" font-size="15">[</text>
    <text x="378.2" y="439" fill="#267F99" font-size="15">X</text>
    <text x="386.8" y="439" fill="#3B3B3B" font-size="15">]</text>
    <text x="395.4" y="439" fill="#3B3B3B" font-size="15">)</text>
    <text x="404.0" y="439" fill="#3B3B3B" font-size="15"> </text>
    <text x="412.6" y="439" fill="#0000FF" font-size="15">-&gt;</text>
    <text x="429.8" y="439" fill="#3B3B3B" font-size="15"> </text>
    <text x="438.4" y="439" fill="#267F99" font-size="15">X?</text>
    <text x="455.6" y="439" fill="#3B3B3B" font-size="15"> </text>
    <text x="464.2" y="439" fill="#AF00DB" font-size="15">raise</text>
    <text x="507.2" y="439" fill="#3B3B3B" font-size="15"> </text>
    <text x="515.8" y="439" fill="#3B3B3B" font-size="15">{</text>
    <text x="26" y="461" fill="#6E7681" font-size="15">20</text>
    <text x="60.0" y="461" fill="#3B3B3B" font-size="15">  </text>
    <text x="77.2" y="461" fill="#001080" font-size="15">self</text>
    <text x="111.6" y="461" fill="#3B3B3B" font-size="15">.</text>
    <text x="120.2" y="461" fill="#001080" font-size="15">coro</text>
    <text x="154.6" y="461" fill="#3B3B3B" font-size="15">.</text>
    <text x="163.2" y="461" fill="#795E26" font-size="15">check_error</text>
    <text x="257.8" y="461" fill="#3B3B3B" font-size="15">(</text>
    <text x="266.4" y="461" fill="#3B3B3B" font-size="15">)</text>
    <text x="26" y="483" fill="#6E7681" font-size="15">21</text>
    <text x="60.0" y="483" fill="#3B3B3B" font-size="15">  </text>
    <text x="77.2" y="483" fill="#001080" font-size="15">self</text>
    <text x="111.6" y="483" fill="#3B3B3B" font-size="15">.</text>
    <text x="120.2" y="483" fill="#001080" font-size="15">value</text>
    <text x="163.2" y="483" fill="#3B3B3B" font-size="15">.</text>
    <text x="171.8" y="483" fill="#001080" font-size="15">val</text>
    <text x="26" y="505" fill="#6E7681" font-size="15">22</text>
    <text x="60.0" y="505" fill="#3B3B3B" font-size="15">}</text>
    <text x="26" y="527" fill="#6E7681" font-size="15">23</text>
    <text x="26" y="549" fill="#6E7681" font-size="15">24</text>
    <text x="60.0" y="549" fill="#008000" font-size="15">///|</text>
    <text x="26" y="571" fill="#6E7681" font-size="15">25</text>
    <text x="60.0" y="571" fill="#008000" font-size="15">/// Cancel a task. Subsequent attempt to wait for the task will receive error.</text>
    <text x="26" y="593" fill="#6E7681" font-size="15">26</text>
    <text x="60.0" y="593" fill="#0000FF" font-size="15">pub</text>
    <text x="85.8" y="593" fill="#3B3B3B" font-size="15"> </text>
    <text x="94.4" y="593" fill="#0000FF" font-size="15">fn</text>
    <text x="111.6" y="593" fill="#3B3B3B" font-size="15">[</text>
    <text x="120.2" y="593" fill="#267F99" font-size="15">X</text>
    <text x="128.8" y="593" fill="#3B3B3B" font-size="15">]</text>
    <text x="137.4" y="593" fill="#3B3B3B" font-size="15"> </text>
    <text x="146.0" y="593" fill="#267F99" font-size="15">Task</text>
    <text x="180.4" y="593" fill="#3B3B3B" font-size="15">:</text>
    <text x="189.0" y="593" fill="#3B3B3B" font-size="15">:</text>
    <text x="197.6" y="593" fill="#795E26" font-size="15">cancel</text>
    <text x="249.2" y="593" fill="#3B3B3B" font-size="15">(</text>
    <text x="257.8" y="593" fill="#001080" font-size="15">self</text>
    <text x="292.2" y="593" fill="#3B3B3B" font-size="15"> </text>
    <text x="300.8" y="593" fill="#3B3B3B" font-size="15">:</text>
    <text x="309.4" y="593" fill="#3B3B3B" font-size="15"> </text>
    <text x="318.0" y="593" fill="#267F99" font-size="15">Task</text>
    <text x="352.4" y="593" fill="#3B3B3B" font-size="15">[</text>
    <text x="361.0" y="593" fill="#267F99" font-size="15">X</text>
    <text x="369.6" y="593" fill="#3B3B3B" font-size="15">]</text>
    <text x="378.2" y="593" fill="#3B3B3B" font-size="15">)</text>
    <text x="386.8" y="593" fill="#3B3B3B" font-size="15"> </text>
    <text x="395.4" y="593" fill="#0000FF" font-size="15">-&gt;</text>
    <text x="412.6" y="593" fill="#3B3B3B" font-size="15"> </text>
    <text x="421.2" y="593" fill="#267F99" font-size="15">Unit</text>
    <text x="455.6" y="593" fill="#3B3B3B" font-size="15"> </text>
    <text x="464.2" y="593" fill="#3B3B3B" font-size="15">{</text>
    <text x="26" y="615" fill="#6E7681" font-size="15">27</text>
    <text x="60.0" y="615" fill="#3B3B3B" font-size="15">  </text>
    <text x="77.2" y="615" fill="#001080" font-size="15">self</text>
    <text x="111.6" y="615" fill="#3B3B3B" font-size="15">.</text>
    <text x="120.2" y="615" fill="#001080" font-size="15">coro</text>
    <text x="154.6" y="615" fill="#3B3B3B" font-size="15">.</text>
    <text x="163.2" y="615" fill="#795E26" font-size="15">cancel</text>
    <text x="214.8" y="615" fill="#3B3B3B" font-size="15">(</text>
    <text x="223.4" y="615" fill="#3B3B3B" font-size="15">)</text>
    <text x="26" y="637" fill="#6E7681" font-size="15">28</text>
    <text x="60.0" y="637" fill="#3B3B3B" font-size="15">}</text>
  </g>
</svg>
