<svg xmlns="http://www.w3.org/2000/svg" width="568" height="452" viewBox="0 0 568 452">
  <rect width="100%" height="100%" rx="8" fill="#FFFFFF"/>
  <g font-family="SFMono-Regular, Menlo, Monaco, Consolas, 'Liberation Mono', monospace" xml:space="preserve">
    <text x="26" y="43" fill="#6E7681" font-size="15"> 1</text>
    <text x="60.0" y="43" fill="#008000" font-size="15">// Source: moonbitlang/async examples/cat/main.mbt</text>
    <text x="26" y="65" fill="#6E7681" font-size="15"> 2</text>
    <text x="60.0" y="65" fill="#008000" font-size="15">///|</text>
    <text x="26" y="87" fill="#6E7681" font-size="15"> 3</text>
    <text x="60.0" y="87" fill="#0000FF" font-size="15">async</text>
    <text x="103.0" y="87" fill="#3B3B3B" font-size="15"> </text>
    <text x="111.6" y="87" fill="#0000FF" font-size="15">fn</text>
    <text x="128.8" y="87" fill="#3B3B3B" font-size="15"> </text>
    <text x="137.4" y="87" fill="#795E26" font-size="15">main</text>
    <text x="171.8" y="87" fill="#3B3B3B" font-size="15"> </text>
    <text x="180.4" y="87" fill="#3B3B3B" font-size="15">{</text>
    <text x="26" y="109" fill="#6E7681" font-size="15"> 4</text>
    <text x="60.0" y="109" fill="#3B3B3B" font-size="15">  </text>
    <text x="77.2" y="109" fill="#0000FF" font-size="15">let</text>
    <text x="103.0" y="109" fill="#3B3B3B" font-size="15"> </text>
    <text x="111.6" y="109" fill="#001080" font-size="15">args</text>
    <text x="146.0" y="109" fill="#3B3B3B" font-size="15"> </text>
    <text x="154.6" y="109" fill="#000000" font-size="15">=</text>
    <text x="163.2" y="109" fill="#3B3B3B" font-size="15"> </text>
    <text x="171.8" y="109" fill="#267F99" font-size="15">@env</text>
    <text x="206.2" y="109" fill="#3B3B3B" font-size="15">.</text>
    <text x="214.8" y="109" fill="#795E26" font-size="15">args</text>
    <text x="249.2" y="109" fill="#3B3B3B" font-size="15">(</text>
    <text x="257.8" y="109" fill="#3B3B3B" font-size="15">)</text>
    <text x="26" y="131" fill="#6E7681" font-size="15"> 5</text>
    <text x="60.0" y="131" fill="#3B3B3B" font-size="15">  </text>
    <text x="77.2" y="131" fill="#AF00DB" font-size="15">match</text>
    <text x="120.2" y="131" fill="#3B3B3B" font-size="15"> </text>
    <text x="128.8" y="131" fill="#001080" font-size="15">args</text>
    <text x="163.2" y="131" fill="#3B3B3B" font-size="15"> </text>
    <text x="171.8" y="131" fill="#3B3B3B" font-size="15">{</text>
    <text x="26" y="153" fill="#6E7681" font-size="15"> 6</text>
    <text x="60.0" y="153" fill="#3B3B3B" font-size="15">    </text>
    <text x="94.4" y="153" fill="#3B3B3B" font-size="15">[</text>
    <text x="103.0" y="153" fill="#3B3B3B" font-size="15">]</text>
    <text x="111.6" y="153" fill="#3B3B3B" font-size="15"> </text>
    <text x="120.2" y="153" fill="#000000" font-size="15">|</text>
    <text x="128.8" y="153" fill="#3B3B3B" font-size="15"> </text>
    <text x="137.4" y="153" fill="#3B3B3B" font-size="15">[</text>
    <text x="146.0" y="153" fill="#0000FF" font-size="15">_</text>
    <text x="154.6" y="153" fill="#3B3B3B" font-size="15">]</text>
    <text x="163.2" y="153" fill="#3B3B3B" font-size="15"> </text>
    <text x="171.8" y="153" fill="#0000FF" font-size="15">=&gt;</text>
    <text x="189.0" y="153" fill="#3B3B3B" font-size="15"> </text>
    <text x="197.6" y="153" fill="#267F99" font-size="15">@stdio</text>
    <text x="249.2" y="153" fill="#3B3B3B" font-size="15">.</text>
    <text x="257.8" y="153" fill="#001080" font-size="15">stdout</text>
    <text x="309.4" y="153" fill="#3B3B3B" font-size="15">.</text>
    <text x="318.0" y="153" fill="#795E26" font-size="15">write_reader</text>
    <text x="421.2" y="153" fill="#3B3B3B" font-size="15">(</text>
    <text x="429.8" y="153" fill="#267F99" font-size="15">@stdio</text>
    <text x="481.4" y="153" fill="#3B3B3B" font-size="15">.</text>
    <text x="490.0" y="153" fill="#001080" font-size="15">stdin</text>
    <text x="533.0" y="153" fill="#3B3B3B" font-size="15">)</text>
    <text x="26" y="175" fill="#6E7681" font-size="15"> 7</text>
    <text x="60.0" y="175" fill="#3B3B3B" font-size="15">    </text>
    <text x="94.4" y="175" fill="#3B3B3B" font-size="15">[</text>
    <text x="103.0" y="175" fill="#0000FF" font-size="15">_</text>
    <text x="111.6" y="175" fill="#3B3B3B" font-size="15">,</text>
    <text x="120.2" y="175" fill="#3B3B3B" font-size="15"> </text>
    <text x="128.8" y="175" fill="#000000" font-size="15">..</text>
    <text x="146.0" y="175" fill="#3B3B3B" font-size="15"> </text>
    <text x="154.6" y="175" fill="#001080" font-size="15">files</text>
    <text x="197.6" y="175" fill="#3B3B3B" font-size="15">]</text>
    <text x="206.2" y="175" fill="#3B3B3B" font-size="15"> </text>
    <text x="214.8" y="175" fill="#0000FF" font-size="15">=&gt;</text>
    <text x="26" y="197" fill="#6E7681" font-size="15"> 8</text>
    <text x="60.0" y="197" fill="#3B3B3B" font-size="15">      </text>
    <text x="111.6" y="197" fill="#AF00DB" font-size="15">for</text>
    <text x="137.4" y="197" fill="#3B3B3B" font-size="15"> </text>
    <text x="146.0" y="197" fill="#001080" font-size="15">file</text>
    <text x="180.4" y="197" fill="#3B3B3B" font-size="15"> </text>
    <text x="189.0" y="197" fill="#AF00DB" font-size="15">in</text>
    <text x="206.2" y="197" fill="#3B3B3B" font-size="15"> </text>
    <text x="214.8" y="197" fill="#001080" font-size="15">files</text>
    <text x="257.8" y="197" fill="#3B3B3B" font-size="15"> </text>
    <text x="266.4" y="197" fill="#3B3B3B" font-size="15">{</text>
    <text x="26" y="219" fill="#6E7681" font-size="15"> 9</text>
    <text x="60.0" y="219" fill="#3B3B3B" font-size="15">        </text>
    <text x="128.8" y="219" fill="#AF00DB" font-size="15">if</text>
    <text x="146.0" y="219" fill="#3B3B3B" font-size="15"> </text>
    <text x="154.6" y="219" fill="#001080" font-size="15">file</text>
    <text x="189.0" y="219" fill="#3B3B3B" font-size="15"> </text>
    <text x="197.6" y="219" fill="#000000" font-size="15">==</text>
    <text x="214.8" y="219" fill="#3B3B3B" font-size="15"> </text>
    <text x="223.4" y="219" fill="#A31515" font-size="15">&quot;</text>
    <text x="232.0" y="219" fill="#A31515" font-size="15">-</text>
    <text x="240.6" y="219" fill="#A31515" font-size="15">&quot;</text>
    <text x="249.2" y="219" fill="#3B3B3B" font-size="15"> </text>
    <text x="257.8" y="219" fill="#3B3B3B" font-size="15">{</text>
    <text x="26" y="241" fill="#6E7681" font-size="15">10</text>
    <text x="60.0" y="241" fill="#3B3B3B" font-size="15">          </text>
    <text x="146.0" y="241" fill="#267F99" font-size="15">@stdio</text>
    <text x="197.6" y="241" fill="#3B3B3B" font-size="15">.</text>
    <text x="206.2" y="241" fill="#001080" font-size="15">stdout</text>
    <text x="257.8" y="241" fill="#3B3B3B" font-size="15">.</text>
    <text x="266.4" y="241" fill="#795E26" font-size="15">write_reader</text>
    <text x="369.6" y="241" fill="#3B3B3B" font-size="15">(</text>
    <text x="378.2" y="241" fill="#267F99" font-size="15">@stdio</text>
    <text x="429.8" y="241" fill="#3B3B3B" font-size="15">.</text>
    <text x="438.4" y="241" fill="#001080" font-size="15">stdin</text>
    <text x="481.4" y="241" fill="#3B3B3B" font-size="15">)</text>
    <text x="26" y="263" fill="#6E7681" font-size="15">11</text>
    <text x="60.0" y="263" fill="#3B3B3B" font-size="15">        </text>
    <text x="128.8" y="263" fill="#3B3B3B" font-size="15">}</text>
    <text x="137.4" y="263" fill="#3B3B3B" font-size="15"> </text>
    <text x="146.0" y="263" fill="#AF00DB" font-size="15">else</text>
    <text x="180.4" y="263" fill="#3B3B3B" font-size="15"> </text>
    <text x="189.0" y="263" fill="#3B3B3B" font-size="15">{</text>
    <text x="26" y="285" fill="#6E7681" font-size="15">12</text>
    <text x="60.0" y="285" fill="#3B3B3B" font-size="15">          </text>
    <text x="146.0" y="285" fill="#0000FF" font-size="15">let</text>
    <text x="171.8" y="285" fill="#3B3B3B" font-size="15"> </text>
    <text x="180.4" y="285" fill="#001080" font-size="15">file</text>
    <text x="214.8" y="285" fill="#3B3B3B" font-size="15"> </text>
    <text x="223.4" y="285" fill="#000000" font-size="15">=</text>
    <text x="232.0" y="285" fill="#3B3B3B" font-size="15"> </text>
    <text x="240.6" y="285" fill="#267F99" font-size="15">@fs</text>
    <text x="266.4" y="285" fill="#3B3B3B" font-size="15">.</text>
    <text x="275.0" y="285" fill="#795E26" font-size="15">open</text>
    <text x="309.4" y="285" fill="#3B3B3B" font-size="15">(</text>
    <text x="318.0" y="285" fill="#001080" font-size="15">file</text>
    <text x="352.4" y="285" fill="#3B3B3B" font-size="15">,</text>
    <text x="361.0" y="285" fill="#3B3B3B" font-size="15"> </text>
    <text x="369.6" y="285" fill="#001080" font-size="15">mode</text>
    <text x="404.0" y="285" fill="#000000" font-size="15">=</text>
    <text x="412.6" y="285" fill="#267F99" font-size="15">ReadOnly</text>
    <text x="481.4" y="285" fill="#3B3B3B" font-size="15">)</text>
    <text x="26" y="307" fill="#6E7681" font-size="15">13</text>
    <text x="60.0" y="307" fill="#3B3B3B" font-size="15">          </text>
    <text x="146.0" y="307" fill="#AF00DB" font-size="15">defer</text>
    <text x="189.0" y="307" fill="#3B3B3B" font-size="15"> </text>
    <text x="197.6" y="307" fill="#001080" font-size="15">file</text>
    <text x="232.0" y="307" fill="#3B3B3B" font-size="15">.</text>
    <text x="240.6" y="307" fill="#795E26" font-size="15">close</text>
    <text x="283.6" y="307" fill="#3B3B3B" font-size="15">(</text>
    <text x="292.2" y="307" fill="#3B3B3B" font-size="15">)</text>
    <text x="26" y="329" fill="#6E7681" font-size="15">14</text>
    <text x="60.0" y="329" fill="#3B3B3B" font-size="15">          </text>
    <text x="146.0" y="329" fill="#267F99" font-size="15">@stdio</text>
    <text x="197.6" y="329" fill="#3B3B3B" font-size="15">.</text>
    <text x="206.2" y="329" fill="#001080" font-size="15">stdout</text>
    <text x="257.8" y="329" fill="#3B3B3B" font-size="15">.</text>
    <text x="266.4" y="329" fill="#795E26" font-size="15">write_reader</text>
    <text x="369.6" y="329" fill="#3B3B3B" font-size="15">(</text>
    <text x="378.2" y="329" fill="#001080" font-size="15">file</text>
    <text x="412.6" y="329" fill="#3B3B3B" font-size="15">)</text>
    <text x="26" y="351" fill="#6E7681" font-size="15">15</text>
    <text x="60.0" y="351" fill="#3B3B3B" font-size="15">        </text>
    <text x="128.8" y="351" fill="#3B3B3B" font-size="15">}</text>
    <text x="26" y="373" fill="#6E7681" font-size="15">16</text>
    <text x="60.0" y="373" fill="#3B3B3B" font-size="15">      </text>
    <text x="111.6" y="373" fill="#3B3B3B" font-size="15">}</text>
    <text x="26" y="395" fill="#6E7681" font-size="15">17</text>
    <text x="60.0" y="395" fill="#3B3B3B" font-size="15">  </text>
    <text x="77.2" y="395" fill="#3B3B3B" font-size="15">}</text>
    <text x="26" y="417" fill="#6E7681" font-size="15">18</text>
    <text x="60.0" y="417" fill="#3B3B3B" font-size="15">}</text>
  </g>
</svg>
