<svg xmlns="http://www.w3.org/2000/svg" width="577" height="254" viewBox="0 0 577 254">
  <rect width="100%" height="100%" rx="8" fill="#FFFFFF"/>
  <g font-family="SFMono-Regular, Menlo, Monaco, Consolas, 'Liberation Mono', monospace" xml:space="preserve">
    <text x="26" y="43" fill="#6E7681" font-size="15"> 1</text>
    <text x="60.0" y="43" fill="#0000FF" font-size="15">fn</text>
    <text x="77.2" y="43" fill="#3B3B3B" font-size="15"> </text>
    <text x="85.8" y="43" fill="#795E26" font-size="15">async_run</text>
    <text x="163.2" y="43" fill="#3B3B3B" font-size="15">(</text>
    <text x="171.8" y="43" fill="#795E26" font-size="15">f</text>
    <text x="180.4" y="43" fill="#3B3B3B" font-size="15"> </text>
    <text x="189.0" y="43" fill="#3B3B3B" font-size="15">:</text>
    <text x="197.6" y="43" fill="#3B3B3B" font-size="15"> </text>
    <text x="206.2" y="43" fill="#0000FF" font-size="15">async</text>
    <text x="249.2" y="43" fill="#3B3B3B" font-size="15"> </text>
    <text x="257.8" y="43" fill="#3B3B3B" font-size="15">(</text>
    <text x="266.4" y="43" fill="#3B3B3B" font-size="15">)</text>
    <text x="275.0" y="43" fill="#3B3B3B" font-size="15"> </text>
    <text x="283.6" y="43" fill="#0000FF" font-size="15">-&gt;</text>
    <text x="300.8" y="43" fill="#3B3B3B" font-size="15"> </text>
    <text x="309.4" y="43" fill="#267F99" font-size="15">Unit</text>
    <text x="343.8" y="43" fill="#3B3B3B" font-size="15">)</text>
    <text x="352.4" y="43" fill="#3B3B3B" font-size="15"> </text>
    <text x="361.0" y="43" fill="#0000FF" font-size="15">-&gt;</text>
    <text x="378.2" y="43" fill="#3B3B3B" font-size="15"> </text>
    <text x="386.8" y="43" fill="#267F99" font-size="15">Unit</text>
    <text x="421.2" y="43" fill="#3B3B3B" font-size="15"> </text>
    <text x="429.8" y="43" fill="#000000" font-size="15">=</text>
    <text x="438.4" y="43" fill="#3B3B3B" font-size="15"> </text>
    <text x="447.0" y="43" fill="#A31515" font-size="15">&quot;</text>
    <text x="455.6" y="43" fill="#A31515" font-size="15">%async.run</text>
    <text x="541.6" y="43" fill="#A31515" font-size="15">&quot;</text>
    <text x="26" y="65" fill="#6E7681" font-size="15"> 2</text>
    <text x="26" y="87" fill="#6E7681" font-size="15"> 3</text>
    <text x="60.0" y="87" fill="#0000FF" font-size="15">async</text>
    <text x="103.0" y="87" fill="#3B3B3B" font-size="15"> </text>
    <text x="111.6" y="87" fill="#0000FF" font-size="15">fn</text>
    <text x="128.8" y="87" fill="#3B3B3B" font-size="15"> </text>
    <text x="137.4" y="87" fill="#795E26" font-size="15">async_suspend</text>
    <text x="249.2" y="87" fill="#3B3B3B" font-size="15">[</text>
    <text x="257.8" y="87" fill="#267F99" font-size="15">T</text>
    <text x="266.4" y="87" fill="#3B3B3B" font-size="15">,</text>
    <text x="275.0" y="87" fill="#3B3B3B" font-size="15"> </text>
    <text x="283.6" y="87" fill="#267F99" font-size="15">E</text>
    <text x="292.2" y="87" fill="#3B3B3B" font-size="15"> </text>
    <text x="300.8" y="87" fill="#3B3B3B" font-size="15">:</text>
    <text x="309.4" y="87" fill="#3B3B3B" font-size="15"> </text>
    <text x="318.0" y="87" fill="#267F99" font-size="15">Error</text>
    <text x="361.0" y="87" fill="#3B3B3B" font-size="15">]</text>
    <text x="369.6" y="87" fill="#3B3B3B" font-size="15">(</text>
    <text x="26" y="109" fill="#6E7681" font-size="15"> 4</text>
    <text x="60.0" y="109" fill="#3B3B3B" font-size="15">  </text>
    <text x="77.2" y="109" fill="#795E26" font-size="15">f</text>
    <text x="85.8" y="109" fill="#3B3B3B" font-size="15"> </text>
    <text x="94.4" y="109" fill="#3B3B3B" font-size="15">:</text>
    <text x="103.0" y="109" fill="#3B3B3B" font-size="15"> </text>
    <text x="111.6" y="109" fill="#3B3B3B" font-size="15">(</text>
    <text x="120.2" y="109" fill="#3B3B3B" font-size="15">(</text>
    <text x="128.8" y="109" fill="#267F99" font-size="15">T</text>
    <text x="137.4" y="109" fill="#3B3B3B" font-size="15">)</text>
    <text x="146.0" y="109" fill="#3B3B3B" font-size="15"> </text>
    <text x="154.6" y="109" fill="#0000FF" font-size="15">-&gt;</text>
    <text x="171.8" y="109" fill="#3B3B3B" font-size="15"> </text>
    <text x="180.4" y="109" fill="#267F99" font-size="15">Unit</text>
    <text x="214.8" y="109" fill="#3B3B3B" font-size="15">,</text>
    <text x="223.4" y="109" fill="#3B3B3B" font-size="15"> </text>
    <text x="232.0" y="109" fill="#3B3B3B" font-size="15">(</text>
    <text x="240.6" y="109" fill="#267F99" font-size="15">E</text>
    <text x="249.2" y="109" fill="#3B3B3B" font-size="15">)</text>
    <text x="257.8" y="109" fill="#3B3B3B" font-size="15"> </text>
    <text x="266.4" y="109" fill="#0000FF" font-size="15">-&gt;</text>
    <text x="283.6" y="109" fill="#3B3B3B" font-size="15"> </text>
    <text x="292.2" y="109" fill="#267F99" font-size="15">Unit</text>
    <text x="326.6" y="109" fill="#3B3B3B" font-size="15">)</text>
    <text x="335.2" y="109" fill="#3B3B3B" font-size="15"> </text>
    <text x="343.8" y="109" fill="#0000FF" font-size="15">-&gt;</text>
    <text x="361.0" y="109" fill="#3B3B3B" font-size="15"> </text>
    <text x="369.6" y="109" fill="#267F99" font-size="15">Unit</text>
    <text x="26" y="131" fill="#6E7681" font-size="15"> 5</text>
    <text x="60.0" y="131" fill="#3B3B3B" font-size="15">)</text>
    <text x="68.6" y="131" fill="#3B3B3B" font-size="15"> </text>
    <text x="77.2" y="131" fill="#0000FF" font-size="15">-&gt;</text>
    <text x="94.4" y="131" fill="#3B3B3B" font-size="15"> </text>
    <text x="103.0" y="131" fill="#267F99" font-size="15">Unit</text>
    <text x="137.4" y="131" fill="#3B3B3B" font-size="15"> </text>
    <text x="146.0" y="131" fill="#000000" font-size="15">=</text>
    <text x="154.6" y="131" fill="#3B3B3B" font-size="15"> </text>
    <text x="163.2" y="131" fill="#A31515" font-size="15">&quot;</text>
    <text x="171.8" y="131" fill="#A31515" font-size="15">%async.suspend</text>
    <text x="292.2" y="131" fill="#A31515" font-size="15">&quot;</text>
    <text x="26" y="153" fill="#6E7681" font-size="15"> 6</text>
    <text x="26" y="175" fill="#6E7681" font-size="15"> 7</text>
    <text x="60.0" y="175" fill="#0000FF" font-size="15">async</text>
    <text x="103.0" y="175" fill="#3B3B3B" font-size="15"> </text>
    <text x="111.6" y="175" fill="#0000FF" font-size="15">test</text>
    <text x="146.0" y="175" fill="#3B3B3B" font-size="15"> </text>
    <text x="154.6" y="175" fill="#A31515" font-size="15">&quot;</text>
    <text x="163.2" y="175" fill="#A31515" font-size="15">suspend</text>
    <text x="223.4" y="175" fill="#A31515" font-size="15">&quot;</text>
    <text x="232.0" y="175" fill="#3B3B3B" font-size="15"> </text>
    <text x="240.6" y="175" fill="#3B3B3B" font-size="15">{</text>
    <text x="26" y="197" fill="#6E7681" font-size="15"> 8</text>
    <text x="60.0" y="197" fill="#3B3B3B" font-size="15">  </text>
    <text x="77.2" y="197" fill="#795E26" font-size="15">async_suspend</text>
    <text x="189.0" y="197" fill="#3B3B3B" font-size="15">(</text>
    <text x="197.6" y="197" fill="#0000FF" font-size="15">fn</text>
    <text x="214.8" y="197" fill="#3B3B3B" font-size="15">(</text>
    <text x="223.4" y="197" fill="#001080" font-size="15">resolve</text>
    <text x="283.6" y="197" fill="#3B3B3B" font-size="15">,</text>
    <text x="292.2" y="197" fill="#3B3B3B" font-size="15"> </text>
    <text x="300.8" y="197" fill="#001080" font-size="15">_reject</text>
    <text x="361.0" y="197" fill="#3B3B3B" font-size="15">)</text>
    <text x="369.6" y="197" fill="#3B3B3B" font-size="15"> </text>
    <text x="378.2" y="197" fill="#3B3B3B" font-size="15">{</text>
    <text x="386.8" y="197" fill="#3B3B3B" font-size="15"> </text>
    <text x="395.4" y="197" fill="#795E26" font-size="15">resolve</text>
    <text x="455.6" y="197" fill="#3B3B3B" font-size="15">(</text>
    <text x="464.2" y="197" fill="#3B3B3B" font-size="15">(</text>
    <text x="472.8" y="197" fill="#3B3B3B" font-size="15">)</text>
    <text x="481.4" y="197" fill="#3B3B3B" font-size="15">)</text>
    <text x="490.0" y="197" fill="#3B3B3B" font-size="15"> </text>
    <text x="498.6" y="197" fill="#3B3B3B" font-size="15">}</text>
    <text x="507.2" y="197" fill="#3B3B3B" font-size="15">)</text>
    <text x="26" y="219" fill="#6E7681" font-size="15"> 9</text>
    <text x="60.0" y="219" fill="#3B3B3B" font-size="15">}</text>
  </g>
</svg>
