<svg xmlns="http://www.w3.org/2000/svg" width="749" height="496" viewBox="0 0 749 496">
  <rect width="100%" height="100%" rx="8" fill="#FFFFFF"/>
  <g font-family="SFMono-Regular, Menlo, Monaco, Consolas, 'Liberation Mono', monospace" xml:space="preserve">
    <text x="26" y="43" fill="#6E7681" font-size="15"> 1</text>
    <text x="60.0" y="43" fill="#008000" font-size="15">// Source: moonbitlang/core argparse/value_range.mbt</text>
    <text x="26" y="65" fill="#6E7681" font-size="15"> 2</text>
    <text x="60.0" y="65" fill="#008000" font-size="15">///|</text>
    <text x="26" y="87" fill="#6E7681" font-size="15"> 3</text>
    <text x="60.0" y="87" fill="#008000" font-size="15">/// Number-of-values constraint for an argument.</text>
    <text x="26" y="109" fill="#6E7681" font-size="15"> 4</text>
    <text x="60.0" y="109" fill="#795E26" font-size="15">#warnings</text>
    <text x="137.4" y="109" fill="#3B3B3B" font-size="15">(</text>
    <text x="146.0" y="109" fill="#A31515" font-size="15">&quot;</text>
    <text x="154.6" y="109" fill="#A31515" font-size="15">-deprecated_syntax-deprecated</text>
    <text x="404.0" y="109" fill="#A31515" font-size="15">&quot;</text>
    <text x="412.6" y="109" fill="#3B3B3B" font-size="15">)</text>
    <text x="26" y="131" fill="#6E7681" font-size="15"> 5</text>
    <text x="60.0" y="131" fill="#0000FF" font-size="15">pub</text>
    <text x="85.8" y="131" fill="#3B3B3B" font-size="15"> </text>
    <text x="94.4" y="131" fill="#0000FF" font-size="15">struct</text>
    <text x="146.0" y="131" fill="#3B3B3B" font-size="15"> </text>
    <text x="154.6" y="131" fill="#267F99" font-size="15">ValueRange</text>
    <text x="240.6" y="131" fill="#3B3B3B" font-size="15"> </text>
    <text x="249.2" y="131" fill="#3B3B3B" font-size="15">{</text>
    <text x="26" y="153" fill="#6E7681" font-size="15"> 6</text>
    <text x="60.0" y="153" fill="#3B3B3B" font-size="15">  </text>
    <text x="77.2" y="153" fill="#0000FF" font-size="15">priv</text>
    <text x="111.6" y="153" fill="#3B3B3B" font-size="15"> </text>
    <text x="120.2" y="153" fill="#001080" font-size="15">lower</text>
    <text x="163.2" y="153" fill="#3B3B3B" font-size="15"> </text>
    <text x="171.8" y="153" fill="#3B3B3B" font-size="15">:</text>
    <text x="180.4" y="153" fill="#3B3B3B" font-size="15"> </text>
    <text x="189.0" y="153" fill="#267F99" font-size="15">Int</text>
    <text x="26" y="175" fill="#6E7681" font-size="15"> 7</text>
    <text x="60.0" y="175" fill="#3B3B3B" font-size="15">  </text>
    <text x="77.2" y="175" fill="#0000FF" font-size="15">priv</text>
    <text x="111.6" y="175" fill="#3B3B3B" font-size="15"> </text>
    <text x="120.2" y="175" fill="#001080" font-size="15">upper</text>
    <text x="163.2" y="175" fill="#3B3B3B" font-size="15"> </text>
    <text x="171.8" y="175" fill="#3B3B3B" font-size="15">:</text>
    <text x="180.4" y="175" fill="#3B3B3B" font-size="15"> </text>
    <text x="189.0" y="175" fill="#267F99" font-size="15">Int?</text>
    <text x="26" y="197" fill="#6E7681" font-size="15"> 8</text>
    <text x="60.0" y="197" fill="#3B3B3B" font-size="15">}</text>
    <text x="68.6" y="197" fill="#3B3B3B" font-size="15"> </text>
    <text x="77.2" y="197" fill="#0000FF" font-size="15">derive</text>
    <text x="128.8" y="197" fill="#3B3B3B" font-size="15">(</text>
    <text x="137.4" y="197" fill="#267F99" font-size="15">Eq</text>
    <text x="154.6" y="197" fill="#3B3B3B" font-size="15">,</text>
    <text x="163.2" y="197" fill="#3B3B3B" font-size="15"> </text>
    <text x="171.8" y="197" fill="#267F99" font-size="15">Show</text>
    <text x="206.2" y="197" fill="#3B3B3B" font-size="15">,</text>
    <text x="214.8" y="197" fill="#3B3B3B" font-size="15"> </text>
    <text x="223.4" y="197" fill="#267F99" font-size="15">@debug</text>
    <text x="275.0" y="197" fill="#3B3B3B" font-size="15">.</text>
    <text x="283.6" y="197" fill="#267F99" font-size="15">Debug</text>
    <text x="326.6" y="197" fill="#3B3B3B" font-size="15">)</text>
    <text x="26" y="219" fill="#6E7681" font-size="15"> 9</text>
    <text x="26" y="241" fill="#6E7681" font-size="15">10</text>
    <text x="60.0" y="241" fill="#008000" font-size="15">///|</text>
    <text x="26" y="263" fill="#6E7681" font-size="15">11</text>
    <text x="60.0" y="263" fill="#008000" font-size="15">/// Create a value-count range.</text>
    <text x="26" y="285" fill="#6E7681" font-size="15">12</text>
    <text x="60.0" y="285" fill="#0000FF" font-size="15">pub</text>
    <text x="85.8" y="285" fill="#3B3B3B" font-size="15"> </text>
    <text x="94.4" y="285" fill="#0000FF" font-size="15">fn</text>
    <text x="111.6" y="285" fill="#3B3B3B" font-size="15"> </text>
    <text x="120.2" y="285" fill="#795E26" font-size="15">ValueRange</text>
    <text x="206.2" y="285" fill="#3B3B3B" font-size="15">:</text>
    <text x="214.8" y="285" fill="#3B3B3B" font-size="15">:</text>
    <text x="223.4" y="285" fill="#267F99" font-size="15">ValueRange</text>
    <text x="309.4" y="285" fill="#3B3B3B" font-size="15">(</text>
    <text x="318.0" y="285" fill="#001080" font-size="15">lower</text>
    <text x="361.0" y="285" fill="#000000" font-size="15">?</text>
    <text x="369.6" y="285" fill="#3B3B3B" font-size="15"> </text>
    <text x="378.2" y="285" fill="#000000" font-size="15">:</text>
    <text x="386.8" y="285" fill="#3B3B3B" font-size="15"> </text>
    <text x="395.4" y="285" fill="#267F99" font-size="15">Int</text>
    <text x="421.2" y="285" fill="#3B3B3B" font-size="15"> </text>
    <text x="429.8" y="285" fill="#000000" font-size="15">=</text>
    <text x="438.4" y="285" fill="#3B3B3B" font-size="15"> </text>
    <text x="447.0" y="285" fill="#098658" font-size="15">0</text>
    <text x="455.6" y="285" fill="#3B3B3B" font-size="15">,</text>
    <text x="464.2" y="285" fill="#3B3B3B" font-size="15"> </text>
    <text x="472.8" y="285" fill="#001080" font-size="15">upper</text>
    <text x="515.8" y="285" fill="#000000" font-size="15">?</text>
    <text x="524.4" y="285" fill="#3B3B3B" font-size="15"> </text>
    <text x="533.0" y="285" fill="#000000" font-size="15">:</text>
    <text x="541.6" y="285" fill="#3B3B3B" font-size="15"> </text>
    <text x="550.2" y="285" fill="#267F99" font-size="15">Int</text>
    <text x="576.0" y="285" fill="#3B3B3B" font-size="15">)</text>
    <text x="584.6" y="285" fill="#3B3B3B" font-size="15"> </text>
    <text x="593.2" y="285" fill="#0000FF" font-size="15">-&gt;</text>
    <text x="610.4" y="285" fill="#3B3B3B" font-size="15"> </text>
    <text x="619.0" y="285" fill="#267F99" font-size="15">ValueRange</text>
    <text x="705.0" y="285" fill="#3B3B3B" font-size="15"> </text>
    <text x="713.6" y="285" fill="#3B3B3B" font-size="15">{</text>
    <text x="26" y="307" fill="#6E7681" font-size="15">13</text>
    <text x="60.0" y="307" fill="#3B3B3B" font-size="15">  </text>
    <text x="77.2" y="307" fill="#3B3B3B" font-size="15">{</text>
    <text x="85.8" y="307" fill="#3B3B3B" font-size="15"> </text>
    <text x="94.4" y="307" fill="#001080" font-size="15">lower</text>
    <text x="137.4" y="307" fill="#3B3B3B" font-size="15">,</text>
    <text x="146.0" y="307" fill="#3B3B3B" font-size="15"> </text>
    <text x="154.6" y="307" fill="#001080" font-size="15">upper</text>
    <text x="197.6" y="307" fill="#3B3B3B" font-size="15"> </text>
    <text x="206.2" y="307" fill="#3B3B3B" font-size="15">}</text>
    <text x="26" y="329" fill="#6E7681" font-size="15">14</text>
    <text x="60.0" y="329" fill="#3B3B3B" font-size="15">}</text>
    <text x="26" y="351" fill="#6E7681" font-size="15">15</text>
    <text x="26" y="373" fill="#6E7681" font-size="15">16</text>
    <text x="60.0" y="373" fill="#008000" font-size="15">///|</text>
    <text x="26" y="395" fill="#6E7681" font-size="15">17</text>
    <text x="60.0" y="395" fill="#008000" font-size="15">/// Exact single-value range (`1..1`).</text>
    <text x="26" y="417" fill="#6E7681" font-size="15">18</text>
    <text x="60.0" y="417" fill="#0000FF" font-size="15">pub</text>
    <text x="85.8" y="417" fill="#3B3B3B" font-size="15"> </text>
    <text x="94.4" y="417" fill="#0000FF" font-size="15">fn</text>
    <text x="111.6" y="417" fill="#3B3B3B" font-size="15"> </text>
    <text x="120.2" y="417" fill="#795E26" font-size="15">ValueRange</text>
    <text x="206.2" y="417" fill="#3B3B3B" font-size="15">:</text>
    <text x="214.8" y="417" fill="#3B3B3B" font-size="15">:</text>
    <text x="223.4" y="417" fill="#795E26" font-size="15">single</text>
    <text x="275.0" y="417" fill="#3B3B3B" font-size="15">(</text>
    <text x="283.6" y="417" fill="#3B3B3B" font-size="15">)</text>
    <text x="292.2" y="417" fill="#3B3B3B" font-size="15"> </text>
    <text x="300.8" y="417" fill="#0000FF" font-size="15">-&gt;</text>
    <text x="318.0" y="417" fill="#3B3B3B" font-size="15"> </text>
    <text x="326.6" y="417" fill="#267F99" font-size="15">ValueRange</text>
    <text x="412.6" y="417" fill="#3B3B3B" font-size="15"> </text>
    <text x="421.2" y="417" fill="#3B3B3B" font-size="15">{</text>
    <text x="26" y="439" fill="#6E7681" font-size="15">19</text>
    <text x="60.0" y="439" fill="#3B3B3B" font-size="15">  </text>
    <text x="77.2" y="439" fill="#267F99" font-size="15">ValueRange</text>
    <text x="163.2" y="439" fill="#3B3B3B" font-size="15">(</text>
    <text x="171.8" y="439" fill="#001080" font-size="15">lower</text>
    <text x="214.8" y="439" fill="#000000" font-size="15">=</text>
    <text x="223.4" y="439" fill="#098658" font-size="15">1</text>
    <text x="232.0" y="439" fill="#3B3B3B" font-size="15">,</text>
    <text x="240.6" y="439" fill="#3B3B3B" font-size="15"> </text>
    <text x="249.2" y="439" fill="#001080" font-size="15">upper</text>
    <text x="292.2" y="439" fill="#000000" font-size="15">=</text>
    <text x="300.8" y="439" fill="#098658" font-size="15">1</text>
    <text x="309.4" y="439" fill="#3B3B3B" font-size="15">)</text>
    <text x="26" y="461" fill="#6E7681" font-size="15">20</text>
    <text x="60.0" y="461" fill="#3B3B3B" font-size="15">}</text>
  </g>
</svg>
