<svg xmlns="http://www.w3.org/2000/svg" width="448" height="210" viewBox="0 0 448 210">
  <rect width="100%" height="100%" rx="8" fill="#FFFFFF"/>
  <g font-family="SFMono-Regular, Menlo, Monaco, Consolas, 'Liberation Mono', monospace" xml:space="preserve">
    <text x="26" y="43" fill="#6E7681" font-size="15"> 1</text>
    <text x="60.0" y="43" fill="#008000" font-size="15">// Source: moonbitlang/core unit/unit.mbt</text>
    <text x="26" y="65" fill="#6E7681" font-size="15"> 2</text>
    <text x="60.0" y="65" fill="#008000" font-size="15">///|</text>
    <text x="26" y="87" fill="#6E7681" font-size="15"> 3</text>
    <text x="60.0" y="87" fill="#008000" font-size="15">/// same as `Unit::default`</text>
    <text x="26" y="109" fill="#6E7681" font-size="15"> 4</text>
    <text x="60.0" y="109" fill="#795E26" font-size="15">#deprecated</text>
    <text x="154.6" y="109" fill="#3B3B3B" font-size="15">(</text>
    <text x="163.2" y="109" fill="#A31515" font-size="15">&quot;</text>
    <text x="171.8" y="109" fill="#A31515" font-size="15">Use `Unit::default` instead</text>
    <text x="404.0" y="109" fill="#A31515" font-size="15">&quot;</text>
    <text x="412.6" y="109" fill="#3B3B3B" font-size="15">)</text>
    <text x="26" y="131" fill="#6E7681" font-size="15"> 5</text>
    <text x="60.0" y="131" fill="#0000FF" font-size="15">pub</text>
    <text x="85.8" y="131" fill="#3B3B3B" font-size="15"> </text>
    <text x="94.4" y="131" fill="#0000FF" font-size="15">fn</text>
    <text x="111.6" y="131" fill="#3B3B3B" font-size="15"> </text>
    <text x="120.2" y="131" fill="#795E26" font-size="15">default</text>
    <text x="180.4" y="131" fill="#3B3B3B" font-size="15">(</text>
    <text x="189.0" y="131" fill="#3B3B3B" font-size="15">)</text>
    <text x="197.6" y="131" fill="#3B3B3B" font-size="15"> </text>
    <text x="206.2" y="131" fill="#0000FF" font-size="15">-&gt;</text>
    <text x="223.4" y="131" fill="#3B3B3B" font-size="15"> </text>
    <text x="232.0" y="131" fill="#267F99" font-size="15">Unit</text>
    <text x="266.4" y="131" fill="#3B3B3B" font-size="15"> </text>
    <text x="275.0" y="131" fill="#3B3B3B" font-size="15">{</text>
    <text x="26" y="153" fill="#6E7681" font-size="15"> 6</text>
    <text x="60.0" y="153" fill="#3B3B3B" font-size="15">  </text>
    <text x="77.2" y="153" fill="#3B3B3B" font-size="15">(</text>
    <text x="85.8" y="153" fill="#3B3B3B" font-size="15">)</text>
    <text x="26" y="175" fill="#6E7681" font-size="15"> 7</text>
    <text x="60.0" y="175" fill="#3B3B3B" font-size="15">}</text>
  </g>
</svg>
