<svg xmlns="http://www.w3.org/2000/svg" width="422" height="408" viewBox="0 0 422 408">
  <rect width="100%" height="100%" rx="8" fill="#FFFFFF"/>
  <g font-family="SFMono-Regular, Menlo, Monaco, Consolas, 'Liberation Mono', monospace" xml:space="preserve">
    <text x="26" y="43" fill="#6E7681" font-size="15"> 1</text>
    <text x="60.0" y="43" fill="#0000FF" font-size="15">fn</text>
    <text x="77.2" y="43" fill="#3B3B3B" font-size="15"> </text>
    <text x="85.8" y="43" fill="#795E26" font-size="15">main</text>
    <text x="120.2" y="43" fill="#3B3B3B" font-size="15"> </text>
    <text x="128.8" y="43" fill="#3B3B3B" font-size="15">{</text>
    <text x="26" y="65" fill="#6E7681" font-size="15"> 2</text>
    <text x="60.0" y="65" fill="#3B3B3B" font-size="15">  </text>
    <text x="77.2" y="65" fill="#098658" font-size="15">1.</text>
    <text x="94.4" y="65" fill="#3B3B3B" font-size="15"> </text>
    <text x="103.0" y="65" fill="#000000" font-size="15">|&gt;</text>
    <text x="120.2" y="65" fill="#3B3B3B" font-size="15"> </text>
    <text x="128.8" y="65" fill="#795E26" font-size="15">ignore</text>
    <text x="180.4" y="65" fill="#3B3B3B" font-size="15">(</text>
    <text x="189.0" y="65" fill="#3B3B3B" font-size="15">)</text>
    <text x="26" y="87" fill="#6E7681" font-size="15"> 3</text>
    <text x="60.0" y="87" fill="#3B3B3B" font-size="15">  </text>
    <text x="77.2" y="87" fill="#098658" font-size="15">1.0</text>
    <text x="103.0" y="87" fill="#3B3B3B" font-size="15"> </text>
    <text x="111.6" y="87" fill="#000000" font-size="15">|&gt;</text>
    <text x="128.8" y="87" fill="#3B3B3B" font-size="15"> </text>
    <text x="137.4" y="87" fill="#795E26" font-size="15">ignore</text>
    <text x="189.0" y="87" fill="#3B3B3B" font-size="15">(</text>
    <text x="197.6" y="87" fill="#3B3B3B" font-size="15">)</text>
    <text x="26" y="109" fill="#6E7681" font-size="15"> 4</text>
    <text x="60.0" y="109" fill="#3B3B3B" font-size="15">  </text>
    <text x="77.2" y="109" fill="#098658" font-size="15">1.0e+1</text>
    <text x="128.8" y="109" fill="#3B3B3B" font-size="15"> </text>
    <text x="137.4" y="109" fill="#000000" font-size="15">|&gt;</text>
    <text x="154.6" y="109" fill="#3B3B3B" font-size="15"> </text>
    <text x="163.2" y="109" fill="#795E26" font-size="15">ignore</text>
    <text x="214.8" y="109" fill="#3B3B3B" font-size="15">(</text>
    <text x="223.4" y="109" fill="#3B3B3B" font-size="15">)</text>
    <text x="26" y="131" fill="#6E7681" font-size="15"> 5</text>
    <text x="60.0" y="131" fill="#3B3B3B" font-size="15">  </text>
    <text x="77.2" y="131" fill="#098658" font-size="15">1.0e-1</text>
    <text x="128.8" y="131" fill="#3B3B3B" font-size="15"> </text>
    <text x="137.4" y="131" fill="#000000" font-size="15">|&gt;</text>
    <text x="154.6" y="131" fill="#3B3B3B" font-size="15"> </text>
    <text x="163.2" y="131" fill="#795E26" font-size="15">ignore</text>
    <text x="214.8" y="131" fill="#3B3B3B" font-size="15">(</text>
    <text x="223.4" y="131" fill="#3B3B3B" font-size="15">)</text>
    <text x="26" y="153" fill="#6E7681" font-size="15"> 6</text>
    <text x="60.0" y="153" fill="#3B3B3B" font-size="15">  </text>
    <text x="77.2" y="153" fill="#098658" font-size="15">0x1.</text>
    <text x="111.6" y="153" fill="#3B3B3B" font-size="15"> </text>
    <text x="120.2" y="153" fill="#000000" font-size="15">|&gt;</text>
    <text x="137.4" y="153" fill="#3B3B3B" font-size="15"> </text>
    <text x="146.0" y="153" fill="#795E26" font-size="15">ignore</text>
    <text x="197.6" y="153" fill="#3B3B3B" font-size="15">(</text>
    <text x="206.2" y="153" fill="#3B3B3B" font-size="15">)</text>
    <text x="26" y="175" fill="#6E7681" font-size="15"> 7</text>
    <text x="60.0" y="175" fill="#3B3B3B" font-size="15">  </text>
    <text x="77.2" y="175" fill="#098658" font-size="15">0x1.0</text>
    <text x="120.2" y="175" fill="#3B3B3B" font-size="15"> </text>
    <text x="128.8" y="175" fill="#000000" font-size="15">|&gt;</text>
    <text x="146.0" y="175" fill="#3B3B3B" font-size="15"> </text>
    <text x="154.6" y="175" fill="#795E26" font-size="15">ignore</text>
    <text x="206.2" y="175" fill="#3B3B3B" font-size="15">(</text>
    <text x="214.8" y="175" fill="#3B3B3B" font-size="15">)</text>
    <text x="26" y="197" fill="#6E7681" font-size="15"> 8</text>
    <text x="60.0" y="197" fill="#3B3B3B" font-size="15">  </text>
    <text x="77.2" y="197" fill="#098658" font-size="15">0x1.0p+1</text>
    <text x="146.0" y="197" fill="#3B3B3B" font-size="15"> </text>
    <text x="154.6" y="197" fill="#000000" font-size="15">|&gt;</text>
    <text x="171.8" y="197" fill="#3B3B3B" font-size="15"> </text>
    <text x="180.4" y="197" fill="#795E26" font-size="15">ignore</text>
    <text x="232.0" y="197" fill="#3B3B3B" font-size="15">(</text>
    <text x="240.6" y="197" fill="#3B3B3B" font-size="15">)</text>
    <text x="26" y="219" fill="#6E7681" font-size="15"> 9</text>
    <text x="60.0" y="219" fill="#3B3B3B" font-size="15">  </text>
    <text x="77.2" y="219" fill="#098658" font-size="15">0x1.p+1</text>
    <text x="137.4" y="219" fill="#3B3B3B" font-size="15"> </text>
    <text x="146.0" y="219" fill="#000000" font-size="15">|&gt;</text>
    <text x="163.2" y="219" fill="#3B3B3B" font-size="15"> </text>
    <text x="171.8" y="219" fill="#795E26" font-size="15">ignore</text>
    <text x="223.4" y="219" fill="#3B3B3B" font-size="15">(</text>
    <text x="232.0" y="219" fill="#3B3B3B" font-size="15">)</text>
    <text x="26" y="241" fill="#6E7681" font-size="15">10</text>
    <text x="60.0" y="241" fill="#3B3B3B" font-size="15">  </text>
    <text x="77.2" y="241" fill="#098658" font-size="15">1.1_1</text>
    <text x="120.2" y="241" fill="#3B3B3B" font-size="15"> </text>
    <text x="128.8" y="241" fill="#000000" font-size="15">|&gt;</text>
    <text x="146.0" y="241" fill="#3B3B3B" font-size="15"> </text>
    <text x="154.6" y="241" fill="#795E26" font-size="15">ignore</text>
    <text x="206.2" y="241" fill="#3B3B3B" font-size="15">(</text>
    <text x="214.8" y="241" fill="#3B3B3B" font-size="15">)</text>
    <text x="26" y="263" fill="#6E7681" font-size="15">11</text>
    <text x="60.0" y="263" fill="#3B3B3B" font-size="15">  </text>
    <text x="77.2" y="263" fill="#098658" font-size="15">1_1.2_2</text>
    <text x="137.4" y="263" fill="#3B3B3B" font-size="15"> </text>
    <text x="146.0" y="263" fill="#000000" font-size="15">|&gt;</text>
    <text x="163.2" y="263" fill="#3B3B3B" font-size="15"> </text>
    <text x="171.8" y="263" fill="#795E26" font-size="15">ignore</text>
    <text x="223.4" y="263" fill="#3B3B3B" font-size="15">(</text>
    <text x="232.0" y="263" fill="#3B3B3B" font-size="15">)</text>
    <text x="26" y="285" fill="#6E7681" font-size="15">12</text>
    <text x="60.0" y="285" fill="#3B3B3B" font-size="15">  </text>
    <text x="77.2" y="285" fill="#0000FF" font-size="15">let</text>
    <text x="103.0" y="285" fill="#3B3B3B" font-size="15"> </text>
    <text x="111.6" y="285" fill="#001080" font-size="15">buffer</text>
    <text x="163.2" y="285" fill="#3B3B3B" font-size="15"> </text>
    <text x="171.8" y="285" fill="#000000" font-size="15">=</text>
    <text x="180.4" y="285" fill="#3B3B3B" font-size="15"> </text>
    <text x="189.0" y="285" fill="#267F99" font-size="15">StringBuilder</text>
    <text x="300.8" y="285" fill="#3B3B3B" font-size="15">:</text>
    <text x="309.4" y="285" fill="#3B3B3B" font-size="15">:</text>
    <text x="318.0" y="285" fill="#795E26" font-size="15">new</text>
    <text x="343.8" y="285" fill="#3B3B3B" font-size="15">(</text>
    <text x="352.4" y="285" fill="#3B3B3B" font-size="15">)</text>
    <text x="26" y="307" fill="#6E7681" font-size="15">13</text>
    <text x="60.0" y="307" fill="#3B3B3B" font-size="15">  </text>
    <text x="77.2" y="307" fill="#098658" font-size="15">1</text>
    <text x="85.8" y="307" fill="#3B3B3B" font-size="15">.</text>
    <text x="94.4" y="307" fill="#000000" font-size="15">.</text>
    <text x="103.0" y="307" fill="#795E26" font-size="15">output</text>
    <text x="154.6" y="307" fill="#3B3B3B" font-size="15">(</text>
    <text x="163.2" y="307" fill="#001080" font-size="15">buffer</text>
    <text x="214.8" y="307" fill="#3B3B3B" font-size="15">)</text>
    <text x="26" y="329" fill="#6E7681" font-size="15">14</text>
    <text x="60.0" y="329" fill="#3B3B3B" font-size="15">  </text>
    <text x="77.2" y="329" fill="#0000FF" font-size="15">let</text>
    <text x="103.0" y="329" fill="#3B3B3B" font-size="15"> </text>
    <text x="111.6" y="329" fill="#001080" font-size="15">a</text>
    <text x="120.2" y="329" fill="#3B3B3B" font-size="15"> </text>
    <text x="128.8" y="329" fill="#000000" font-size="15">=</text>
    <text x="137.4" y="329" fill="#3B3B3B" font-size="15"> </text>
    <text x="146.0" y="329" fill="#3B3B3B" font-size="15">(</text>
    <text x="154.6" y="329" fill="#098658" font-size="15">0.0</text>
    <text x="180.4" y="329" fill="#3B3B3B" font-size="15">,</text>
    <text x="189.0" y="329" fill="#3B3B3B" font-size="15"> </text>
    <text x="197.6" y="329" fill="#3B3B3B" font-size="15">(</text>
    <text x="206.2" y="329" fill="#098658" font-size="15">1.0</text>
    <text x="232.0" y="329" fill="#3B3B3B" font-size="15">,</text>
    <text x="240.6" y="329" fill="#3B3B3B" font-size="15"> </text>
    <text x="249.2" y="329" fill="#098658" font-size="15">2.0</text>
    <text x="275.0" y="329" fill="#3B3B3B" font-size="15">,</text>
    <text x="283.6" y="329" fill="#3B3B3B" font-size="15"> </text>
    <text x="292.2" y="329" fill="#3B3B3B" font-size="15">(</text>
    <text x="300.8" y="329" fill="#098658" font-size="15">3.0</text>
    <text x="326.6" y="329" fill="#3B3B3B" font-size="15">,</text>
    <text x="335.2" y="329" fill="#3B3B3B" font-size="15"> </text>
    <text x="343.8" y="329" fill="#098658" font-size="15">4.0</text>
    <text x="369.6" y="329" fill="#3B3B3B" font-size="15">)</text>
    <text x="378.2" y="329" fill="#3B3B3B" font-size="15">)</text>
    <text x="386.8" y="329" fill="#3B3B3B" font-size="15">)</text>
    <text x="26" y="351" fill="#6E7681" font-size="15">15</text>
    <text x="60.0" y="351" fill="#3B3B3B" font-size="15">  </text>
    <text x="77.2" y="351" fill="#001080" font-size="15">a</text>
    <text x="85.8" y="351" fill="#098658" font-size="15">.1</text>
    <text x="103.0" y="351" fill="#098658" font-size="15">.2</text>
    <text x="120.2" y="351" fill="#3B3B3B" font-size="15"> </text>
    <text x="128.8" y="351" fill="#000000" font-size="15">|&gt;</text>
    <text x="146.0" y="351" fill="#3B3B3B" font-size="15"> </text>
    <text x="154.6" y="351" fill="#795E26" font-size="15">ignore</text>
    <text x="206.2" y="351" fill="#3B3B3B" font-size="15">(</text>
    <text x="214.8" y="351" fill="#3B3B3B" font-size="15">)</text>
    <text x="26" y="373" fill="#6E7681" font-size="15">16</text>
    <text x="60.0" y="373" fill="#3B3B3B" font-size="15">}</text>
  </g>
</svg>
