<svg xmlns="http://www.w3.org/2000/svg" width="456" height="342" viewBox="0 0 456 342">
  <rect width="100%" height="100%" rx="8" fill="#FFFFFF"/>
  <g font-family="SFMono-Regular, Menlo, Monaco, Consolas, 'Liberation Mono', monospace" xml:space="preserve">
    <text x="26" y="43" fill="#6E7681" font-size="15"> 1</text>
    <text x="60.0" y="43" fill="#0000FF" font-size="15">fn</text>
    <text x="77.2" y="43" fill="#3B3B3B" font-size="15"> </text>
    <text x="85.8" y="43" fill="#795E26" font-size="15">foo</text>
    <text x="111.6" y="43" fill="#3B3B3B" font-size="15">(</text>
    <text x="120.2" y="43" fill="#3B3B3B" font-size="15">)</text>
    <text x="128.8" y="43" fill="#3B3B3B" font-size="15"> </text>
    <text x="137.4" y="43" fill="#0000FF" font-size="15">-&gt;</text>
    <text x="154.6" y="43" fill="#3B3B3B" font-size="15"> </text>
    <text x="163.2" y="43" fill="#267F99" font-size="15">Unit</text>
    <text x="197.6" y="43" fill="#3B3B3B" font-size="15"> </text>
    <text x="206.2" y="43" fill="#3B3B3B" font-size="15">{</text>
    <text x="26" y="65" fill="#6E7681" font-size="15"> 2</text>
    <text x="60.0" y="65" fill="#3B3B3B" font-size="15">  </text>
    <text x="77.2" y="65" fill="#3B3B3B" font-size="15">(</text>
    <text x="85.8" y="65" fill="#3B3B3B" font-size="15">)</text>
    <text x="26" y="87" fill="#6E7681" font-size="15"> 3</text>
    <text x="60.0" y="87" fill="#3B3B3B" font-size="15">}</text>
    <text x="26" y="109" fill="#6E7681" font-size="15"> 4</text>
    <text x="26" y="131" fill="#6E7681" font-size="15"> 5</text>
    <text x="60.0" y="131" fill="#0000FF" font-size="15">fn</text>
    <text x="77.2" y="131" fill="#3B3B3B" font-size="15"> </text>
    <text x="85.8" y="131" fill="#795E26" font-size="15">bar</text>
    <text x="111.6" y="131" fill="#3B3B3B" font-size="15">(</text>
    <text x="120.2" y="131" fill="#3B3B3B" font-size="15">)</text>
    <text x="128.8" y="131" fill="#3B3B3B" font-size="15"> </text>
    <text x="137.4" y="131" fill="#0000FF" font-size="15">-&gt;</text>
    <text x="154.6" y="131" fill="#3B3B3B" font-size="15"> </text>
    <text x="163.2" y="131" fill="#267F99" font-size="15">Unit</text>
    <text x="197.6" y="131" fill="#3B3B3B" font-size="15"> </text>
    <text x="206.2" y="131" fill="#3B3B3B" font-size="15">{</text>
    <text x="26" y="153" fill="#6E7681" font-size="15"> 6</text>
    <text x="60.0" y="153" fill="#3B3B3B" font-size="15">  </text>
    <text x="77.2" y="153" fill="#795E26" font-size="15">foo</text>
    <text x="103.0" y="153" fill="#3B3B3B" font-size="15">(</text>
    <text x="111.6" y="153" fill="#3B3B3B" font-size="15">)</text>
    <text x="26" y="175" fill="#6E7681" font-size="15"> 7</text>
    <text x="60.0" y="175" fill="#3B3B3B" font-size="15">}</text>
    <text x="26" y="197" fill="#6E7681" font-size="15"> 8</text>
    <text x="26" y="219" fill="#6E7681" font-size="15"> 9</text>
    <text x="60.0" y="219" fill="#0000FF" font-size="15">fn</text>
    <text x="77.2" y="219" fill="#3B3B3B" font-size="15"> </text>
    <text x="85.8" y="219" fill="#795E26" font-size="15">main</text>
    <text x="120.2" y="219" fill="#3B3B3B" font-size="15"> </text>
    <text x="128.8" y="219" fill="#3B3B3B" font-size="15">{</text>
    <text x="26" y="241" fill="#6E7681" font-size="15">10</text>
    <text x="60.0" y="241" fill="#3B3B3B" font-size="15">  </text>
    <text x="77.2" y="241" fill="#795E26" font-size="15">foo</text>
    <text x="103.0" y="241" fill="#3B3B3B" font-size="15">(</text>
    <text x="111.6" y="241" fill="#3B3B3B" font-size="15">)</text>
    <text x="26" y="263" fill="#6E7681" font-size="15">11</text>
    <text x="60.0" y="263" fill="#3B3B3B" font-size="15">  </text>
    <text x="77.2" y="263" fill="#795E26" font-size="15">bar</text>
    <text x="103.0" y="263" fill="#3B3B3B" font-size="15">(</text>
    <text x="111.6" y="263" fill="#3B3B3B" font-size="15">)</text>
    <text x="26" y="285" fill="#6E7681" font-size="15">12</text>
    <text x="60.0" y="285" fill="#3B3B3B" font-size="15">  </text>
    <text x="77.2" y="285" fill="#267F99" font-size="15">StringBuilder</text>
    <text x="189.0" y="285" fill="#3B3B3B" font-size="15">:</text>
    <text x="197.6" y="285" fill="#3B3B3B" font-size="15">:</text>
    <text x="206.2" y="285" fill="#795E26" font-size="15">new</text>
    <text x="232.0" y="285" fill="#3B3B3B" font-size="15">(</text>
    <text x="240.6" y="285" fill="#3B3B3B" font-size="15">)</text>
    <text x="249.2" y="285" fill="#3B3B3B" font-size="15">.</text>
    <text x="257.8" y="285" fill="#795E26" font-size="15">write_string</text>
    <text x="361.0" y="285" fill="#3B3B3B" font-size="15">(</text>
    <text x="369.6" y="285" fill="#A31515" font-size="15">&quot;</text>
    <text x="378.2" y="285" fill="#A31515" font-size="15">done</text>
    <text x="412.6" y="285" fill="#A31515" font-size="15">&quot;</text>
    <text x="421.2" y="285" fill="#3B3B3B" font-size="15">)</text>
    <text x="26" y="307" fill="#6E7681" font-size="15">13</text>
    <text x="60.0" y="307" fill="#3B3B3B" font-size="15">}</text>
  </g>
</svg>
