<svg xmlns="http://www.w3.org/2000/svg" width="602" height="540" viewBox="0 0 602 540">
  <rect width="100%" height="100%" rx="8" fill="#FFFFFF"/>
  <g font-family="SFMono-Regular, Menlo, Monaco, Consolas, 'Liberation Mono', monospace" xml:space="preserve">
    <text x="26" y="43" fill="#6E7681" font-size="15"> 1</text>
    <text x="60.0" y="43" fill="#0000FF" font-size="15">struct</text>
    <text x="111.6" y="43" fill="#3B3B3B" font-size="15"> </text>
    <text x="120.2" y="43" fill="#267F99" font-size="15">Point</text>
    <text x="26" y="65" fill="#6E7681" font-size="15"> 2</text>
    <text x="26" y="87" fill="#6E7681" font-size="15"> 3</text>
    <text x="60.0" y="87" fill="#0000FF" font-size="15">enum</text>
    <text x="94.4" y="87" fill="#3B3B3B" font-size="15"> </text>
    <text x="103.0" y="87" fill="#267F99" font-size="15">Shape</text>
    <text x="146.0" y="87" fill="#3B3B3B" font-size="15"> </text>
    <text x="154.6" y="87" fill="#3B3B3B" font-size="15">{</text>
    <text x="26" y="109" fill="#6E7681" font-size="15"> 4</text>
    <text x="60.0" y="109" fill="#3B3B3B" font-size="15">  </text>
    <text x="77.2" y="109" fill="#267F99" font-size="15">Circle</text>
    <text x="128.8" y="109" fill="#3B3B3B" font-size="15">(</text>
    <text x="137.4" y="109" fill="#267F99" font-size="15">Point</text>
    <text x="180.4" y="109" fill="#3B3B3B" font-size="15">)</text>
    <text x="26" y="131" fill="#6E7681" font-size="15"> 5</text>
    <text x="60.0" y="131" fill="#3B3B3B" font-size="15">}</text>
    <text x="26" y="153" fill="#6E7681" font-size="15"> 6</text>
    <text x="26" y="175" fill="#6E7681" font-size="15"> 7</text>
    <text x="60.0" y="175" fill="#0000FF" font-size="15">trait</text>
    <text x="103.0" y="175" fill="#3B3B3B" font-size="15"> </text>
    <text x="111.6" y="175" fill="#267F99" font-size="15">Drawable</text>
    <text x="180.4" y="175" fill="#3B3B3B" font-size="15"> </text>
    <text x="189.0" y="175" fill="#3B3B3B" font-size="15">{</text>
    <text x="26" y="197" fill="#6E7681" font-size="15"> 8</text>
    <text x="60.0" y="197" fill="#3B3B3B" font-size="15">  </text>
    <text x="77.2" y="197" fill="#795E26" font-size="15">draw</text>
    <text x="111.6" y="197" fill="#3B3B3B" font-size="15">(</text>
    <text x="120.2" y="197" fill="#267F99" font-size="15">Self</text>
    <text x="154.6" y="197" fill="#3B3B3B" font-size="15">)</text>
    <text x="163.2" y="197" fill="#3B3B3B" font-size="15"> </text>
    <text x="171.8" y="197" fill="#0000FF" font-size="15">-&gt;</text>
    <text x="189.0" y="197" fill="#3B3B3B" font-size="15"> </text>
    <text x="197.6" y="197" fill="#267F99" font-size="15">Unit</text>
    <text x="26" y="219" fill="#6E7681" font-size="15"> 9</text>
    <text x="60.0" y="219" fill="#3B3B3B" font-size="15">}</text>
    <text x="26" y="241" fill="#6E7681" font-size="15">10</text>
    <text x="26" y="263" fill="#6E7681" font-size="15">11</text>
    <text x="60.0" y="263" fill="#0000FF" font-size="15">struct</text>
    <text x="111.6" y="263" fill="#3B3B3B" font-size="15"> </text>
    <text x="120.2" y="263" fill="#267F99" font-size="15">Task</text>
    <text x="154.6" y="263" fill="#3B3B3B" font-size="15">[</text>
    <text x="163.2" y="263" fill="#267F99" font-size="15">X</text>
    <text x="171.8" y="263" fill="#3B3B3B" font-size="15">]</text>
    <text x="180.4" y="263" fill="#3B3B3B" font-size="15"> </text>
    <text x="189.0" y="263" fill="#3B3B3B" font-size="15">{</text>
    <text x="26" y="285" fill="#6E7681" font-size="15">12</text>
    <text x="60.0" y="285" fill="#3B3B3B" font-size="15">  </text>
    <text x="77.2" y="285" fill="#001080" font-size="15">value</text>
    <text x="120.2" y="285" fill="#3B3B3B" font-size="15"> </text>
    <text x="128.8" y="285" fill="#3B3B3B" font-size="15">:</text>
    <text x="137.4" y="285" fill="#3B3B3B" font-size="15"> </text>
    <text x="146.0" y="285" fill="#267F99" font-size="15">Ref</text>
    <text x="171.8" y="285" fill="#3B3B3B" font-size="15">[</text>
    <text x="180.4" y="285" fill="#267F99" font-size="15">X?</text>
    <text x="197.6" y="285" fill="#3B3B3B" font-size="15">]</text>
    <text x="26" y="307" fill="#6E7681" font-size="15">13</text>
    <text x="60.0" y="307" fill="#3B3B3B" font-size="15">  </text>
    <text x="77.2" y="307" fill="#001080" font-size="15">coro</text>
    <text x="111.6" y="307" fill="#3B3B3B" font-size="15"> </text>
    <text x="120.2" y="307" fill="#3B3B3B" font-size="15">:</text>
    <text x="128.8" y="307" fill="#3B3B3B" font-size="15"> </text>
    <text x="137.4" y="307" fill="#267F99" font-size="15">@coroutine</text>
    <text x="223.4" y="307" fill="#3B3B3B" font-size="15">.</text>
    <text x="232.0" y="307" fill="#267F99" font-size="15">Coroutine</text>
    <text x="26" y="329" fill="#6E7681" font-size="15">14</text>
    <text x="60.0" y="329" fill="#3B3B3B" font-size="15">}</text>
    <text x="26" y="351" fill="#6E7681" font-size="15">15</text>
    <text x="26" y="373" fill="#6E7681" font-size="15">16</text>
    <text x="60.0" y="373" fill="#0000FF" font-size="15">impl</text>
    <text x="94.4" y="373" fill="#3B3B3B" font-size="15"> </text>
    <text x="103.0" y="373" fill="#267F99" font-size="15">Drawable</text>
    <text x="171.8" y="373" fill="#3B3B3B" font-size="15"> </text>
    <text x="180.4" y="373" fill="#0000FF" font-size="15">for</text>
    <text x="206.2" y="373" fill="#3B3B3B" font-size="15"> </text>
    <text x="214.8" y="373" fill="#267F99" font-size="15">Shape</text>
    <text x="257.8" y="373" fill="#3B3B3B" font-size="15"> </text>
    <text x="266.4" y="373" fill="#0000FF" font-size="15">with</text>
    <text x="300.8" y="373" fill="#3B3B3B" font-size="15"> </text>
    <text x="309.4" y="373" fill="#0000FF" font-size="15">fn</text>
    <text x="326.6" y="373" fill="#3B3B3B" font-size="15"> </text>
    <text x="335.2" y="373" fill="#795E26" font-size="15">draw</text>
    <text x="369.6" y="373" fill="#3B3B3B" font-size="15">(</text>
    <text x="378.2" y="373" fill="#001080" font-size="15">self</text>
    <text x="412.6" y="373" fill="#3B3B3B" font-size="15"> </text>
    <text x="421.2" y="373" fill="#3B3B3B" font-size="15">:</text>
    <text x="429.8" y="373" fill="#3B3B3B" font-size="15"> </text>
    <text x="438.4" y="373" fill="#267F99" font-size="15">Shape</text>
    <text x="481.4" y="373" fill="#3B3B3B" font-size="15">)</text>
    <text x="490.0" y="373" fill="#3B3B3B" font-size="15"> </text>
    <text x="498.6" y="373" fill="#0000FF" font-size="15">-&gt;</text>
    <text x="515.8" y="373" fill="#3B3B3B" font-size="15"> </text>
    <text x="524.4" y="373" fill="#267F99" font-size="15">Unit</text>
    <text x="558.8" y="373" fill="#3B3B3B" font-size="15"> </text>
    <text x="567.4" y="373" fill="#3B3B3B" font-size="15">{</text>
    <text x="26" y="395" fill="#6E7681" font-size="15">17</text>
    <text x="60.0" y="395" fill="#3B3B3B" font-size="15">  </text>
    <text x="77.2" y="395" fill="#3B3B3B" font-size="15">(</text>
    <text x="85.8" y="395" fill="#3B3B3B" font-size="15">)</text>
    <text x="26" y="417" fill="#6E7681" font-size="15">18</text>
    <text x="60.0" y="417" fill="#3B3B3B" font-size="15">}</text>
    <text x="26" y="439" fill="#6E7681" font-size="15">19</text>
    <text x="26" y="461" fill="#6E7681" font-size="15">20</text>
    <text x="60.0" y="461" fill="#0000FF" font-size="15">typealias</text>
    <text x="137.4" y="461" fill="#3B3B3B" font-size="15"> </text>
    <text x="146.0" y="461" fill="#267F99" font-size="15">Array</text>
    <text x="189.0" y="461" fill="#3B3B3B" font-size="15"> </text>
    <text x="197.6" y="461" fill="#0000FF" font-size="15">as</text>
    <text x="214.8" y="461" fill="#3B3B3B" font-size="15"> </text>
    <text x="223.4" y="461" fill="#267F99" font-size="15">ArrayAlias</text>
    <text x="26" y="483" fill="#6E7681" font-size="15">21</text>
    <text x="26" y="505" fill="#6E7681" font-size="15">22</text>
    <text x="60.0" y="505" fill="#0000FF" font-size="15">traitalias</text>
    <text x="146.0" y="505" fill="#3B3B3B" font-size="15"> </text>
    <text x="154.6" y="505" fill="#267F99" font-size="15">Hashable</text>
    <text x="223.4" y="505" fill="#3B3B3B" font-size="15"> </text>
    <text x="232.0" y="505" fill="#000000" font-size="15">=</text>
    <text x="240.6" y="505" fill="#3B3B3B" font-size="15"> </text>
    <text x="249.2" y="505" fill="#267F99" font-size="15">Hash</text>
  </g>
</svg>
