<svg xmlns="http://www.w3.org/2000/svg" width="258" height="232" viewBox="0 0 258 232">
  <rect width="100%" height="100%" rx="8" fill="#FFFFFF"/>
  <g font-family="SFMono-Regular, Menlo, Monaco, Consolas, 'Liberation Mono', monospace" xml:space="preserve">
    <text x="26" y="43" fill="#6E7681" font-size="15"> 1</text>
    <text x="60.0" y="43" fill="#0000FF" font-size="15">test</text>
    <text x="94.4" y="43" fill="#3B3B3B" font-size="15"> </text>
    <text x="103.0" y="43" fill="#3B3B3B" font-size="15">{</text>
    <text x="26" y="65" fill="#6E7681" font-size="15"> 2</text>
    <text x="60.0" y="65" fill="#3B3B3B" font-size="15">  </text>
    <text x="77.2" y="65" fill="#0000FF" font-size="15">let</text>
    <text x="103.0" y="65" fill="#3B3B3B" font-size="15"> </text>
    <text x="111.6" y="65" fill="#001080" font-size="15">xs</text>
    <text x="128.8" y="65" fill="#3B3B3B" font-size="15"> </text>
    <text x="137.4" y="65" fill="#000000" font-size="15">=</text>
    <text x="146.0" y="65" fill="#3B3B3B" font-size="15"> </text>
    <text x="154.6" y="65" fill="#3B3B3B" font-size="15">[</text>
    <text x="163.2" y="65" fill="#3B3B3B" font-size="15">]</text>
    <text x="26" y="87" fill="#6E7681" font-size="15"> 3</text>
    <text x="60.0" y="87" fill="#3B3B3B" font-size="15">  </text>
    <text x="77.2" y="87" fill="#AF00DB" font-size="15">match</text>
    <text x="120.2" y="87" fill="#3B3B3B" font-size="15"> </text>
    <text x="128.8" y="87" fill="#001080" font-size="15">xs</text>
    <text x="146.0" y="87" fill="#3B3B3B" font-size="15"> </text>
    <text x="154.6" y="87" fill="#3B3B3B" font-size="15">{</text>
    <text x="26" y="109" fill="#6E7681" font-size="15"> 4</text>
    <text x="60.0" y="109" fill="#3B3B3B" font-size="15">    </text>
    <text x="94.4" y="109" fill="#3B3B3B" font-size="15">[</text>
    <text x="103.0" y="109" fill="#3B3B3B" font-size="15">]</text>
    <text x="111.6" y="109" fill="#3B3B3B" font-size="15"> </text>
    <text x="120.2" y="109" fill="#0000FF" font-size="15">=&gt;</text>
    <text x="137.4" y="109" fill="#3B3B3B" font-size="15"> </text>
    <text x="146.0" y="109" fill="#3B3B3B" font-size="15">(</text>
    <text x="154.6" y="109" fill="#3B3B3B" font-size="15">)</text>
    <text x="26" y="131" fill="#6E7681" font-size="15"> 5</text>
    <text x="60.0" y="131" fill="#3B3B3B" font-size="15">    </text>
    <text x="94.4" y="131" fill="#3B3B3B" font-size="15">[</text>
    <text x="103.0" y="131" fill="#001080" font-size="15">x</text>
    <text x="111.6" y="131" fill="#3B3B3B" font-size="15">,</text>
    <text x="120.2" y="131" fill="#3B3B3B" font-size="15"> </text>
    <text x="128.8" y="131" fill="#000000" font-size="15">..</text>
    <text x="146.0" y="131" fill="#3B3B3B" font-size="15"> </text>
    <text x="154.6" y="131" fill="#001080" font-size="15">xs</text>
    <text x="171.8" y="131" fill="#3B3B3B" font-size="15">]</text>
    <text x="180.4" y="131" fill="#3B3B3B" font-size="15"> </text>
    <text x="189.0" y="131" fill="#0000FF" font-size="15">=&gt;</text>
    <text x="206.2" y="131" fill="#3B3B3B" font-size="15"> </text>
    <text x="214.8" y="131" fill="#3B3B3B" font-size="15">(</text>
    <text x="223.4" y="131" fill="#3B3B3B" font-size="15">)</text>
    <text x="26" y="153" fill="#6E7681" font-size="15"> 6</text>
    <text x="60.0" y="153" fill="#3B3B3B" font-size="15">  </text>
    <text x="77.2" y="153" fill="#3B3B3B" font-size="15">}</text>
    <text x="26" y="175" fill="#6E7681" font-size="15"> 7</text>
    <text x="60.0" y="175" fill="#3B3B3B" font-size="15">  </text>
    <text x="77.2" y="175" fill="#0000FF" font-size="15">let</text>
    <text x="103.0" y="175" fill="#3B3B3B" font-size="15"> </text>
    <text x="111.6" y="175" fill="#001080" font-size="15">ys</text>
    <text x="128.8" y="175" fill="#3B3B3B" font-size="15"> </text>
    <text x="137.4" y="175" fill="#000000" font-size="15">=</text>
    <text x="146.0" y="175" fill="#3B3B3B" font-size="15"> </text>
    <text x="154.6" y="175" fill="#3B3B3B" font-size="15">[</text>
    <text x="163.2" y="175" fill="#000000" font-size="15">..</text>
    <text x="180.4" y="175" fill="#001080" font-size="15">xs</text>
    <text x="197.6" y="175" fill="#3B3B3B" font-size="15">]</text>
    <text x="26" y="197" fill="#6E7681" font-size="15"> 8</text>
    <text x="60.0" y="197" fill="#3B3B3B" font-size="15">}</text>
  </g>
</svg>
