<svg xmlns="http://www.w3.org/2000/svg" width="749" height="1354" viewBox="0 0 749 1354">
  <rect width="100%" height="100%" rx="8" fill="#FFFFFF"/>
  <g font-family="SFMono-Regular, Menlo, Monaco, Consolas, 'Liberation Mono', monospace" xml:space="preserve">
    <text x="26" y="43" fill="#6E7681" font-size="15"> 1</text>
    <text x="60.0" y="43" fill="#0000FF" font-size="15">enum</text>
    <text x="94.4" y="43" fill="#3B3B3B" font-size="15"> </text>
    <text x="103.0" y="43" fill="#267F99" font-size="15">Lst</text>
    <text x="128.8" y="43" fill="#3B3B3B" font-size="15">[</text>
    <text x="137.4" y="43" fill="#267F99" font-size="15">T</text>
    <text x="146.0" y="43" fill="#3B3B3B" font-size="15">]</text>
    <text x="154.6" y="43" fill="#3B3B3B" font-size="15"> </text>
    <text x="163.2" y="43" fill="#3B3B3B" font-size="15">{</text>
    <text x="26" y="65" fill="#6E7681" font-size="15"> 2</text>
    <text x="60.0" y="65" fill="#3B3B3B" font-size="15">  </text>
    <text x="77.2" y="65" fill="#267F99" font-size="15">Nil</text>
    <text x="26" y="87" fill="#6E7681" font-size="15"> 3</text>
    <text x="60.0" y="87" fill="#3B3B3B" font-size="15">  </text>
    <text x="77.2" y="87" fill="#267F99" font-size="15">Cons</text>
    <text x="111.6" y="87" fill="#3B3B3B" font-size="15">(</text>
    <text x="120.2" y="87" fill="#267F99" font-size="15">T</text>
    <text x="128.8" y="87" fill="#3B3B3B" font-size="15">,</text>
    <text x="137.4" y="87" fill="#3B3B3B" font-size="15"> </text>
    <text x="146.0" y="87" fill="#267F99" font-size="15">Lst</text>
    <text x="171.8" y="87" fill="#3B3B3B" font-size="15">[</text>
    <text x="180.4" y="87" fill="#267F99" font-size="15">T</text>
    <text x="189.0" y="87" fill="#3B3B3B" font-size="15">]</text>
    <text x="197.6" y="87" fill="#3B3B3B" font-size="15">)</text>
    <text x="26" y="109" fill="#6E7681" font-size="15"> 4</text>
    <text x="60.0" y="109" fill="#3B3B3B" font-size="15">}</text>
    <text x="26" y="131" fill="#6E7681" font-size="15"> 5</text>
    <text x="26" y="153" fill="#6E7681" font-size="15"> 6</text>
    <text x="60.0" y="153" fill="#0000FF" font-size="15">enumview</text>
    <text x="128.8" y="153" fill="#3B3B3B" font-size="15">[</text>
    <text x="137.4" y="153" fill="#267F99" font-size="15">A</text>
    <text x="146.0" y="153" fill="#3B3B3B" font-size="15">:</text>
    <text x="154.6" y="153" fill="#3B3B3B" font-size="15"> </text>
    <text x="163.2" y="153" fill="#267F99" font-size="15">Show</text>
    <text x="197.6" y="153" fill="#3B3B3B" font-size="15">]</text>
    <text x="206.2" y="153" fill="#3B3B3B" font-size="15"> </text>
    <text x="214.8" y="153" fill="#267F99" font-size="15">ViewList</text>
    <text x="283.6" y="153" fill="#3B3B3B" font-size="15"> </text>
    <text x="292.2" y="153" fill="#3B3B3B" font-size="15">{</text>
    <text x="26" y="175" fill="#6E7681" font-size="15"> 7</text>
    <text x="60.0" y="175" fill="#3B3B3B" font-size="15">  </text>
    <text x="77.2" y="175" fill="#267F99" font-size="15">VNil</text>
    <text x="26" y="197" fill="#6E7681" font-size="15"> 8</text>
    <text x="60.0" y="197" fill="#3B3B3B" font-size="15">  </text>
    <text x="77.2" y="197" fill="#267F99" font-size="15">VCons</text>
    <text x="120.2" y="197" fill="#3B3B3B" font-size="15">(</text>
    <text x="128.8" y="197" fill="#267F99" font-size="15">String</text>
    <text x="180.4" y="197" fill="#3B3B3B" font-size="15">,</text>
    <text x="189.0" y="197" fill="#3B3B3B" font-size="15"> </text>
    <text x="197.6" y="197" fill="#267F99" font-size="15">Lst</text>
    <text x="223.4" y="197" fill="#3B3B3B" font-size="15">[</text>
    <text x="232.0" y="197" fill="#267F99" font-size="15">A</text>
    <text x="240.6" y="197" fill="#3B3B3B" font-size="15">]</text>
    <text x="249.2" y="197" fill="#3B3B3B" font-size="15">)</text>
    <text x="26" y="219" fill="#6E7681" font-size="15"> 9</text>
    <text x="60.0" y="219" fill="#3B3B3B" font-size="15">}</text>
    <text x="68.6" y="219" fill="#3B3B3B" font-size="15"> </text>
    <text x="77.2" y="219" fill="#AF00DB" font-size="15">for</text>
    <text x="103.0" y="219" fill="#3B3B3B" font-size="15"> </text>
    <text x="111.6" y="219" fill="#267F99" font-size="15">Lst</text>
    <text x="137.4" y="219" fill="#3B3B3B" font-size="15">[</text>
    <text x="146.0" y="219" fill="#267F99" font-size="15">A</text>
    <text x="154.6" y="219" fill="#3B3B3B" font-size="15">]</text>
    <text x="163.2" y="219" fill="#3B3B3B" font-size="15"> </text>
    <text x="171.8" y="219" fill="#0000FF" font-size="15">with</text>
    <text x="206.2" y="219" fill="#3B3B3B" font-size="15"> </text>
    <text x="214.8" y="219" fill="#795E26" font-size="15">view</text>
    <text x="249.2" y="219" fill="#3B3B3B" font-size="15">(</text>
    <text x="257.8" y="219" fill="#001080" font-size="15">xs</text>
    <text x="275.0" y="219" fill="#3B3B3B" font-size="15">:</text>
    <text x="283.6" y="219" fill="#3B3B3B" font-size="15"> </text>
    <text x="292.2" y="219" fill="#267F99" font-size="15">Lst</text>
    <text x="318.0" y="219" fill="#3B3B3B" font-size="15">[</text>
    <text x="326.6" y="219" fill="#267F99" font-size="15">A</text>
    <text x="335.2" y="219" fill="#3B3B3B" font-size="15">]</text>
    <text x="343.8" y="219" fill="#3B3B3B" font-size="15">)</text>
    <text x="352.4" y="219" fill="#3B3B3B" font-size="15"> </text>
    <text x="361.0" y="219" fill="#3B3B3B" font-size="15">{</text>
    <text x="26" y="241" fill="#6E7681" font-size="15">10</text>
    <text x="60.0" y="241" fill="#3B3B3B" font-size="15">  </text>
    <text x="77.2" y="241" fill="#AF00DB" font-size="15">match</text>
    <text x="120.2" y="241" fill="#3B3B3B" font-size="15"> </text>
    <text x="128.8" y="241" fill="#001080" font-size="15">xs</text>
    <text x="146.0" y="241" fill="#3B3B3B" font-size="15"> </text>
    <text x="154.6" y="241" fill="#3B3B3B" font-size="15">{</text>
    <text x="26" y="263" fill="#6E7681" font-size="15">11</text>
    <text x="60.0" y="263" fill="#3B3B3B" font-size="15">    </text>
    <text x="94.4" y="263" fill="#267F99" font-size="15">Nil</text>
    <text x="120.2" y="263" fill="#3B3B3B" font-size="15"> </text>
    <text x="128.8" y="263" fill="#0000FF" font-size="15">=&gt;</text>
    <text x="146.0" y="263" fill="#3B3B3B" font-size="15"> </text>
    <text x="154.6" y="263" fill="#267F99" font-size="15">VNil</text>
    <text x="26" y="285" fill="#6E7681" font-size="15">12</text>
    <text x="60.0" y="285" fill="#3B3B3B" font-size="15">    </text>
    <text x="94.4" y="285" fill="#267F99" font-size="15">Cons</text>
    <text x="128.8" y="285" fill="#3B3B3B" font-size="15">(</text>
    <text x="137.4" y="285" fill="#001080" font-size="15">x</text>
    <text x="146.0" y="285" fill="#3B3B3B" font-size="15">,</text>
    <text x="154.6" y="285" fill="#3B3B3B" font-size="15"> </text>
    <text x="163.2" y="285" fill="#001080" font-size="15">xs</text>
    <text x="180.4" y="285" fill="#3B3B3B" font-size="15">)</text>
    <text x="189.0" y="285" fill="#3B3B3B" font-size="15"> </text>
    <text x="197.6" y="285" fill="#0000FF" font-size="15">=&gt;</text>
    <text x="214.8" y="285" fill="#3B3B3B" font-size="15"> </text>
    <text x="223.4" y="285" fill="#267F99" font-size="15">VCons</text>
    <text x="266.4" y="285" fill="#3B3B3B" font-size="15">(</text>
    <text x="275.0" y="285" fill="#001080" font-size="15">x</text>
    <text x="283.6" y="285" fill="#3B3B3B" font-size="15">.</text>
    <text x="292.2" y="285" fill="#795E26" font-size="15">to_string</text>
    <text x="369.6" y="285" fill="#3B3B3B" font-size="15">(</text>
    <text x="378.2" y="285" fill="#3B3B3B" font-size="15">)</text>
    <text x="386.8" y="285" fill="#3B3B3B" font-size="15">,</text>
    <text x="395.4" y="285" fill="#3B3B3B" font-size="15"> </text>
    <text x="404.0" y="285" fill="#001080" font-size="15">xs</text>
    <text x="421.2" y="285" fill="#3B3B3B" font-size="15">)</text>
    <text x="26" y="307" fill="#6E7681" font-size="15">13</text>
    <text x="60.0" y="307" fill="#3B3B3B" font-size="15">  </text>
    <text x="77.2" y="307" fill="#3B3B3B" font-size="15">}</text>
    <text x="26" y="329" fill="#6E7681" font-size="15">14</text>
    <text x="60.0" y="329" fill="#3B3B3B" font-size="15">}</text>
    <text x="26" y="351" fill="#6E7681" font-size="15">15</text>
    <text x="26" y="373" fill="#6E7681" font-size="15">16</text>
    <text x="60.0" y="373" fill="#0000FF" font-size="15">pub</text>
    <text x="85.8" y="373" fill="#3B3B3B" font-size="15"> </text>
    <text x="94.4" y="373" fill="#0000FF" font-size="15">extenum</text>
    <text x="154.6" y="373" fill="#3B3B3B" font-size="15"> </text>
    <text x="163.2" y="373" fill="#267F99" font-size="15">Expr</text>
    <text x="197.6" y="373" fill="#3B3B3B" font-size="15">[</text>
    <text x="206.2" y="373" fill="#267F99" font-size="15">T</text>
    <text x="214.8" y="373" fill="#3B3B3B" font-size="15">]</text>
    <text x="223.4" y="373" fill="#3B3B3B" font-size="15"> </text>
    <text x="232.0" y="373" fill="#3B3B3B" font-size="15">{</text>
    <text x="26" y="395" fill="#6E7681" font-size="15">17</text>
    <text x="60.0" y="395" fill="#3B3B3B" font-size="15">  </text>
    <text x="77.2" y="395" fill="#267F99" font-size="15">Int</text>
    <text x="103.0" y="395" fill="#3B3B3B" font-size="15">(</text>
    <text x="111.6" y="395" fill="#267F99" font-size="15">T</text>
    <text x="120.2" y="395" fill="#3B3B3B" font-size="15">)</text>
    <text x="26" y="417" fill="#6E7681" font-size="15">18</text>
    <text x="60.0" y="417" fill="#3B3B3B" font-size="15">  </text>
    <text x="77.2" y="417" fill="#267F99" font-size="15">Add</text>
    <text x="103.0" y="417" fill="#3B3B3B" font-size="15">(</text>
    <text x="111.6" y="417" fill="#267F99" font-size="15">Expr</text>
    <text x="146.0" y="417" fill="#3B3B3B" font-size="15">[</text>
    <text x="154.6" y="417" fill="#267F99" font-size="15">T</text>
    <text x="163.2" y="417" fill="#3B3B3B" font-size="15">]</text>
    <text x="171.8" y="417" fill="#3B3B3B" font-size="15">,</text>
    <text x="180.4" y="417" fill="#3B3B3B" font-size="15"> </text>
    <text x="189.0" y="417" fill="#267F99" font-size="15">Expr</text>
    <text x="223.4" y="417" fill="#3B3B3B" font-size="15">[</text>
    <text x="232.0" y="417" fill="#267F99" font-size="15">T</text>
    <text x="240.6" y="417" fill="#3B3B3B" font-size="15">]</text>
    <text x="249.2" y="417" fill="#3B3B3B" font-size="15">)</text>
    <text x="26" y="439" fill="#6E7681" font-size="15">19</text>
    <text x="60.0" y="439" fill="#3B3B3B" font-size="15">}</text>
    <text x="26" y="461" fill="#6E7681" font-size="15">20</text>
    <text x="26" y="483" fill="#6E7681" font-size="15">21</text>
    <text x="60.0" y="483" fill="#0000FF" font-size="15">extenum</text>
    <text x="120.2" y="483" fill="#3B3B3B" font-size="15"> </text>
    <text x="128.8" y="483" fill="#267F99" font-size="15">Expr</text>
    <text x="163.2" y="483" fill="#3B3B3B" font-size="15">[</text>
    <text x="171.8" y="483" fill="#267F99" font-size="15">T</text>
    <text x="180.4" y="483" fill="#3B3B3B" font-size="15">]</text>
    <text x="189.0" y="483" fill="#3B3B3B" font-size="15"> </text>
    <text x="197.6" y="483" fill="#000000" font-size="15">+=</text>
    <text x="214.8" y="483" fill="#3B3B3B" font-size="15"> </text>
    <text x="223.4" y="483" fill="#3B3B3B" font-size="15">{</text>
    <text x="26" y="505" fill="#6E7681" font-size="15">22</text>
    <text x="60.0" y="505" fill="#3B3B3B" font-size="15">  </text>
    <text x="77.2" y="505" fill="#267F99" font-size="15">Mul</text>
    <text x="103.0" y="505" fill="#3B3B3B" font-size="15">(</text>
    <text x="111.6" y="505" fill="#267F99" font-size="15">Expr</text>
    <text x="146.0" y="505" fill="#3B3B3B" font-size="15">[</text>
    <text x="154.6" y="505" fill="#267F99" font-size="15">T</text>
    <text x="163.2" y="505" fill="#3B3B3B" font-size="15">]</text>
    <text x="171.8" y="505" fill="#3B3B3B" font-size="15">,</text>
    <text x="180.4" y="505" fill="#3B3B3B" font-size="15"> </text>
    <text x="189.0" y="505" fill="#267F99" font-size="15">Expr</text>
    <text x="223.4" y="505" fill="#3B3B3B" font-size="15">[</text>
    <text x="232.0" y="505" fill="#267F99" font-size="15">T</text>
    <text x="240.6" y="505" fill="#3B3B3B" font-size="15">]</text>
    <text x="249.2" y="505" fill="#3B3B3B" font-size="15">)</text>
    <text x="26" y="527" fill="#6E7681" font-size="15">23</text>
    <text x="60.0" y="527" fill="#3B3B3B" font-size="15">}</text>
    <text x="26" y="549" fill="#6E7681" font-size="15">24</text>
    <text x="26" y="571" fill="#6E7681" font-size="15">25</text>
    <text x="60.0" y="571" fill="#0000FF" font-size="15">trait</text>
    <text x="103.0" y="571" fill="#3B3B3B" font-size="15"> </text>
    <text x="111.6" y="571" fill="#267F99" font-size="15">Add</text>
    <text x="137.4" y="571" fill="#3B3B3B" font-size="15"> </text>
    <text x="146.0" y="571" fill="#3B3B3B" font-size="15">{</text>
    <text x="26" y="593" fill="#6E7681" font-size="15">26</text>
    <text x="60.0" y="593" fill="#3B3B3B" font-size="15">  </text>
    <text x="77.2" y="593" fill="#0000FF" font-size="15">fn</text>
    <text x="94.4" y="593" fill="#3B3B3B" font-size="15"> </text>
    <text x="103.0" y="593" fill="#795E26" font-size="15">f</text>
    <text x="111.6" y="593" fill="#3B3B3B" font-size="15">(</text>
    <text x="120.2" y="593" fill="#267F99" font-size="15">Int</text>
    <text x="146.0" y="593" fill="#3B3B3B" font-size="15">,</text>
    <text x="154.6" y="593" fill="#3B3B3B" font-size="15"> </text>
    <text x="163.2" y="593" fill="#267F99" font-size="15">Int</text>
    <text x="189.0" y="593" fill="#3B3B3B" font-size="15">)</text>
    <text x="197.6" y="593" fill="#3B3B3B" font-size="15"> </text>
    <text x="206.2" y="593" fill="#0000FF" font-size="15">-&gt;</text>
    <text x="223.4" y="593" fill="#3B3B3B" font-size="15"> </text>
    <text x="232.0" y="593" fill="#267F99" font-size="15">Int</text>
    <text x="26" y="615" fill="#6E7681" font-size="15">27</text>
    <text x="60.0" y="615" fill="#3B3B3B" font-size="15">}</text>
    <text x="26" y="637" fill="#6E7681" font-size="15">28</text>
    <text x="26" y="659" fill="#6E7681" font-size="15">29</text>
    <text x="60.0" y="659" fill="#0000FF" font-size="15">impl</text>
    <text x="94.4" y="659" fill="#3B3B3B" font-size="15"> </text>
    <text x="103.0" y="659" fill="#267F99" font-size="15">Add</text>
    <text x="128.8" y="659" fill="#3B3B3B" font-size="15"> </text>
    <text x="137.4" y="659" fill="#0000FF" font-size="15">with</text>
    <text x="171.8" y="659" fill="#3B3B3B" font-size="15"> </text>
    <text x="180.4" y="659" fill="#795E26" font-size="15">f</text>
    <text x="189.0" y="659" fill="#3B3B3B" font-size="15">(</text>
    <text x="197.6" y="659" fill="#001080" font-size="15">x</text>
    <text x="206.2" y="659" fill="#3B3B3B" font-size="15"> </text>
    <text x="214.8" y="659" fill="#3B3B3B" font-size="15">:</text>
    <text x="223.4" y="659" fill="#3B3B3B" font-size="15"> </text>
    <text x="232.0" y="659" fill="#267F99" font-size="15">Int</text>
    <text x="257.8" y="659" fill="#3B3B3B" font-size="15">,</text>
    <text x="266.4" y="659" fill="#3B3B3B" font-size="15"> </text>
    <text x="275.0" y="659" fill="#001080" font-size="15">y</text>
    <text x="283.6" y="659" fill="#3B3B3B" font-size="15"> </text>
    <text x="292.2" y="659" fill="#3B3B3B" font-size="15">:</text>
    <text x="300.8" y="659" fill="#3B3B3B" font-size="15"> </text>
    <text x="309.4" y="659" fill="#267F99" font-size="15">Int</text>
    <text x="335.2" y="659" fill="#3B3B3B" font-size="15">)</text>
    <text x="343.8" y="659" fill="#3B3B3B" font-size="15"> </text>
    <text x="352.4" y="659" fill="#0000FF" font-size="15">-&gt;</text>
    <text x="369.6" y="659" fill="#3B3B3B" font-size="15"> </text>
    <text x="378.2" y="659" fill="#267F99" font-size="15">Int</text>
    <text x="404.0" y="659" fill="#3B3B3B" font-size="15"> </text>
    <text x="412.6" y="659" fill="#000000" font-size="15">=</text>
    <text x="421.2" y="659" fill="#3B3B3B" font-size="15"> </text>
    <text x="429.8" y="659" fill="#A31515" font-size="15">&quot;</text>
    <text x="438.4" y="659" fill="#A31515" font-size="15">%i32.add</text>
    <text x="507.2" y="659" fill="#A31515" font-size="15">&quot;</text>
    <text x="26" y="681" fill="#6E7681" font-size="15">30</text>
    <text x="26" y="703" fill="#6E7681" font-size="15">31</text>
    <text x="60.0" y="703" fill="#0000FF" font-size="15">const</text>
    <text x="103.0" y="703" fill="#3B3B3B" font-size="15"> </text>
    <text x="111.6" y="703" fill="#267F99" font-size="15">COMMENT_START</text>
    <text x="223.4" y="703" fill="#3B3B3B" font-size="15"> </text>
    <text x="232.0" y="703" fill="#000000" font-size="15">=</text>
    <text x="240.6" y="703" fill="#3B3B3B" font-size="15"> </text>
    <text x="249.2" y="703" fill="#811F3F" font-size="15">re</text>
    <text x="266.4" y="703" fill="#811F3F" font-size="15">&quot;</text>
    <text x="275.0" y="703" fill="#811F3F" font-size="15">/\*</text>
    <text x="300.8" y="703" fill="#811F3F" font-size="15">&quot;</text>
    <text x="26" y="725" fill="#6E7681" font-size="15">32</text>
    <text x="60.0" y="725" fill="#0000FF" font-size="15">const</text>
    <text x="103.0" y="725" fill="#3B3B3B" font-size="15"> </text>
    <text x="111.6" y="725" fill="#267F99" font-size="15">COMMENT_END</text>
    <text x="206.2" y="725" fill="#3B3B3B" font-size="15"> </text>
    <text x="214.8" y="725" fill="#000000" font-size="15">=</text>
    <text x="223.4" y="725" fill="#3B3B3B" font-size="15"> </text>
    <text x="232.0" y="725" fill="#811F3F" font-size="15">re</text>
    <text x="249.2" y="725" fill="#811F3F" font-size="15">&quot;</text>
    <text x="257.8" y="725" fill="#EE0000" font-size="15">\*</text>
    <text x="275.0" y="725" fill="#811F3F" font-size="15">/</text>
    <text x="283.6" y="725" fill="#811F3F" font-size="15">&quot;</text>
    <text x="26" y="747" fill="#6E7681" font-size="15">33</text>
    <text x="60.0" y="747" fill="#0000FF" font-size="15">const</text>
    <text x="103.0" y="747" fill="#3B3B3B" font-size="15"> </text>
    <text x="111.6" y="747" fill="#267F99" font-size="15">BLANK_OPT</text>
    <text x="189.0" y="747" fill="#3B3B3B" font-size="15"> </text>
    <text x="197.6" y="747" fill="#000000" font-size="15">=</text>
    <text x="206.2" y="747" fill="#3B3B3B" font-size="15"> </text>
    <text x="214.8" y="747" fill="#811F3F" font-size="15">re</text>
    <text x="232.0" y="747" fill="#811F3F" font-size="15">&quot;</text>
    <text x="240.6" y="747" fill="#811F3F" font-size="15">[ \t]*</text>
    <text x="292.2" y="747" fill="#811F3F" font-size="15">&quot;</text>
    <text x="26" y="769" fill="#6E7681" font-size="15">34</text>
    <text x="60.0" y="769" fill="#0000FF" font-size="15">const</text>
    <text x="103.0" y="769" fill="#3B3B3B" font-size="15"> </text>
    <text x="111.6" y="769" fill="#267F99" font-size="15">ALT</text>
    <text x="137.4" y="769" fill="#3B3B3B" font-size="15"> </text>
    <text x="146.0" y="769" fill="#000000" font-size="15">=</text>
    <text x="154.6" y="769" fill="#3B3B3B" font-size="15"> </text>
    <text x="163.2" y="769" fill="#811F3F" font-size="15">re</text>
    <text x="180.4" y="769" fill="#811F3F" font-size="15">&quot;</text>
    <text x="189.0" y="769" fill="#811F3F" font-size="15">b</text>
    <text x="197.6" y="769" fill="#811F3F" font-size="15">&quot;</text>
    <text x="26" y="791" fill="#6E7681" font-size="15">35</text>
    <text x="60.0" y="791" fill="#0000FF" font-size="15">const</text>
    <text x="103.0" y="791" fill="#3B3B3B" font-size="15"> </text>
    <text x="111.6" y="791" fill="#267F99" font-size="15">SUFFIX</text>
    <text x="163.2" y="791" fill="#3B3B3B" font-size="15"> </text>
    <text x="171.8" y="791" fill="#000000" font-size="15">=</text>
    <text x="180.4" y="791" fill="#3B3B3B" font-size="15"> </text>
    <text x="189.0" y="791" fill="#811F3F" font-size="15">re</text>
    <text x="206.2" y="791" fill="#811F3F" font-size="15">&quot;</text>
    <text x="214.8" y="791" fill="#811F3F" font-size="15">bc</text>
    <text x="232.0" y="791" fill="#811F3F" font-size="15">&quot;</text>
    <text x="26" y="813" fill="#6E7681" font-size="15">36</text>
    <text x="26" y="835" fill="#6E7681" font-size="15">37</text>
    <text x="60.0" y="835" fill="#0000FF" font-size="15">fn</text>
    <text x="77.2" y="835" fill="#3B3B3B" font-size="15"> </text>
    <text x="85.8" y="835" fill="#795E26" font-size="15">optionals</text>
    <text x="163.2" y="835" fill="#3B3B3B" font-size="15">(</text>
    <text x="171.8" y="835" fill="#001080" font-size="15">x</text>
    <text x="180.4" y="835" fill="#000000" font-size="15">?</text>
    <text x="189.0" y="835" fill="#3B3B3B" font-size="15"> </text>
    <text x="197.6" y="835" fill="#000000" font-size="15">:</text>
    <text x="206.2" y="835" fill="#3B3B3B" font-size="15"> </text>
    <text x="214.8" y="835" fill="#267F99" font-size="15">Int</text>
    <text x="240.6" y="835" fill="#3B3B3B" font-size="15"> </text>
    <text x="249.2" y="835" fill="#000000" font-size="15">=</text>
    <text x="257.8" y="835" fill="#3B3B3B" font-size="15"> </text>
    <text x="266.4" y="835" fill="#267F99" font-size="15">Some</text>
    <text x="300.8" y="835" fill="#3B3B3B" font-size="15">(</text>
    <text x="309.4" y="835" fill="#098658" font-size="15">0</text>
    <text x="318.0" y="835" fill="#3B3B3B" font-size="15">)</text>
    <text x="326.6" y="835" fill="#3B3B3B" font-size="15">,</text>
    <text x="335.2" y="835" fill="#3B3B3B" font-size="15"> </text>
    <text x="343.8" y="835" fill="#001080" font-size="15">y</text>
    <text x="352.4" y="835" fill="#000000" font-size="15">?</text>
    <text x="361.0" y="835" fill="#3B3B3B" font-size="15"> </text>
    <text x="369.6" y="835" fill="#000000" font-size="15">:</text>
    <text x="378.2" y="835" fill="#3B3B3B" font-size="15"> </text>
    <text x="386.8" y="835" fill="#267F99" font-size="15">Int</text>
    <text x="412.6" y="835" fill="#3B3B3B" font-size="15">)</text>
    <text x="421.2" y="835" fill="#3B3B3B" font-size="15"> </text>
    <text x="429.8" y="835" fill="#0000FF" font-size="15">-&gt;</text>
    <text x="447.0" y="835" fill="#3B3B3B" font-size="15"> </text>
    <text x="455.6" y="835" fill="#267F99" font-size="15">Unit</text>
    <text x="490.0" y="835" fill="#3B3B3B" font-size="15"> </text>
    <text x="498.6" y="835" fill="#3B3B3B" font-size="15">{</text>
    <text x="26" y="857" fill="#6E7681" font-size="15">38</text>
    <text x="60.0" y="857" fill="#3B3B3B" font-size="15">  </text>
    <text x="77.2" y="857" fill="#795E26" font-size="15">f</text>
    <text x="85.8" y="857" fill="#3B3B3B" font-size="15">(</text>
    <text x="94.4" y="857" fill="#001080" font-size="15">x</text>
    <text x="103.0" y="857" fill="#000000" font-size="15">?</text>
    <text x="111.6" y="857" fill="#000000" font-size="15">=</text>
    <text x="120.2" y="857" fill="#098658" font-size="15">1</text>
    <text x="128.8" y="857" fill="#3B3B3B" font-size="15">)</text>
    <text x="26" y="879" fill="#6E7681" font-size="15">39</text>
    <text x="60.0" y="879" fill="#3B3B3B" font-size="15">  </text>
    <text x="77.2" y="879" fill="#795E26" font-size="15">f</text>
    <text x="85.8" y="879" fill="#3B3B3B" font-size="15">(</text>
    <text x="94.4" y="879" fill="#001080" font-size="15">y</text>
    <text x="103.0" y="879" fill="#000000" font-size="15">?</text>
    <text x="111.6" y="879" fill="#3B3B3B" font-size="15">)</text>
    <text x="26" y="901" fill="#6E7681" font-size="15">40</text>
    <text x="60.0" y="901" fill="#3B3B3B" font-size="15">}</text>
    <text x="26" y="923" fill="#6E7681" font-size="15">41</text>
    <text x="26" y="945" fill="#6E7681" font-size="15">42</text>
    <text x="60.0" y="945" fill="#0000FF" font-size="15">fn</text>
    <text x="77.2" y="945" fill="#3B3B3B" font-size="15"> </text>
    <text x="85.8" y="945" fill="#795E26" font-size="15">regressions</text>
    <text x="180.4" y="945" fill="#3B3B3B" font-size="15">(</text>
    <text x="189.0" y="945" fill="#001080" font-size="15">s</text>
    <text x="197.6" y="945" fill="#3B3B3B" font-size="15"> </text>
    <text x="206.2" y="945" fill="#000000" font-size="15">:</text>
    <text x="214.8" y="945" fill="#3B3B3B" font-size="15"> </text>
    <text x="223.4" y="945" fill="#267F99" font-size="15">StringView</text>
    <text x="309.4" y="945" fill="#3B3B3B" font-size="15">,</text>
    <text x="318.0" y="945" fill="#3B3B3B" font-size="15"> </text>
    <text x="326.6" y="945" fill="#001080" font-size="15">arr</text>
    <text x="352.4" y="945" fill="#3B3B3B" font-size="15"> </text>
    <text x="361.0" y="945" fill="#000000" font-size="15">:</text>
    <text x="369.6" y="945" fill="#3B3B3B" font-size="15"> </text>
    <text x="378.2" y="945" fill="#267F99" font-size="15">Array</text>
    <text x="421.2" y="945" fill="#3B3B3B" font-size="15">[</text>
    <text x="429.8" y="945" fill="#267F99" font-size="15">Int</text>
    <text x="455.6" y="945" fill="#3B3B3B" font-size="15">]</text>
    <text x="464.2" y="945" fill="#3B3B3B" font-size="15">)</text>
    <text x="472.8" y="945" fill="#3B3B3B" font-size="15"> </text>
    <text x="481.4" y="945" fill="#0000FF" font-size="15">-&gt;</text>
    <text x="498.6" y="945" fill="#3B3B3B" font-size="15"> </text>
    <text x="507.2" y="945" fill="#267F99" font-size="15">Unit</text>
    <text x="541.6" y="945" fill="#3B3B3B" font-size="15"> </text>
    <text x="550.2" y="945" fill="#3B3B3B" font-size="15">{</text>
    <text x="26" y="967" fill="#6E7681" font-size="15">43</text>
    <text x="60.0" y="967" fill="#3B3B3B" font-size="15">  </text>
    <text x="77.2" y="967" fill="#0000FF" font-size="15">letrec</text>
    <text x="128.8" y="967" fill="#3B3B3B" font-size="15"> </text>
    <text x="137.4" y="967" fill="#001080" font-size="15">even</text>
    <text x="171.8" y="967" fill="#000000" font-size="15"> :</text>
    <text x="189.0" y="967" fill="#3B3B3B" font-size="15"> </text>
    <text x="197.6" y="967" fill="#3B3B3B" font-size="15">(</text>
    <text x="206.2" y="967" fill="#267F99" font-size="15">Int</text>
    <text x="232.0" y="967" fill="#3B3B3B" font-size="15">)</text>
    <text x="240.6" y="967" fill="#3B3B3B" font-size="15"> -&gt; </text>
    <text x="275.0" y="967" fill="#267F99" font-size="15">Bool</text>
    <text x="309.4" y="967" fill="#3B3B3B" font-size="15"> </text>
    <text x="318.0" y="967" fill="#000000" font-size="15">=</text>
    <text x="326.6" y="967" fill="#3B3B3B" font-size="15"> </text>
    <text x="335.2" y="967" fill="#001080" font-size="15">x</text>
    <text x="343.8" y="967" fill="#3B3B3B" font-size="15"> </text>
    <text x="352.4" y="967" fill="#0000FF" font-size="15">=&gt;</text>
    <text x="369.6" y="967" fill="#3B3B3B" font-size="15"> </text>
    <text x="378.2" y="967" fill="#0000FF" font-size="15">true</text>
    <text x="412.6" y="967" fill="#3B3B3B" font-size="15"> </text>
    <text x="421.2" y="967" fill="#0000FF" font-size="15">and</text>
    <text x="447.0" y="967" fill="#3B3B3B" font-size="15"> </text>
    <text x="455.6" y="967" fill="#001080" font-size="15">odd</text>
    <text x="481.4" y="967" fill="#3B3B3B" font-size="15"> </text>
    <text x="490.0" y="967" fill="#000000" font-size="15">=</text>
    <text x="498.6" y="967" fill="#3B3B3B" font-size="15"> </text>
    <text x="507.2" y="967" fill="#3B3B3B" font-size="15">(</text>
    <text x="515.8" y="967" fill="#3B3B3B" font-size="15">)</text>
    <text x="524.4" y="967" fill="#3B3B3B" font-size="15"> </text>
    <text x="533.0" y="967" fill="#0000FF" font-size="15">=&gt;</text>
    <text x="550.2" y="967" fill="#3B3B3B" font-size="15"> </text>
    <text x="558.8" y="967" fill="#0000FF" font-size="15">true</text>
    <text x="26" y="989" fill="#6E7681" font-size="15">44</text>
    <text x="60.0" y="989" fill="#008000" font-size="15">// &lt;~~~~ storage.type.moonbit</text>
    <text x="26" y="1011" fill="#6E7681" font-size="15">45</text>
    <text x="60.0" y="1011" fill="#3B3B3B" font-size="15">  </text>
    <text x="77.2" y="1011" fill="#0000FF" font-size="15">let</text>
    <text x="103.0" y="1011" fill="#3B3B3B" font-size="15"> </text>
    <text x="111.6" y="1011" fill="#0000FF" font-size="15">_</text>
    <text x="120.2" y="1011" fill="#3B3B3B" font-size="15"> </text>
    <text x="128.8" y="1011" fill="#000000" font-size="15">=</text>
    <text x="137.4" y="1011" fill="#3B3B3B" font-size="15"> </text>
    <text x="146.0" y="1011" fill="#3B3B3B" font-size="15">(</text>
    <text x="154.6" y="1011" fill="#001080" font-size="15">a</text>
    <text x="163.2" y="1011" fill="#3B3B3B" font-size="15">:</text>
    <text x="171.8" y="1011" fill="#3B3B3B" font-size="15"> </text>
    <text x="180.4" y="1011" fill="#267F99" font-size="15">Int</text>
    <text x="206.2" y="1011" fill="#3B3B3B" font-size="15">)</text>
    <text x="26" y="1033" fill="#6E7681" font-size="15">46</text>
    <text x="60.0" y="1033" fill="#3B3B3B" font-size="15">  </text>
    <text x="77.2" y="1033" fill="#0000FF" font-size="15">let</text>
    <text x="103.0" y="1033" fill="#3B3B3B" font-size="15"> </text>
    <text x="111.6" y="1033" fill="#0000FF" font-size="15">_</text>
    <text x="120.2" y="1033" fill="#3B3B3B" font-size="15"> </text>
    <text x="128.8" y="1033" fill="#000000" font-size="15">=</text>
    <text x="137.4" y="1033" fill="#3B3B3B" font-size="15"> </text>
    <text x="146.0" y="1033" fill="#3B3B3B" font-size="15">(</text>
    <text x="154.6" y="1033" fill="#001080" font-size="15">a</text>
    <text x="163.2" y="1033" fill="#3B3B3B" font-size="15"> </text>
    <text x="171.8" y="1033" fill="#000000" font-size="15">+</text>
    <text x="180.4" y="1033" fill="#3B3B3B" font-size="15"> </text>
    <text x="189.0" y="1033" fill="#001080" font-size="15">b</text>
    <text x="197.6" y="1033" fill="#3B3B3B" font-size="15">:</text>
    <text x="206.2" y="1033" fill="#3B3B3B" font-size="15"> </text>
    <text x="214.8" y="1033" fill="#267F99" font-size="15">Int</text>
    <text x="240.6" y="1033" fill="#3B3B3B" font-size="15">)</text>
    <text x="26" y="1055" fill="#6E7681" font-size="15">47</text>
    <text x="60.0" y="1055" fill="#3B3B3B" font-size="15">  </text>
    <text x="77.2" y="1055" fill="#AF00DB" font-size="15">match</text>
    <text x="120.2" y="1055" fill="#3B3B3B" font-size="15"> </text>
    <text x="128.8" y="1055" fill="#001080" font-size="15">arr</text>
    <text x="154.6" y="1055" fill="#3B3B3B" font-size="15"> </text>
    <text x="163.2" y="1055" fill="#3B3B3B" font-size="15">{</text>
    <text x="26" y="1077" fill="#6E7681" font-size="15">48</text>
    <text x="60.0" y="1077" fill="#3B3B3B" font-size="15">    </text>
    <text x="94.4" y="1077" fill="#3B3B3B" font-size="15">[</text>
    <text x="103.0" y="1077" fill="#000000" font-size="15">..</text>
    <text x="120.2" y="1077" fill="#3B3B3B" font-size="15">,</text>
    <text x="128.8" y="1077" fill="#3B3B3B" font-size="15"> </text>
    <text x="137.4" y="1077" fill="#001080" font-size="15">y</text>
    <text x="146.0" y="1077" fill="#3B3B3B" font-size="15">,</text>
    <text x="154.6" y="1077" fill="#3B3B3B" font-size="15"> </text>
    <text x="163.2" y="1077" fill="#001080" font-size="15">z</text>
    <text x="171.8" y="1077" fill="#3B3B3B" font-size="15">,</text>
    <text x="180.4" y="1077" fill="#3B3B3B" font-size="15">]</text>
    <text x="189.0" y="1077" fill="#3B3B3B" font-size="15"> </text>
    <text x="197.6" y="1077" fill="#0000FF" font-size="15">=&gt;</text>
    <text x="214.8" y="1077" fill="#3B3B3B" font-size="15"> </text>
    <text x="223.4" y="1077" fill="#3B3B3B" font-size="15">(</text>
    <text x="232.0" y="1077" fill="#3B3B3B" font-size="15">)</text>
    <text x="26" y="1099" fill="#6E7681" font-size="15">49</text>
    <text x="60.0" y="1099" fill="#3B3B3B" font-size="15">    </text>
    <text x="94.4" y="1099" fill="#3B3B3B" font-size="15">[</text>
    <text x="103.0" y="1099" fill="#001080" font-size="15">x</text>
    <text x="111.6" y="1099" fill="#3B3B3B" font-size="15">,</text>
    <text x="120.2" y="1099" fill="#3B3B3B" font-size="15"> </text>
    <text x="128.8" y="1099" fill="#001080" font-size="15">y</text>
    <text x="137.4" y="1099" fill="#3B3B3B" font-size="15">,</text>
    <text x="146.0" y="1099" fill="#3B3B3B" font-size="15"> </text>
    <text x="154.6" y="1099" fill="#000000" font-size="15">..</text>
    <text x="171.8" y="1099" fill="#3B3B3B" font-size="15">,</text>
    <text x="180.4" y="1099" fill="#3B3B3B" font-size="15">]</text>
    <text x="189.0" y="1099" fill="#3B3B3B" font-size="15"> </text>
    <text x="197.6" y="1099" fill="#0000FF" font-size="15">=&gt;</text>
    <text x="214.8" y="1099" fill="#3B3B3B" font-size="15"> </text>
    <text x="223.4" y="1099" fill="#3B3B3B" font-size="15">(</text>
    <text x="232.0" y="1099" fill="#3B3B3B" font-size="15">)</text>
    <text x="26" y="1121" fill="#6E7681" font-size="15">50</text>
    <text x="60.0" y="1121" fill="#3B3B3B" font-size="15">    </text>
    <text x="94.4" y="1121" fill="#3B3B3B" font-size="15">[</text>
    <text x="103.0" y="1121" fill="#001080" font-size="15">x</text>
    <text x="111.6" y="1121" fill="#3B3B3B" font-size="15">,</text>
    <text x="120.2" y="1121" fill="#3B3B3B" font-size="15"> </text>
    <text x="128.8" y="1121" fill="#000000" font-size="15">..</text>
    <text x="146.0" y="1121" fill="#3B3B3B" font-size="15"> </text>
    <text x="154.6" y="1121" fill="#001080" font-size="15">rest</text>
    <text x="189.0" y="1121" fill="#3B3B3B" font-size="15">,</text>
    <text x="197.6" y="1121" fill="#3B3B3B" font-size="15"> </text>
    <text x="206.2" y="1121" fill="#001080" font-size="15">z</text>
    <text x="214.8" y="1121" fill="#3B3B3B" font-size="15">,</text>
    <text x="223.4" y="1121" fill="#3B3B3B" font-size="15">]</text>
    <text x="232.0" y="1121" fill="#3B3B3B" font-size="15"> </text>
    <text x="240.6" y="1121" fill="#0000FF" font-size="15">=&gt;</text>
    <text x="257.8" y="1121" fill="#3B3B3B" font-size="15"> </text>
    <text x="266.4" y="1121" fill="#3B3B3B" font-size="15">(</text>
    <text x="275.0" y="1121" fill="#3B3B3B" font-size="15">)</text>
    <text x="26" y="1143" fill="#6E7681" font-size="15">51</text>
    <text x="60.0" y="1143" fill="#3B3B3B" font-size="15">    </text>
    <text x="94.4" y="1143" fill="#0000FF" font-size="15">_</text>
    <text x="103.0" y="1143" fill="#3B3B3B" font-size="15"> </text>
    <text x="111.6" y="1143" fill="#0000FF" font-size="15">=&gt;</text>
    <text x="128.8" y="1143" fill="#3B3B3B" font-size="15"> </text>
    <text x="137.4" y="1143" fill="#3B3B3B" font-size="15">(</text>
    <text x="146.0" y="1143" fill="#3B3B3B" font-size="15">)</text>
    <text x="26" y="1165" fill="#6E7681" font-size="15">52</text>
    <text x="60.0" y="1165" fill="#3B3B3B" font-size="15">  </text>
    <text x="77.2" y="1165" fill="#3B3B3B" font-size="15">}</text>
    <text x="26" y="1187" fill="#6E7681" font-size="15">53</text>
    <text x="60.0" y="1187" fill="#3B3B3B" font-size="15">  </text>
    <text x="77.2" y="1187" fill="#AF00DB" font-size="15">if</text>
    <text x="94.4" y="1187" fill="#3B3B3B" font-size="15"> </text>
    <text x="103.0" y="1187" fill="#001080" font-size="15">s</text>
    <text x="111.6" y="1187" fill="#3B3B3B" font-size="15"> </text>
    <text x="120.2" y="1187" fill="#AF00DB" font-size="15">lexmatch?</text>
    <text x="197.6" y="1187" fill="#3B3B3B" font-size="15"> </text>
    <text x="206.2" y="1187" fill="#3B3B3B" font-size="15">(</text>
    <text x="214.8" y="1187" fill="#267F99" font-size="15">COMMENT_START</text>
    <text x="326.6" y="1187" fill="#3B3B3B" font-size="15"> </text>
    <text x="335.2" y="1187" fill="#267F99" font-size="15">BLANK_OPT</text>
    <text x="412.6" y="1187" fill="#3B3B3B" font-size="15"> </text>
    <text x="421.2" y="1187" fill="#3B3B3B" font-size="15">(</text>
    <text x="429.8" y="1187" fill="#811F3F" font-size="15">re</text>
    <text x="447.0" y="1187" fill="#811F3F" font-size="15">&quot;</text>
    <text x="455.6" y="1187" fill="#811F3F" font-size="15">.*?</text>
    <text x="481.4" y="1187" fill="#811F3F" font-size="15">&quot;</text>
    <text x="490.0" y="1187" fill="#3B3B3B" font-size="15"> </text>
    <text x="498.6" y="1187" fill="#0000FF" font-size="15">as</text>
    <text x="515.8" y="1187" fill="#3B3B3B" font-size="15"> </text>
    <text x="524.4" y="1187" fill="#267F99" font-size="15">content</text>
    <text x="584.6" y="1187" fill="#3B3B3B" font-size="15">)</text>
    <text x="593.2" y="1187" fill="#3B3B3B" font-size="15"> </text>
    <text x="601.8" y="1187" fill="#267F99" font-size="15">COMMENT_END</text>
    <text x="696.4" y="1187" fill="#3B3B3B" font-size="15">)</text>
    <text x="705.0" y="1187" fill="#3B3B3B" font-size="15"> </text>
    <text x="713.6" y="1187" fill="#3B3B3B" font-size="15">{</text>
    <text x="26" y="1209" fill="#6E7681" font-size="15">54</text>
    <text x="60.0" y="1209" fill="#008000" font-size="15">// &lt;~~ keyword.control.conditional.moonbit</text>
    <text x="26" y="1231" fill="#6E7681" font-size="15">55</text>
    <text x="60.0" y="1231" fill="#3B3B3B" font-size="15">    </text>
    <text x="94.4" y="1231" fill="#795E26" font-size="15">println</text>
    <text x="154.6" y="1231" fill="#3B3B3B" font-size="15">(</text>
    <text x="163.2" y="1231" fill="#001080" font-size="15">content</text>
    <text x="223.4" y="1231" fill="#3B3B3B" font-size="15">)</text>
    <text x="26" y="1253" fill="#6E7681" font-size="15">56</text>
    <text x="60.0" y="1253" fill="#3B3B3B" font-size="15">  </text>
    <text x="77.2" y="1253" fill="#3B3B3B" font-size="15">}</text>
    <text x="26" y="1275" fill="#6E7681" font-size="15">57</text>
    <text x="60.0" y="1275" fill="#3B3B3B" font-size="15">  </text>
    <text x="77.2" y="1275" fill="#0000FF" font-size="15">let</text>
    <text x="103.0" y="1275" fill="#3B3B3B" font-size="15"> </text>
    <text x="111.6" y="1275" fill="#0000FF" font-size="15">_</text>
    <text x="120.2" y="1275" fill="#3B3B3B" font-size="15"> </text>
    <text x="128.8" y="1275" fill="#000000" font-size="15">=</text>
    <text x="137.4" y="1275" fill="#3B3B3B" font-size="15"> </text>
    <text x="146.0" y="1275" fill="#001080" font-size="15">s</text>
    <text x="154.6" y="1275" fill="#3B3B3B" font-size="15"> </text>
    <text x="163.2" y="1275" fill="#000000" font-size="15">=~</text>
    <text x="180.4" y="1275" fill="#3B3B3B" font-size="15"> </text>
    <text x="189.0" y="1275" fill="#3B3B3B" font-size="15">(</text>
    <text x="197.6" y="1275" fill="#3B3B3B" font-size="15">(</text>
    <text x="206.2" y="1275" fill="#811F3F" font-size="15">re</text>
    <text x="223.4" y="1275" fill="#811F3F" font-size="15">&quot;</text>
    <text x="232.0" y="1275" fill="#811F3F" font-size="15">x</text>
    <text x="240.6" y="1275" fill="#811F3F" font-size="15">&quot;</text>
    <text x="249.2" y="1275" fill="#3B3B3B" font-size="15"> </text>
    <text x="257.8" y="1275" fill="#000000" font-size="15">|</text>
    <text x="266.4" y="1275" fill="#3B3B3B" font-size="15"> </text>
    <text x="275.0" y="1275" fill="#267F99" font-size="15">ALT</text>
    <text x="300.8" y="1275" fill="#3B3B3B" font-size="15">)</text>
    <text x="309.4" y="1275" fill="#3B3B3B" font-size="15"> </text>
    <text x="318.0" y="1275" fill="#000000" font-size="15">+</text>
    <text x="326.6" y="1275" fill="#3B3B3B" font-size="15"> </text>
    <text x="335.2" y="1275" fill="#267F99" font-size="15">SUFFIX</text>
    <text x="386.8" y="1275" fill="#3B3B3B" font-size="15">,</text>
    <text x="395.4" y="1275" fill="#3B3B3B" font-size="15"> </text>
    <text x="404.0" y="1275" fill="#001080" font-size="15">before</text>
    <text x="455.6" y="1275" fill="#3B3B3B" font-size="15">~</text>
    <text x="464.2" y="1275" fill="#3B3B3B" font-size="15">,</text>
    <text x="472.8" y="1275" fill="#3B3B3B" font-size="15"> </text>
    <text x="481.4" y="1275" fill="#001080" font-size="15">after</text>
    <text x="524.4" y="1275" fill="#3B3B3B" font-size="15">~</text>
    <text x="533.0" y="1275" fill="#3B3B3B" font-size="15">)</text>
    <text x="26" y="1297" fill="#6E7681" font-size="15">58</text>
    <text x="60.0" y="1297" fill="#3B3B3B" font-size="15">  </text>
    <text x="77.2" y="1297" fill="#795E26" font-size="15">println</text>
    <text x="137.4" y="1297" fill="#3B3B3B" font-size="15">(</text>
    <text x="146.0" y="1297" fill="#000000" font-size="15">&amp;</text>
    <text x="154.6" y="1297" fill="#267F99" font-size="15">Add</text>
    <text x="180.4" y="1297" fill="#3B3B3B" font-size="15">:</text>
    <text x="189.0" y="1297" fill="#3B3B3B" font-size="15">:</text>
    <text x="197.6" y="1297" fill="#795E26" font-size="15">f</text>
    <text x="206.2" y="1297" fill="#3B3B3B" font-size="15">(</text>
    <text x="214.8" y="1297" fill="#098658" font-size="15">1</text>
    <text x="223.4" y="1297" fill="#3B3B3B" font-size="15">,</text>
    <text x="232.0" y="1297" fill="#3B3B3B" font-size="15"> </text>
    <text x="240.6" y="1297" fill="#098658" font-size="15">2</text>
    <text x="249.2" y="1297" fill="#3B3B3B" font-size="15">)</text>
    <text x="257.8" y="1297" fill="#3B3B3B" font-size="15">)</text>
    <text x="26" y="1319" fill="#6E7681" font-size="15">59</text>
    <text x="60.0" y="1319" fill="#3B3B3B" font-size="15">}</text>
  </g>
</svg>
