<svg xmlns="http://www.w3.org/2000/svg" width="688" height="716" viewBox="0 0 688 716">
  <rect width="100%" height="100%" rx="8" fill="#FFFFFF"/>
  <g font-family="SFMono-Regular, Menlo, Monaco, Consolas, 'Liberation Mono', monospace" xml:space="preserve">
    <text x="26" y="43" fill="#6E7681" font-size="15"> 1</text>
    <text x="60.0" y="43" fill="#795E26" font-size="15">#proof_import</text>
    <text x="171.8" y="43" fill="#3B3B3B" font-size="15">(</text>
    <text x="180.4" y="43" fill="#A31515" font-size="15">&quot;</text>
    <text x="189.0" y="43" fill="#A31515" font-size="15">int.Int</text>
    <text x="249.2" y="43" fill="#A31515" font-size="15">&quot;</text>
    <text x="257.8" y="43" fill="#3B3B3B" font-size="15">)</text>
    <text x="26" y="65" fill="#6E7681" font-size="15"> 2</text>
    <text x="60.0" y="65" fill="#0000FF" font-size="15">fn</text>
    <text x="77.2" y="65" fill="#3B3B3B" font-size="15"> </text>
    <text x="85.8" y="65" fill="#795E26" font-size="15">MathInt</text>
    <text x="146.0" y="65" fill="#3B3B3B" font-size="15">:</text>
    <text x="154.6" y="65" fill="#3B3B3B" font-size="15">:</text>
    <text x="163.2" y="65" fill="#795E26" font-size="15">equal</text>
    <text x="206.2" y="65" fill="#3B3B3B" font-size="15">(</text>
    <text x="214.8" y="65" fill="#001080" font-size="15">self</text>
    <text x="249.2" y="65" fill="#3B3B3B" font-size="15"> </text>
    <text x="257.8" y="65" fill="#3B3B3B" font-size="15">:</text>
    <text x="266.4" y="65" fill="#3B3B3B" font-size="15"> </text>
    <text x="275.0" y="65" fill="#267F99" font-size="15">MathInt</text>
    <text x="335.2" y="65" fill="#3B3B3B" font-size="15">,</text>
    <text x="343.8" y="65" fill="#3B3B3B" font-size="15"> </text>
    <text x="352.4" y="65" fill="#001080" font-size="15">other</text>
    <text x="395.4" y="65" fill="#3B3B3B" font-size="15"> </text>
    <text x="404.0" y="65" fill="#3B3B3B" font-size="15">:</text>
    <text x="412.6" y="65" fill="#3B3B3B" font-size="15"> </text>
    <text x="421.2" y="65" fill="#267F99" font-size="15">MathInt</text>
    <text x="481.4" y="65" fill="#3B3B3B" font-size="15">)</text>
    <text x="490.0" y="65" fill="#3B3B3B" font-size="15"> </text>
    <text x="498.6" y="65" fill="#0000FF" font-size="15">-&gt;</text>
    <text x="515.8" y="65" fill="#3B3B3B" font-size="15"> </text>
    <text x="524.4" y="65" fill="#267F99" font-size="15">Bool</text>
    <text x="558.8" y="65" fill="#3B3B3B" font-size="15"> </text>
    <text x="567.4" y="65" fill="#000000" font-size="15">=</text>
    <text x="576.0" y="65" fill="#3B3B3B" font-size="15"> </text>
    <text x="584.6" y="65" fill="#A31515" font-size="15">&quot;</text>
    <text x="593.2" y="65" fill="#A31515" font-size="15">(=)</text>
    <text x="619.0" y="65" fill="#A31515" font-size="15">&quot;</text>
    <text x="26" y="87" fill="#6E7681" font-size="15"> 3</text>
    <text x="26" y="109" fill="#6E7681" font-size="15"> 4</text>
    <text x="60.0" y="109" fill="#0000FF" font-size="15">pub</text>
    <text x="85.8" y="109" fill="#3B3B3B" font-size="15"> </text>
    <text x="94.4" y="109" fill="#0000FF" font-size="15">impl</text>
    <text x="128.8" y="109" fill="#3B3B3B" font-size="15"> </text>
    <text x="137.4" y="109" fill="#267F99" font-size="15">Eq</text>
    <text x="154.6" y="109" fill="#3B3B3B" font-size="15"> </text>
    <text x="163.2" y="109" fill="#0000FF" font-size="15">for</text>
    <text x="189.0" y="109" fill="#3B3B3B" font-size="15"> </text>
    <text x="197.6" y="109" fill="#267F99" font-size="15">MathInt</text>
    <text x="257.8" y="109" fill="#3B3B3B" font-size="15"> </text>
    <text x="266.4" y="109" fill="#0000FF" font-size="15">with</text>
    <text x="300.8" y="109" fill="#3B3B3B" font-size="15"> </text>
    <text x="309.4" y="109" fill="#795E26" font-size="15">equal</text>
    <text x="352.4" y="109" fill="#3B3B3B" font-size="15">(</text>
    <text x="361.0" y="109" fill="#001080" font-size="15">self</text>
    <text x="395.4" y="109" fill="#3B3B3B" font-size="15">,</text>
    <text x="404.0" y="109" fill="#3B3B3B" font-size="15"> </text>
    <text x="412.6" y="109" fill="#001080" font-size="15">other</text>
    <text x="455.6" y="109" fill="#3B3B3B" font-size="15">)</text>
    <text x="464.2" y="109" fill="#3B3B3B" font-size="15"> </text>
    <text x="472.8" y="109" fill="#3B3B3B" font-size="15">{</text>
    <text x="26" y="131" fill="#6E7681" font-size="15"> 5</text>
    <text x="60.0" y="131" fill="#3B3B3B" font-size="15">  </text>
    <text x="77.2" y="131" fill="#001080" font-size="15">self</text>
    <text x="111.6" y="131" fill="#3B3B3B" font-size="15">.</text>
    <text x="120.2" y="131" fill="#795E26" font-size="15">equal</text>
    <text x="163.2" y="131" fill="#3B3B3B" font-size="15">(</text>
    <text x="171.8" y="131" fill="#001080" font-size="15">other</text>
    <text x="214.8" y="131" fill="#3B3B3B" font-size="15">)</text>
    <text x="26" y="153" fill="#6E7681" font-size="15"> 6</text>
    <text x="60.0" y="153" fill="#3B3B3B" font-size="15">}</text>
    <text x="26" y="175" fill="#6E7681" font-size="15"> 7</text>
    <text x="26" y="197" fill="#6E7681" font-size="15"> 8</text>
    <text x="60.0" y="197" fill="#0000FF" font-size="15">pub</text>
    <text x="85.8" y="197" fill="#3B3B3B" font-size="15"> </text>
    <text x="94.4" y="197" fill="#0000FF" font-size="15">predicate</text>
    <text x="171.8" y="197" fill="#3B3B3B" font-size="15"> </text>
    <text x="180.4" y="197" fill="#0000FF" font-size="15">FixedArray</text>
    <text x="266.4" y="197" fill="#3B3B3B" font-size="15">:</text>
    <text x="275.0" y="197" fill="#3B3B3B" font-size="15">:</text>
    <text x="283.6" y="197" fill="#795E26" font-size="15">in_bounds</text>
    <text x="361.0" y="197" fill="#3B3B3B" font-size="15">(</text>
    <text x="369.6" y="197" fill="#001080" font-size="15">self</text>
    <text x="404.0" y="197" fill="#3B3B3B" font-size="15"> </text>
    <text x="412.6" y="197" fill="#3B3B3B" font-size="15">:</text>
    <text x="421.2" y="197" fill="#3B3B3B" font-size="15"> </text>
    <text x="429.8" y="197" fill="#0000FF" font-size="15">FixedArray</text>
    <text x="515.8" y="197" fill="#3B3B3B" font-size="15">[</text>
    <text x="524.4" y="197" fill="#267F99" font-size="15">Int</text>
    <text x="550.2" y="197" fill="#3B3B3B" font-size="15">]</text>
    <text x="558.8" y="197" fill="#3B3B3B" font-size="15">,</text>
    <text x="567.4" y="197" fill="#3B3B3B" font-size="15"> </text>
    <text x="576.0" y="197" fill="#001080" font-size="15">i</text>
    <text x="584.6" y="197" fill="#3B3B3B" font-size="15"> </text>
    <text x="593.2" y="197" fill="#3B3B3B" font-size="15">:</text>
    <text x="601.8" y="197" fill="#3B3B3B" font-size="15"> </text>
    <text x="610.4" y="197" fill="#267F99" font-size="15">Int</text>
    <text x="636.2" y="197" fill="#3B3B3B" font-size="15">)</text>
    <text x="644.8" y="197" fill="#3B3B3B" font-size="15"> </text>
    <text x="653.4" y="197" fill="#3B3B3B" font-size="15">{</text>
    <text x="26" y="219" fill="#6E7681" font-size="15"> 9</text>
    <text x="60.0" y="219" fill="#3B3B3B" font-size="15">  </text>
    <text x="77.2" y="219" fill="#3B3B3B" font-size="15">(</text>
    <text x="85.8" y="219" fill="#098658" font-size="15">0</text>
    <text x="94.4" y="219" fill="#3B3B3B" font-size="15"> </text>
    <text x="103.0" y="219" fill="#000000" font-size="15">&lt;=</text>
    <text x="120.2" y="219" fill="#3B3B3B" font-size="15"> </text>
    <text x="128.8" y="219" fill="#001080" font-size="15">i</text>
    <text x="137.4" y="219" fill="#3B3B3B" font-size="15">)</text>
    <text x="146.0" y="219" fill="#3B3B3B" font-size="15"> </text>
    <text x="154.6" y="219" fill="#000000" font-size="15">&amp;&amp;</text>
    <text x="171.8" y="219" fill="#3B3B3B" font-size="15"> </text>
    <text x="180.4" y="219" fill="#3B3B3B" font-size="15">(</text>
    <text x="189.0" y="219" fill="#001080" font-size="15">i</text>
    <text x="197.6" y="219" fill="#3B3B3B" font-size="15"> </text>
    <text x="206.2" y="219" fill="#000000" font-size="15">&lt;</text>
    <text x="214.8" y="219" fill="#3B3B3B" font-size="15"> </text>
    <text x="223.4" y="219" fill="#001080" font-size="15">self</text>
    <text x="257.8" y="219" fill="#3B3B3B" font-size="15">.</text>
    <text x="266.4" y="219" fill="#795E26" font-size="15">length</text>
    <text x="318.0" y="219" fill="#3B3B3B" font-size="15">(</text>
    <text x="326.6" y="219" fill="#3B3B3B" font-size="15">)</text>
    <text x="335.2" y="219" fill="#3B3B3B" font-size="15">)</text>
    <text x="26" y="241" fill="#6E7681" font-size="15">10</text>
    <text x="60.0" y="241" fill="#3B3B3B" font-size="15">}</text>
    <text x="26" y="263" fill="#6E7681" font-size="15">11</text>
    <text x="26" y="285" fill="#6E7681" font-size="15">12</text>
    <text x="60.0" y="285" fill="#0000FF" font-size="15">pub</text>
    <text x="85.8" y="285" fill="#3B3B3B" font-size="15"> </text>
    <text x="94.4" y="285" fill="#0000FF" font-size="15">predicate</text>
    <text x="171.8" y="285" fill="#3B3B3B" font-size="15"> </text>
    <text x="180.4" y="285" fill="#795E26" font-size="15">sorted</text>
    <text x="232.0" y="285" fill="#3B3B3B" font-size="15">(</text>
    <text x="240.6" y="285" fill="#001080" font-size="15">xs</text>
    <text x="257.8" y="285" fill="#3B3B3B" font-size="15"> </text>
    <text x="266.4" y="285" fill="#3B3B3B" font-size="15">:</text>
    <text x="275.0" y="285" fill="#3B3B3B" font-size="15"> </text>
    <text x="283.6" y="285" fill="#0000FF" font-size="15">FixedArray</text>
    <text x="369.6" y="285" fill="#3B3B3B" font-size="15">[</text>
    <text x="378.2" y="285" fill="#267F99" font-size="15">Int</text>
    <text x="404.0" y="285" fill="#3B3B3B" font-size="15">]</text>
    <text x="412.6" y="285" fill="#3B3B3B" font-size="15">)</text>
    <text x="421.2" y="285" fill="#3B3B3B" font-size="15"> </text>
    <text x="429.8" y="285" fill="#3B3B3B" font-size="15">{</text>
    <text x="26" y="307" fill="#6E7681" font-size="15">13</text>
    <text x="60.0" y="307" fill="#3B3B3B" font-size="15">  </text>
    <text x="77.2" y="307" fill="#000000" font-size="15">∀</text>
    <text x="85.8" y="307" fill="#3B3B3B" font-size="15"> </text>
    <text x="94.4" y="307" fill="#001080" font-size="15">i</text>
    <text x="103.0" y="307" fill="#3B3B3B" font-size="15"> </text>
    <text x="111.6" y="307" fill="#3B3B3B" font-size="15">:</text>
    <text x="120.2" y="307" fill="#3B3B3B" font-size="15"> </text>
    <text x="128.8" y="307" fill="#267F99" font-size="15">Int</text>
    <text x="154.6" y="307" fill="#3B3B3B" font-size="15">,</text>
    <text x="163.2" y="307" fill="#3B3B3B" font-size="15"> </text>
    <text x="171.8" y="307" fill="#000000" font-size="15">∃</text>
    <text x="180.4" y="307" fill="#3B3B3B" font-size="15"> </text>
    <text x="189.0" y="307" fill="#001080" font-size="15">j</text>
    <text x="197.6" y="307" fill="#3B3B3B" font-size="15"> </text>
    <text x="206.2" y="307" fill="#3B3B3B" font-size="15">:</text>
    <text x="214.8" y="307" fill="#3B3B3B" font-size="15"> </text>
    <text x="223.4" y="307" fill="#267F99" font-size="15">Int</text>
    <text x="249.2" y="307" fill="#3B3B3B" font-size="15">,</text>
    <text x="257.8" y="307" fill="#3B3B3B" font-size="15"> </text>
    <text x="266.4" y="307" fill="#0000FF" font-size="15">FixedArray</text>
    <text x="352.4" y="307" fill="#3B3B3B" font-size="15">:</text>
    <text x="361.0" y="307" fill="#3B3B3B" font-size="15">:</text>
    <text x="369.6" y="307" fill="#795E26" font-size="15">in_bounds</text>
    <text x="447.0" y="307" fill="#3B3B3B" font-size="15">(</text>
    <text x="455.6" y="307" fill="#001080" font-size="15">xs</text>
    <text x="472.8" y="307" fill="#3B3B3B" font-size="15">,</text>
    <text x="481.4" y="307" fill="#3B3B3B" font-size="15"> </text>
    <text x="490.0" y="307" fill="#001080" font-size="15">i</text>
    <text x="498.6" y="307" fill="#3B3B3B" font-size="15">)</text>
    <text x="507.2" y="307" fill="#3B3B3B" font-size="15"> </text>
    <text x="515.8" y="307" fill="#000000" font-size="15">→</text>
    <text x="524.4" y="307" fill="#3B3B3B" font-size="15"> </text>
    <text x="533.0" y="307" fill="#001080" font-size="15">i</text>
    <text x="541.6" y="307" fill="#3B3B3B" font-size="15"> </text>
    <text x="550.2" y="307" fill="#000000" font-size="15">&lt;=</text>
    <text x="567.4" y="307" fill="#3B3B3B" font-size="15"> </text>
    <text x="576.0" y="307" fill="#001080" font-size="15">j</text>
    <text x="26" y="329" fill="#6E7681" font-size="15">14</text>
    <text x="60.0" y="329" fill="#3B3B3B" font-size="15">}</text>
    <text x="26" y="351" fill="#6E7681" font-size="15">15</text>
    <text x="26" y="373" fill="#6E7681" font-size="15">16</text>
    <text x="60.0" y="373" fill="#0000FF" font-size="15">fn</text>
    <text x="77.2" y="373" fill="#3B3B3B" font-size="15"> </text>
    <text x="85.8" y="373" fill="#795E26" font-size="15">first</text>
    <text x="128.8" y="373" fill="#3B3B3B" font-size="15">(</text>
    <text x="137.4" y="373" fill="#001080" font-size="15">xs</text>
    <text x="154.6" y="373" fill="#3B3B3B" font-size="15"> </text>
    <text x="163.2" y="373" fill="#3B3B3B" font-size="15">:</text>
    <text x="171.8" y="373" fill="#3B3B3B" font-size="15"> </text>
    <text x="180.4" y="373" fill="#0000FF" font-size="15">FixedArray</text>
    <text x="266.4" y="373" fill="#3B3B3B" font-size="15">[</text>
    <text x="275.0" y="373" fill="#267F99" font-size="15">Int</text>
    <text x="300.8" y="373" fill="#3B3B3B" font-size="15">]</text>
    <text x="309.4" y="373" fill="#3B3B3B" font-size="15">)</text>
    <text x="318.0" y="373" fill="#3B3B3B" font-size="15"> </text>
    <text x="326.6" y="373" fill="#0000FF" font-size="15">-&gt;</text>
    <text x="343.8" y="373" fill="#3B3B3B" font-size="15"> </text>
    <text x="352.4" y="373" fill="#267F99" font-size="15">Int</text>
    <text x="378.2" y="373" fill="#3B3B3B" font-size="15"> </text>
    <text x="386.8" y="373" fill="#0000FF" font-size="15">where</text>
    <text x="429.8" y="373" fill="#3B3B3B" font-size="15"> </text>
    <text x="438.4" y="373" fill="#3B3B3B" font-size="15">{</text>
    <text x="26" y="395" fill="#6E7681" font-size="15">17</text>
    <text x="60.0" y="395" fill="#3B3B3B" font-size="15">  </text>
    <text x="77.2" y="395" fill="#0000FF" font-size="15">proof_require</text>
    <text x="189.0" y="395" fill="#3B3B3B" font-size="15">:</text>
    <text x="197.6" y="395" fill="#3B3B3B" font-size="15"> </text>
    <text x="206.2" y="395" fill="#795E26" font-size="15">sorted</text>
    <text x="257.8" y="395" fill="#3B3B3B" font-size="15">(</text>
    <text x="266.4" y="395" fill="#001080" font-size="15">xs</text>
    <text x="283.6" y="395" fill="#3B3B3B" font-size="15">)</text>
    <text x="292.2" y="395" fill="#3B3B3B" font-size="15">,</text>
    <text x="26" y="417" fill="#6E7681" font-size="15">18</text>
    <text x="60.0" y="417" fill="#3B3B3B" font-size="15">  </text>
    <text x="77.2" y="417" fill="#0000FF" font-size="15">proof_ensure</text>
    <text x="180.4" y="417" fill="#3B3B3B" font-size="15">:</text>
    <text x="189.0" y="417" fill="#3B3B3B" font-size="15"> </text>
    <text x="197.6" y="417" fill="#001080" font-size="15">result</text>
    <text x="249.2" y="417" fill="#3B3B3B" font-size="15"> </text>
    <text x="257.8" y="417" fill="#0000FF" font-size="15">=&gt;</text>
    <text x="275.0" y="417" fill="#3B3B3B" font-size="15"> </text>
    <text x="283.6" y="417" fill="#0000FF" font-size="15">FixedArray</text>
    <text x="369.6" y="417" fill="#3B3B3B" font-size="15">:</text>
    <text x="378.2" y="417" fill="#3B3B3B" font-size="15">:</text>
    <text x="386.8" y="417" fill="#795E26" font-size="15">in_bounds</text>
    <text x="464.2" y="417" fill="#3B3B3B" font-size="15">(</text>
    <text x="472.8" y="417" fill="#001080" font-size="15">xs</text>
    <text x="490.0" y="417" fill="#3B3B3B" font-size="15">,</text>
    <text x="498.6" y="417" fill="#3B3B3B" font-size="15"> </text>
    <text x="507.2" y="417" fill="#001080" font-size="15">result</text>
    <text x="558.8" y="417" fill="#3B3B3B" font-size="15">)</text>
    <text x="567.4" y="417" fill="#3B3B3B" font-size="15">,</text>
    <text x="26" y="439" fill="#6E7681" font-size="15">19</text>
    <text x="60.0" y="439" fill="#3B3B3B" font-size="15">}</text>
    <text x="68.6" y="439" fill="#3B3B3B" font-size="15"> </text>
    <text x="77.2" y="439" fill="#3B3B3B" font-size="15">{</text>
    <text x="26" y="461" fill="#6E7681" font-size="15">20</text>
    <text x="60.0" y="461" fill="#3B3B3B" font-size="15">  </text>
    <text x="77.2" y="461" fill="#AF00DB" font-size="15">proof_assert</text>
    <text x="180.4" y="461" fill="#3B3B3B" font-size="15"> </text>
    <text x="189.0" y="461" fill="#000000" font-size="15">∃</text>
    <text x="197.6" y="461" fill="#3B3B3B" font-size="15"> </text>
    <text x="206.2" y="461" fill="#001080" font-size="15">i</text>
    <text x="214.8" y="461" fill="#3B3B3B" font-size="15"> </text>
    <text x="223.4" y="461" fill="#3B3B3B" font-size="15">:</text>
    <text x="232.0" y="461" fill="#3B3B3B" font-size="15"> </text>
    <text x="240.6" y="461" fill="#267F99" font-size="15">Int</text>
    <text x="266.4" y="461" fill="#3B3B3B" font-size="15">,</text>
    <text x="275.0" y="461" fill="#3B3B3B" font-size="15"> </text>
    <text x="283.6" y="461" fill="#0000FF" font-size="15">FixedArray</text>
    <text x="369.6" y="461" fill="#3B3B3B" font-size="15">:</text>
    <text x="378.2" y="461" fill="#3B3B3B" font-size="15">:</text>
    <text x="386.8" y="461" fill="#795E26" font-size="15">in_bounds</text>
    <text x="464.2" y="461" fill="#3B3B3B" font-size="15">(</text>
    <text x="472.8" y="461" fill="#001080" font-size="15">xs</text>
    <text x="490.0" y="461" fill="#3B3B3B" font-size="15">,</text>
    <text x="498.6" y="461" fill="#3B3B3B" font-size="15"> </text>
    <text x="507.2" y="461" fill="#001080" font-size="15">i</text>
    <text x="515.8" y="461" fill="#3B3B3B" font-size="15">)</text>
    <text x="26" y="483" fill="#6E7681" font-size="15">21</text>
    <text x="60.0" y="483" fill="#3B3B3B" font-size="15">  </text>
    <text x="77.2" y="483" fill="#001080" font-size="15">xs</text>
    <text x="94.4" y="483" fill="#3B3B3B" font-size="15">[</text>
    <text x="103.0" y="483" fill="#098658" font-size="15">0</text>
    <text x="111.6" y="483" fill="#3B3B3B" font-size="15">]</text>
    <text x="26" y="505" fill="#6E7681" font-size="15">22</text>
    <text x="60.0" y="505" fill="#3B3B3B" font-size="15">}</text>
    <text x="26" y="527" fill="#6E7681" font-size="15">23</text>
    <text x="26" y="549" fill="#6E7681" font-size="15">24</text>
    <text x="60.0" y="549" fill="#0000FF" font-size="15">lemma</text>
    <text x="103.0" y="549" fill="#3B3B3B" font-size="15"> </text>
    <text x="111.6" y="549" fill="#795E26" font-size="15">first_in_bounds</text>
    <text x="240.6" y="549" fill="#3B3B3B" font-size="15">(</text>
    <text x="249.2" y="549" fill="#001080" font-size="15">xs</text>
    <text x="266.4" y="549" fill="#3B3B3B" font-size="15"> </text>
    <text x="275.0" y="549" fill="#3B3B3B" font-size="15">:</text>
    <text x="283.6" y="549" fill="#3B3B3B" font-size="15"> </text>
    <text x="292.2" y="549" fill="#0000FF" font-size="15">FixedArray</text>
    <text x="378.2" y="549" fill="#3B3B3B" font-size="15">[</text>
    <text x="386.8" y="549" fill="#267F99" font-size="15">Int</text>
    <text x="412.6" y="549" fill="#3B3B3B" font-size="15">]</text>
    <text x="421.2" y="549" fill="#3B3B3B" font-size="15">)</text>
    <text x="429.8" y="549" fill="#3B3B3B" font-size="15"> </text>
    <text x="438.4" y="549" fill="#0000FF" font-size="15">where</text>
    <text x="481.4" y="549" fill="#3B3B3B" font-size="15"> </text>
    <text x="490.0" y="549" fill="#3B3B3B" font-size="15">{</text>
    <text x="26" y="571" fill="#6E7681" font-size="15">25</text>
    <text x="60.0" y="571" fill="#3B3B3B" font-size="15">  </text>
    <text x="77.2" y="571" fill="#0000FF" font-size="15">proof_require</text>
    <text x="189.0" y="571" fill="#3B3B3B" font-size="15">:</text>
    <text x="197.6" y="571" fill="#3B3B3B" font-size="15"> </text>
    <text x="206.2" y="571" fill="#795E26" font-size="15">sorted</text>
    <text x="257.8" y="571" fill="#3B3B3B" font-size="15">(</text>
    <text x="266.4" y="571" fill="#001080" font-size="15">xs</text>
    <text x="283.6" y="571" fill="#3B3B3B" font-size="15">)</text>
    <text x="292.2" y="571" fill="#3B3B3B" font-size="15">,</text>
    <text x="26" y="593" fill="#6E7681" font-size="15">26</text>
    <text x="60.0" y="593" fill="#3B3B3B" font-size="15">  </text>
    <text x="77.2" y="593" fill="#0000FF" font-size="15">proof_ensure</text>
    <text x="180.4" y="593" fill="#3B3B3B" font-size="15">:</text>
    <text x="189.0" y="593" fill="#3B3B3B" font-size="15"> </text>
    <text x="197.6" y="593" fill="#0000FF" font-size="15">FixedArray</text>
    <text x="283.6" y="593" fill="#3B3B3B" font-size="15">:</text>
    <text x="292.2" y="593" fill="#3B3B3B" font-size="15">:</text>
    <text x="300.8" y="593" fill="#795E26" font-size="15">in_bounds</text>
    <text x="378.2" y="593" fill="#3B3B3B" font-size="15">(</text>
    <text x="386.8" y="593" fill="#001080" font-size="15">xs</text>
    <text x="404.0" y="593" fill="#3B3B3B" font-size="15">,</text>
    <text x="412.6" y="593" fill="#3B3B3B" font-size="15"> </text>
    <text x="421.2" y="593" fill="#795E26" font-size="15">first</text>
    <text x="464.2" y="593" fill="#3B3B3B" font-size="15">(</text>
    <text x="472.8" y="593" fill="#001080" font-size="15">xs</text>
    <text x="490.0" y="593" fill="#3B3B3B" font-size="15">)</text>
    <text x="498.6" y="593" fill="#3B3B3B" font-size="15">)</text>
    <text x="507.2" y="593" fill="#3B3B3B" font-size="15">,</text>
    <text x="26" y="615" fill="#6E7681" font-size="15">27</text>
    <text x="60.0" y="615" fill="#3B3B3B" font-size="15">  </text>
    <text x="77.2" y="615" fill="#0000FF" font-size="15">proof_decrease</text>
    <text x="197.6" y="615" fill="#3B3B3B" font-size="15">:</text>
    <text x="206.2" y="615" fill="#3B3B3B" font-size="15"> </text>
    <text x="214.8" y="615" fill="#001080" font-size="15">xs</text>
    <text x="232.0" y="615" fill="#3B3B3B" font-size="15">,</text>
    <text x="26" y="637" fill="#6E7681" font-size="15">28</text>
    <text x="60.0" y="637" fill="#3B3B3B" font-size="15">}</text>
    <text x="68.6" y="637" fill="#3B3B3B" font-size="15"> </text>
    <text x="77.2" y="637" fill="#3B3B3B" font-size="15">{</text>
    <text x="26" y="659" fill="#6E7681" font-size="15">29</text>
    <text x="60.0" y="659" fill="#3B3B3B" font-size="15">  </text>
    <text x="77.2" y="659" fill="#AF00DB" font-size="15">proof_assert</text>
    <text x="180.4" y="659" fill="#3B3B3B" font-size="15"> </text>
    <text x="189.0" y="659" fill="#795E26" font-size="15">sorted</text>
    <text x="240.6" y="659" fill="#3B3B3B" font-size="15">(</text>
    <text x="249.2" y="659" fill="#001080" font-size="15">xs</text>
    <text x="266.4" y="659" fill="#3B3B3B" font-size="15">)</text>
    <text x="26" y="681" fill="#6E7681" font-size="15">30</text>
    <text x="60.0" y="681" fill="#3B3B3B" font-size="15">}</text>
  </g>
</svg>
