<svg xmlns="http://www.w3.org/2000/svg" width="783" height="188" viewBox="0 0 783 188">
  <rect width="100%" height="100%" rx="8" fill="#FFFFFF"/>
  <g font-family="SFMono-Regular, Menlo, Monaco, Consolas, 'Liberation Mono', monospace" xml:space="preserve">
    <text x="26" y="43" fill="#6E7681" font-size="15"> 1</text>
    <text x="60.0" y="43" fill="#0000FF" font-size="15">fn</text>
    <text x="77.2" y="43" fill="#3B3B3B" font-size="15"> </text>
    <text x="85.8" y="43" fill="#795E26" font-size="15">complex_string_interpolation</text>
    <text x="326.6" y="43" fill="#3B3B3B" font-size="15">(</text>
    <text x="335.2" y="43" fill="#001080" font-size="15">value</text>
    <text x="378.2" y="43" fill="#3B3B3B" font-size="15"> </text>
    <text x="386.8" y="43" fill="#3B3B3B" font-size="15">:</text>
    <text x="395.4" y="43" fill="#3B3B3B" font-size="15"> </text>
    <text x="404.0" y="43" fill="#267F99" font-size="15">Int</text>
    <text x="429.8" y="43" fill="#3B3B3B" font-size="15">,</text>
    <text x="438.4" y="43" fill="#3B3B3B" font-size="15"> </text>
    <text x="447.0" y="43" fill="#001080" font-size="15">name</text>
    <text x="481.4" y="43" fill="#3B3B3B" font-size="15"> </text>
    <text x="490.0" y="43" fill="#3B3B3B" font-size="15">:</text>
    <text x="498.6" y="43" fill="#3B3B3B" font-size="15"> </text>
    <text x="507.2" y="43" fill="#267F99" font-size="15">String</text>
    <text x="558.8" y="43" fill="#3B3B3B" font-size="15">)</text>
    <text x="567.4" y="43" fill="#3B3B3B" font-size="15"> </text>
    <text x="576.0" y="43" fill="#0000FF" font-size="15">-&gt;</text>
    <text x="593.2" y="43" fill="#3B3B3B" font-size="15"> </text>
    <text x="601.8" y="43" fill="#267F99" font-size="15">String</text>
    <text x="653.4" y="43" fill="#3B3B3B" font-size="15"> </text>
    <text x="662.0" y="43" fill="#3B3B3B" font-size="15">{</text>
    <text x="26" y="65" fill="#6E7681" font-size="15"> 2</text>
    <text x="60.0" y="65" fill="#3B3B3B" font-size="15">  </text>
    <text x="77.2" y="65" fill="#0000FF" font-size="15">let</text>
    <text x="103.0" y="65" fill="#3B3B3B" font-size="15"> </text>
    <text x="111.6" y="65" fill="#001080" font-size="15">one</text>
    <text x="137.4" y="65" fill="#3B3B3B" font-size="15"> </text>
    <text x="146.0" y="65" fill="#000000" font-size="15">=</text>
    <text x="154.6" y="65" fill="#3B3B3B" font-size="15"> </text>
    <text x="163.2" y="65" fill="#A31515" font-size="15">&quot;</text>
    <text x="171.8" y="65" fill="#A31515" font-size="15">before </text>
    <text x="232.0" y="65" fill="#3B3B3B" font-size="15">\{</text>
    <text x="249.2" y="65" fill="#AF00DB" font-size="15">if</text>
    <text x="266.4" y="65" fill="#3B3B3B" font-size="15"> </text>
    <text x="275.0" y="65" fill="#001080" font-size="15">value</text>
    <text x="318.0" y="65" fill="#3B3B3B" font-size="15"> </text>
    <text x="326.6" y="65" fill="#000000" font-size="15">&gt;</text>
    <text x="335.2" y="65" fill="#3B3B3B" font-size="15"> </text>
    <text x="343.8" y="65" fill="#098658" font-size="15">0</text>
    <text x="352.4" y="65" fill="#3B3B3B" font-size="15"> </text>
    <text x="361.0" y="65" fill="#3B3B3B" font-size="15">{</text>
    <text x="369.6" y="65" fill="#3B3B3B" font-size="15"> </text>
    <text x="378.2" y="65" fill="#A31515" font-size="15">&quot;</text>
    <text x="386.8" y="65" fill="#A31515" font-size="15">inner </text>
    <text x="438.4" y="65" fill="#3B3B3B" font-size="15">\{</text>
    <text x="455.6" y="65" fill="#001080" font-size="15">name</text>
    <text x="490.0" y="65" fill="#3B3B3B" font-size="15">}</text>
    <text x="498.6" y="65" fill="#A31515" font-size="15">&quot;</text>
    <text x="507.2" y="65" fill="#3B3B3B" font-size="15"> </text>
    <text x="515.8" y="65" fill="#3B3B3B" font-size="15">}</text>
    <text x="524.4" y="65" fill="#3B3B3B" font-size="15"> </text>
    <text x="533.0" y="65" fill="#AF00DB" font-size="15">else</text>
    <text x="567.4" y="65" fill="#3B3B3B" font-size="15"> </text>
    <text x="576.0" y="65" fill="#3B3B3B" font-size="15">{</text>
    <text x="584.6" y="65" fill="#3B3B3B" font-size="15"> </text>
    <text x="593.2" y="65" fill="#A31515" font-size="15">&quot;</text>
    <text x="601.8" y="65" fill="#A31515" font-size="15">none</text>
    <text x="636.2" y="65" fill="#A31515" font-size="15">&quot;</text>
    <text x="644.8" y="65" fill="#3B3B3B" font-size="15"> </text>
    <text x="653.4" y="65" fill="#3B3B3B" font-size="15">}</text>
    <text x="662.0" y="65" fill="#3B3B3B" font-size="15">}</text>
    <text x="670.6" y="65" fill="#A31515" font-size="15"> after</text>
    <text x="722.2" y="65" fill="#A31515" font-size="15">&quot;</text>
    <text x="26" y="87" fill="#6E7681" font-size="15"> 3</text>
    <text x="60.0" y="87" fill="#3B3B3B" font-size="15">  </text>
    <text x="77.2" y="87" fill="#0000FF" font-size="15">let</text>
    <text x="103.0" y="87" fill="#3B3B3B" font-size="15"> </text>
    <text x="111.6" y="87" fill="#001080" font-size="15">two</text>
    <text x="137.4" y="87" fill="#3B3B3B" font-size="15"> </text>
    <text x="146.0" y="87" fill="#000000" font-size="15">=</text>
    <text x="154.6" y="87" fill="#3B3B3B" font-size="15"> </text>
    <text x="163.2" y="87" fill="#A31515" font-size="15">$|</text>
    <text x="180.4" y="87" fill="#A31515" font-size="15">prefix </text>
    <text x="240.6" y="87" fill="#3B3B3B" font-size="15">\{</text>
    <text x="257.8" y="87" fill="#AF00DB" font-size="15">match</text>
    <text x="300.8" y="87" fill="#3B3B3B" font-size="15"> </text>
    <text x="309.4" y="87" fill="#001080" font-size="15">value</text>
    <text x="352.4" y="87" fill="#3B3B3B" font-size="15"> </text>
    <text x="361.0" y="87" fill="#3B3B3B" font-size="15">{</text>
    <text x="369.6" y="87" fill="#3B3B3B" font-size="15"> </text>
    <text x="378.2" y="87" fill="#098658" font-size="15">0</text>
    <text x="386.8" y="87" fill="#3B3B3B" font-size="15"> </text>
    <text x="395.4" y="87" fill="#0000FF" font-size="15">=&gt;</text>
    <text x="412.6" y="87" fill="#3B3B3B" font-size="15"> </text>
    <text x="421.2" y="87" fill="#A31515" font-size="15">&quot;</text>
    <text x="429.8" y="87" fill="#A31515" font-size="15">zero</text>
    <text x="464.2" y="87" fill="#A31515" font-size="15">&quot;</text>
    <text x="472.8" y="87" fill="#3B3B3B" font-size="15">;</text>
    <text x="481.4" y="87" fill="#3B3B3B" font-size="15"> </text>
    <text x="490.0" y="87" fill="#0000FF" font-size="15">_</text>
    <text x="498.6" y="87" fill="#3B3B3B" font-size="15"> </text>
    <text x="507.2" y="87" fill="#0000FF" font-size="15">=&gt;</text>
    <text x="524.4" y="87" fill="#3B3B3B" font-size="15"> </text>
    <text x="533.0" y="87" fill="#A31515" font-size="15">&quot;</text>
    <text x="541.6" y="87" fill="#A31515" font-size="15">value </text>
    <text x="593.2" y="87" fill="#3B3B3B" font-size="15">\{</text>
    <text x="610.4" y="87" fill="#001080" font-size="15">value</text>
    <text x="653.4" y="87" fill="#3B3B3B" font-size="15">}</text>
    <text x="662.0" y="87" fill="#A31515" font-size="15">&quot;</text>
    <text x="670.6" y="87" fill="#3B3B3B" font-size="15"> </text>
    <text x="679.2" y="87" fill="#3B3B3B" font-size="15">}</text>
    <text x="687.8" y="87" fill="#3B3B3B" font-size="15">}</text>
    <text x="696.4" y="87" fill="#A31515" font-size="15"> suffix</text>
    <text x="26" y="109" fill="#6E7681" font-size="15"> 4</text>
    <text x="60.0" y="109" fill="#3B3B3B" font-size="15">  </text>
    <text x="77.2" y="109" fill="#0000FF" font-size="15">let</text>
    <text x="103.0" y="109" fill="#3B3B3B" font-size="15"> </text>
    <text x="111.6" y="109" fill="#001080" font-size="15">three</text>
    <text x="154.6" y="109" fill="#3B3B3B" font-size="15"> </text>
    <text x="163.2" y="109" fill="#000000" font-size="15">=</text>
    <text x="171.8" y="109" fill="#3B3B3B" font-size="15"> </text>
    <text x="180.4" y="109" fill="#811F3F" font-size="15">re</text>
    <text x="197.6" y="109" fill="#811F3F" font-size="15">&quot;</text>
    <text x="206.2" y="109" fill="#811F3F" font-size="15">^item-</text>
    <text x="257.8" y="109" fill="#3B3B3B" font-size="15">\{</text>
    <text x="275.0" y="109" fill="#001080" font-size="15">value</text>
    <text x="318.0" y="109" fill="#3B3B3B" font-size="15">}</text>
    <text x="326.6" y="109" fill="#811F3F" font-size="15">$</text>
    <text x="335.2" y="109" fill="#811F3F" font-size="15">&quot;</text>
    <text x="26" y="131" fill="#6E7681" font-size="15"> 5</text>
    <text x="60.0" y="131" fill="#3B3B3B" font-size="15">  </text>
    <text x="77.2" y="131" fill="#001080" font-size="15">one</text>
    <text x="103.0" y="131" fill="#3B3B3B" font-size="15"> </text>
    <text x="111.6" y="131" fill="#000000" font-size="15">+</text>
    <text x="120.2" y="131" fill="#3B3B3B" font-size="15"> </text>
    <text x="128.8" y="131" fill="#001080" font-size="15">two</text>
    <text x="154.6" y="131" fill="#3B3B3B" font-size="15"> </text>
    <text x="163.2" y="131" fill="#000000" font-size="15">+</text>
    <text x="171.8" y="131" fill="#3B3B3B" font-size="15"> </text>
    <text x="180.4" y="131" fill="#001080" font-size="15">three</text>
    <text x="26" y="153" fill="#6E7681" font-size="15"> 6</text>
    <text x="60.0" y="153" fill="#3B3B3B" font-size="15">}</text>
  </g>
</svg>
