<svg xmlns="http://www.w3.org/2000/svg" width="602" height="496" viewBox="0 0 602 496">
  <rect width="100%" height="100%" rx="8" fill="#FFFFFF"/>
  <g font-family="SFMono-Regular, Menlo, Monaco, Consolas, 'Liberation Mono', monospace" xml:space="preserve">
    <text x="26" y="43" fill="#6E7681" font-size="15"> 1</text>
    <text x="60.0" y="43" fill="#267F99" font-size="15">name</text>
    <text x="94.4" y="43" fill="#3B3B3B" font-size="15"> </text>
    <text x="103.0" y="43" fill="#000000" font-size="15">=</text>
    <text x="111.6" y="43" fill="#3B3B3B" font-size="15"> </text>
    <text x="120.2" y="43" fill="#A31515" font-size="15">&quot;</text>
    <text x="128.8" y="43" fill="#A31515" font-size="15">moonbitlang/async</text>
    <text x="275.0" y="43" fill="#A31515" font-size="15">&quot;</text>
    <text x="26" y="65" fill="#6E7681" font-size="15"> 2</text>
    <text x="26" y="87" fill="#6E7681" font-size="15"> 3</text>
    <text x="60.0" y="87" fill="#267F99" font-size="15">version</text>
    <text x="120.2" y="87" fill="#3B3B3B" font-size="15"> </text>
    <text x="128.8" y="87" fill="#000000" font-size="15">=</text>
    <text x="137.4" y="87" fill="#3B3B3B" font-size="15"> </text>
    <text x="146.0" y="87" fill="#A31515" font-size="15">&quot;</text>
    <text x="154.6" y="87" fill="#A31515" font-size="15">0.19.2</text>
    <text x="206.2" y="87" fill="#A31515" font-size="15">&quot;</text>
    <text x="26" y="109" fill="#6E7681" font-size="15"> 4</text>
    <text x="26" y="131" fill="#6E7681" font-size="15"> 5</text>
    <text x="60.0" y="131" fill="#267F99" font-size="15">readme</text>
    <text x="111.6" y="131" fill="#3B3B3B" font-size="15"> </text>
    <text x="120.2" y="131" fill="#000000" font-size="15">=</text>
    <text x="128.8" y="131" fill="#3B3B3B" font-size="15"> </text>
    <text x="137.4" y="131" fill="#A31515" font-size="15">&quot;</text>
    <text x="146.0" y="131" fill="#A31515" font-size="15">README.md</text>
    <text x="223.4" y="131" fill="#A31515" font-size="15">&quot;</text>
    <text x="26" y="153" fill="#6E7681" font-size="15"> 6</text>
    <text x="26" y="175" fill="#6E7681" font-size="15"> 7</text>
    <text x="60.0" y="175" fill="#267F99" font-size="15">repository</text>
    <text x="146.0" y="175" fill="#3B3B3B" font-size="15"> </text>
    <text x="154.6" y="175" fill="#000000" font-size="15">=</text>
    <text x="163.2" y="175" fill="#3B3B3B" font-size="15"> </text>
    <text x="171.8" y="175" fill="#A31515" font-size="15">&quot;</text>
    <text x="180.4" y="175" fill="#A31515" font-size="15">https://github.com/moonbitlang/async</text>
    <text x="490.0" y="175" fill="#A31515" font-size="15">&quot;</text>
    <text x="26" y="197" fill="#6E7681" font-size="15"> 8</text>
    <text x="26" y="219" fill="#6E7681" font-size="15"> 9</text>
    <text x="60.0" y="219" fill="#267F99" font-size="15">license</text>
    <text x="120.2" y="219" fill="#3B3B3B" font-size="15"> </text>
    <text x="128.8" y="219" fill="#000000" font-size="15">=</text>
    <text x="137.4" y="219" fill="#3B3B3B" font-size="15"> </text>
    <text x="146.0" y="219" fill="#A31515" font-size="15">&quot;</text>
    <text x="154.6" y="219" fill="#A31515" font-size="15">Apache-2.0</text>
    <text x="240.6" y="219" fill="#A31515" font-size="15">&quot;</text>
    <text x="26" y="241" fill="#6E7681" font-size="15">10</text>
    <text x="26" y="263" fill="#6E7681" font-size="15">11</text>
    <text x="60.0" y="263" fill="#267F99" font-size="15">keywords</text>
    <text x="128.8" y="263" fill="#3B3B3B" font-size="15"> </text>
    <text x="137.4" y="263" fill="#000000" font-size="15">=</text>
    <text x="146.0" y="263" fill="#3B3B3B" font-size="15"> </text>
    <text x="154.6" y="263" fill="#3B3B3B" font-size="15">[</text>
    <text x="163.2" y="263" fill="#3B3B3B" font-size="15"> </text>
    <text x="171.8" y="263" fill="#3B3B3B" font-size="15">]</text>
    <text x="26" y="285" fill="#6E7681" font-size="15">12</text>
    <text x="26" y="307" fill="#6E7681" font-size="15">13</text>
    <text x="60.0" y="307" fill="#267F99" font-size="15">description</text>
    <text x="154.6" y="307" fill="#3B3B3B" font-size="15"> </text>
    <text x="163.2" y="307" fill="#000000" font-size="15">=</text>
    <text x="171.8" y="307" fill="#3B3B3B" font-size="15"> </text>
    <text x="180.4" y="307" fill="#A31515" font-size="15">&quot;</text>
    <text x="189.0" y="307" fill="#A31515" font-size="15">Asynchronous programming library for MoonBit</text>
    <text x="567.4" y="307" fill="#A31515" font-size="15">&quot;</text>
    <text x="26" y="329" fill="#6E7681" font-size="15">14</text>
    <text x="26" y="351" fill="#6E7681" font-size="15">15</text>
    <text x="60.0" y="351" fill="#267F99" font-size="15">preferred_target</text>
    <text x="197.6" y="351" fill="#3B3B3B" font-size="15"> </text>
    <text x="206.2" y="351" fill="#000000" font-size="15">=</text>
    <text x="214.8" y="351" fill="#3B3B3B" font-size="15"> </text>
    <text x="223.4" y="351" fill="#A31515" font-size="15">&quot;</text>
    <text x="232.0" y="351" fill="#A31515" font-size="15">native</text>
    <text x="283.6" y="351" fill="#A31515" font-size="15">&quot;</text>
    <text x="26" y="373" fill="#6E7681" font-size="15">16</text>
    <text x="26" y="395" fill="#6E7681" font-size="15">17</text>
    <text x="60.0" y="395" fill="#795E26" font-size="15">options</text>
    <text x="120.2" y="395" fill="#3B3B3B" font-size="15">(</text>
    <text x="26" y="417" fill="#6E7681" font-size="15">18</text>
    <text x="60.0" y="417" fill="#3B3B3B" font-size="15">  </text>
    <text x="77.2" y="417" fill="#267F99" font-size="15">source</text>
    <text x="128.8" y="417" fill="#3B3B3B" font-size="15">:</text>
    <text x="137.4" y="417" fill="#3B3B3B" font-size="15"> </text>
    <text x="146.0" y="417" fill="#A31515" font-size="15">&quot;</text>
    <text x="154.6" y="417" fill="#A31515" font-size="15">src</text>
    <text x="180.4" y="417" fill="#A31515" font-size="15">&quot;</text>
    <text x="189.0" y="417" fill="#3B3B3B" font-size="15">,</text>
    <text x="26" y="439" fill="#6E7681" font-size="15">19</text>
    <text x="60.0" y="439" fill="#3B3B3B" font-size="15">  </text>
    <text x="77.2" y="439" fill="#267F99" font-size="15">exclude</text>
    <text x="137.4" y="439" fill="#3B3B3B" font-size="15">:</text>
    <text x="146.0" y="439" fill="#3B3B3B" font-size="15"> </text>
    <text x="154.6" y="439" fill="#3B3B3B" font-size="15">[</text>
    <text x="163.2" y="439" fill="#3B3B3B" font-size="15"> </text>
    <text x="171.8" y="439" fill="#A31515" font-size="15">&quot;</text>
    <text x="180.4" y="439" fill="#A31515" font-size="15">test_directory</text>
    <text x="300.8" y="439" fill="#A31515" font-size="15">&quot;</text>
    <text x="309.4" y="439" fill="#3B3B3B" font-size="15">,</text>
    <text x="318.0" y="439" fill="#3B3B3B" font-size="15"> </text>
    <text x="326.6" y="439" fill="#A31515" font-size="15">&quot;</text>
    <text x="335.2" y="439" fill="#A31515" font-size="15">test_keys</text>
    <text x="412.6" y="439" fill="#A31515" font-size="15">&quot;</text>
    <text x="421.2" y="439" fill="#3B3B3B" font-size="15"> </text>
    <text x="429.8" y="439" fill="#3B3B3B" font-size="15">]</text>
    <text x="438.4" y="439" fill="#3B3B3B" font-size="15">,</text>
    <text x="26" y="461" fill="#6E7681" font-size="15">20</text>
    <text x="60.0" y="461" fill="#3B3B3B" font-size="15">)</text>
  </g>
</svg>
