<svg xmlns="http://www.w3.org/2000/svg" width="301" height="232" viewBox="0 0 301 232">
  <rect width="100%" height="100%" rx="8" fill="#FFFFFF"/>
  <g font-family="SFMono-Regular, Menlo, Monaco, Consolas, 'Liberation Mono', monospace" xml:space="preserve">
    <text x="26" y="43" fill="#6E7681" font-size="15"> 1</text>
    <text x="60.0" y="43" fill="#AF00DB" font-size="15">import</text>
    <text x="111.6" y="43" fill="#3B3B3B" font-size="15"> </text>
    <text x="120.2" y="43" fill="#3B3B3B" font-size="15">(</text>
    <text x="26" y="65" fill="#6E7681" font-size="15"> 2</text>
    <text x="60.0" y="65" fill="#3B3B3B" font-size="15">  </text>
    <text x="77.2" y="65" fill="#001080" font-size="15">p1</text>
    <text x="94.4" y="65" fill="#3B3B3B" font-size="15"> </text>
    <text x="103.0" y="65" fill="#A31515" font-size="15">&quot;</text>
    <text x="111.6" y="65" fill="#A31515" font-size="15">basic_package/pkg1</text>
    <text x="266.4" y="65" fill="#A31515" font-size="15">&quot;</text>
    <text x="26" y="87" fill="#6E7681" font-size="15"> 3</text>
    <text x="60.0" y="87" fill="#3B3B3B" font-size="15">  </text>
    <text x="77.2" y="87" fill="#A31515" font-size="15">&quot;</text>
    <text x="85.8" y="87" fill="#A31515" font-size="15">basic_package/pkg2</text>
    <text x="240.6" y="87" fill="#A31515" font-size="15">&quot;</text>
    <text x="26" y="109" fill="#6E7681" font-size="15"> 4</text>
    <text x="60.0" y="109" fill="#3B3B3B" font-size="15">)</text>
    <text x="26" y="131" fill="#6E7681" font-size="15"> 5</text>
    <text x="26" y="153" fill="#6E7681" font-size="15"> 6</text>
    <text x="60.0" y="153" fill="#0000FF" font-size="15">package</text>
    <text x="120.2" y="153" fill="#3B3B3B" font-size="15"> </text>
    <text x="128.8" y="153" fill="#267F99" font-size="15">std/fixedarray</text>
    <text x="26" y="175" fill="#6E7681" font-size="15"> 7</text>
    <text x="26" y="197" fill="#6E7681" font-size="15"> 8</text>
    <text x="60.0" y="197" fill="#AF00DB" font-size="15">import</text>
    <text x="111.6" y="197" fill="#3B3B3B" font-size="15"> </text>
    <text x="120.2" y="197" fill="#A31515" font-size="15">&quot;</text>
    <text x="128.8" y="197" fill="#A31515" font-size="15">extenum/base</text>
    <text x="232.0" y="197" fill="#A31515" font-size="15">&quot;</text>
  </g>
</svg>
